<svg id="Layer_1" data-name="Layer 1" xmlns="http://www.w3.org/2000/svg" viewBox="0 0 300 300"><defs><style>.cls-1{fill:#f1b71c;}.cls-2{fill:#d0462e;}.cls-3{fill:#4c2216;}.cls-4{fill:#3a8199;}.cls-5,.cls-6{fill:none;stroke-linecap:round;stroke-miterlimit:10;}.cls-5{stroke:#f1b71c;}.cls-6{stroke:#000;stroke-width:2px;}</style></defs><path class="cls-1" d="M192.11,95.53l.08,24.44c0,5.71,0,11.42.56,17.1,1.2,13.35,5.13,26.51,4.45,39.89l5.54.82c2.54.37,5.62.55,7.18-1.49,1-1.26,1-3,1-4.54q0-27.56,1-55.08l2.66,57.39a1.46,1.46,0,0,0,.21.81,1.43,1.43,0,0,0,1.11.39l10.09.46c1,0,2.2,0,2.74-.86a3,3,0,0,0,.23-1.9c-.87-8.75.17-17.57,1.21-26.3q.76-6.36,1.52-12.7c1-8.37,2-16.74,3.55-25-2.5.09-5.2.12-7.26-1.3-.88-.61-1.57-1.45-2.41-2.12-3.27-2.63-8.44-2.52-11-5.88-1.46-2-1.59-4.59-2.54-6.84a2.38,2.38,0,0,0-.72-1,2.58,2.58,0,0,0-1.53-.33,42.8,42.8,0,0,0-18,4"/><path class="cls-2" d="M195.7,79.11c-.27,5.24-1.67,9.69-2.93,14.78,4.29-.23,19-5.82,20.59-.66,1.17,5.31,4.2,8.37,9.07,9.74,3.6,1.7,8.87,6.25,12.93,5.41,1-9-.31-18.68.36-27.77.85-2.93-3.91-3-4.29-5,5.18,3.9,12.46,2.83,10.77-4-1.1-5.14-4-10.9-5.82-15.83C235,49.15,229.09,44.2,222.9,41.27c-2.26,4.07-4.23,7.76-7.77,10.78-3.9-2-7.54-8.16-5.31-12-4.12,2.53-9.06,2.84-11.3,7.53C196,53.35,180.94,79.26,194,79.28"/><path class="cls-3" d="M215.69,60a7,7,0,0,1-3.16.37,2.4,2.4,0,0,1-2-2.14c0-.48.22-1,.23-1.43s-.29-1.06-.77-1c-.51,1.13-.06,2.58-.75,3.62a3.9,3.9,0,0,1-1.34,1.07L194.47,68.2a11.5,11.5,0,0,0-3.85,3,3.93,3.93,0,0,0-.21,4.6A3.85,3.85,0,0,0,194.1,77a10,10,0,0,0,3.64-1.72c4.17-2.79,7.55-7.15,12.08-9.32a34.64,34.64,0,0,0,4.48-2c1.45-1.12,1.29-1.5,1.35-3.33"/><path class="cls-3" d="M224.49,58.47a11.65,11.65,0,0,0-1-5.39,4.67,4.67,0,0,0-4.44-2.69,9.71,9.71,0,0,1,2.88,2.9,4.59,4.59,0,0,1-1.82-.23c-.61-.11-1.37,0-1.59.59s.38,1.29.82,1.85c1.35,1.67,1.14,4.07,1.74,6.13.75,2.55,2.72,4.52,4.63,6.37l3.34,3.26c1.9,1.86,4,3.8,6.59,4.26,1.54.28,3.38-.15,4.09-1.55a3.66,3.66,0,0,0,.32-1.88,9.69,9.69,0,0,0-2.9-5.8c-3.41-3.63-8.1-5.73-12.66-7.74"/><path class="cls-3" d="M208.13,28c-2.69-2.75-2.52,4.92-.13,4.38,1.48-.29,2,1.82,2.68,3,1.36,5-2.48,11.91,3.83,15.45,2.36-1.71,5-3.63,5.85-6.61.94-3.4-.62-7.81-.62-7.81s-3.24,2.29-4.61,1.58a6.86,6.86,0,0,0,4.94-2.82c1.13-1.36,1-2.7,2.33-3s2-3.46,1.64-5.33a1.12,1.12,0,0,0-1.56-.78l-.35.17c-2-11.24-15.86-10-14,1.44"/><path d="M223,25.05l-.2-5.54a3,3,0,0,0-.16-1,5.3,5.3,0,0,0-.55-.9,1.24,1.24,0,0,1-.21-1,2.32,2.32,0,0,0,.13-.37.71.71,0,0,0-.51-.73,2.12,2.12,0,0,0-1,0,2.32,2.32,0,0,0-.48-.87.81.81,0,0,0-.91-.22c-.24.13-.38.42-.62.55a1.12,1.12,0,0,1-.57.11,1.63,1.63,0,0,1-.82-.11.56.56,0,0,1-.27-.7.45.45,0,0,0-.56-.07c-.19.09-.35.24-.54.31a2.1,2.1,0,0,1-.75,0,2.47,2.47,0,0,0-1.59.54c-.6.49-1,1.26-1.69,1.56s-1.65,0-2.41.29A2.7,2.7,0,0,0,208,18.16a11.24,11.24,0,0,0-.93,8.25c.06.25.52,1,.77,1.05a21.2,21.2,0,0,1,.25-4.44,4.85,4.85,0,0,1,1.75-3.16,7.41,7.41,0,0,1,4.31-1.74,14.68,14.68,0,0,1,3.2.66,5.7,5.7,0,0,1,3,2.76A15.28,15.28,0,0,1,222.23,26l.75-.34"/><path class="cls-3" d="M200.62,178l-.37,4.51a17.1,17.1,0,0,0-.07,3.2c.07.73.35,1.6,1.07,1.78a1.82,1.82,0,0,0,1.63-.75c2-2.16,2.36-5.29,2.34-8.2L201,178"/><path class="cls-3" d="M217.55,175.82c-.1,1.42-.13,3.05.89,4a4.78,4.78,0,0,0,.93.67,15,15,0,0,0,3.7,1.78.81.81,0,0,0,.79-.09.56.56,0,0,0,.14-.31,4.25,4.25,0,0,0-.5-2.41,8.85,8.85,0,0,1-.57-3.45,18.09,18.09,0,0,0-4.87-.33"/><path class="cls-2" d="M198.16,186.1c.06,8.45,6.63,4.48,7.05-1.51a3.26,3.26,0,0,1-1.83,2.36c-3.1,2.73-4.36-.49-4.29-3.37"/><path class="cls-2" d="M217.59,181.24c1.71,8,13.88,12.61,7.3.39-1.51,3.88-5,0-7.07-1.39"/><path class="cls-3" d="M167.88,17c-.1-.76-.39-1.73-1.16-1.78s-1.2,1-1.21,1.88a3.42,3.42,0,0,0,.29,1.65,1.46,1.46,0,0,0,1.33.86c.19,0,.41-.06.55.07a.54.54,0,0,1,.13.33,44.67,44.67,0,0,1,.45,9,2.64,2.64,0,0,0,.12,1.19,2.63,2.63,0,0,0,.6.73l4.44,4.21a.81.81,0,0,0,.54.29.84.84,0,0,0,.48-.27L177,32.84a2.67,2.67,0,0,0,.85-1.1,2.73,2.73,0,0,0,.08-.9l-.08-3.44A6.26,6.26,0,0,1,169.9,25a21.81,21.81,0,0,0,3.72,1.2,5.82,5.82,0,0,0,4.33-.3,5,5,0,0,0,1.77-2.19A18.18,18.18,0,0,0,180.94,18a42.48,42.48,0,0,0,.3-7.56c-.07-.86-.4-1.93-1.26-2a3.1,3.1,0,0,0-1,.21c-1.42.35-2.83-.55-4.27-.77a5.9,5.9,0,0,0-5.61,2.81A10.37,10.37,0,0,0,167.71,17"/><path class="cls-3" d="M193.17,97.87l2.81-.15a1.18,1.18,0,0,1,.59.07,1.19,1.19,0,0,1,.49.75,21.41,21.41,0,0,1,.86,4.27,8.07,8.07,0,0,1,0,1.63,5.15,5.15,0,0,1-5,4.44c.81-1.86,1.63-3.92,1-5.86a7.6,7.6,0,0,0-1.65,2.46,34,34,0,0,1,.44-7.54"/><path class="cls-3" d="M161.35,178.11l.06,2.45a3.38,3.38,0,0,1,3.57-1.71,1.85,1.85,0,0,0,.73.08.48.48,0,0,0,.43-.51c-.07-.3-.48-.36-.79-.34l-4,.19"/><path class="cls-3" d="M185.06,179.06l.12,1.62a.26.26,0,0,0,0,.17.26.26,0,0,0,.19.06,6,6,0,0,0,2.77-.18,6.79,6.79,0,0,0,1-.55l1.68-1.06a.88.88,0,0,0,.38-.36,9.74,9.74,0,0,0-.22-2.74c-.06,0-1.71.19-1.78.21-1.87.41-4.62,1.25-4.08,2.65"/><path class="cls-3" d="M156.23,97.13,153.41,97a.9.9,0,0,0-1.08.82,21.41,21.41,0,0,0-.86,4.27,8.07,8.07,0,0,0,0,1.63,5.16,5.16,0,0,0,5,4.45c-.8-1.87-1.62-3.92-1-5.87a7.6,7.6,0,0,1,1.65,2.46,33.42,33.42,0,0,0-.44-7.54"/><path class="cls-4" d="M188.34,91.21c-4.06,2.69-9.39,2.25-14.17,1.27s-9.66-2.42-14.42-1.41q-1.5,17.22-1.39,34.53c0,4.91.15,9.82.27,14.74l.91,35.7a1.19,1.19,0,0,0,1.54,1.36l6.75-.08,2.83-28.84.78-8c.71-7.24,1.42-14.49,1.71-21.76.13-3.27.18-6.54.22-9.82a41.51,41.51,0,0,0,3,12.16c1.49,3.56,3.51,7,4,10.82a29.93,29.93,0,0,1,.07,4.92,171.76,171.76,0,0,0,3.57,40.9,33.16,33.16,0,0,1,8.31-2.17c-1.61-6.07-1.49-12.45-1.37-18.73.14-7.38.28-14.76.24-22.14,0-5.89-.17-11.79-.71-17.65-.77-8.49-2.37-17-1.67-25.47"/><path class="cls-1" d="M168.29,31.92c-5,1-10.39,2.28-13.38,6.36a15.68,15.68,0,0,0-2.52,8.94c-.08,3.14.31,6.29.18,9.43-.11,2.78-.63,5.53-.95,8.3-1.23,10.39.24,20.89.19,31.36l4.07.71a1.84,1.84,0,0,0,1.35-.11,1.82,1.82,0,0,0,.57-1.4c1.2-12.22.68-24.58,2.14-36.77a299.39,299.39,0,0,1,0,31,1.06,1.06,0,0,0,.13.7,1,1,0,0,0,.63.31c2.18.47,4.46.09,6.68.32,2.59.27,5,1.36,7.56,2a19.92,19.92,0,0,0,12.66-1.29,1.8,1.8,0,0,0,.76-.53,1.83,1.83,0,0,0,.26-1,115.51,115.51,0,0,0-1-23.87c-.73-5-1.79-10.15-.39-15a463.31,463.31,0,0,0,4.23,46.6l5.05-1.12a1.26,1.26,0,0,0,1.26-1.52c-.1-10.24-.22-20.55-2.23-30.6-.78-3.91-1.85-7.77-2.56-11.7-.6-3.29-.94-6.64-1.82-9.86a15.3,15.3,0,0,0-4.26-7.62A15.39,15.39,0,0,0,180,32.34a3.27,3.27,0,0,0-1.55-.07,3.21,3.21,0,0,0-1.28.91l-2.3,2.25a1.49,1.49,0,0,1-1,.55,1.53,1.53,0,0,1-.85-.42l-4.54-3.63"/><path d="M167.25,12.74c.33-1.64-.32-3.38.17-5a4.69,4.69,0,0,1,2.87-2.85,10.23,10.23,0,0,1,4.12-.53,10,10,0,0,1,3.72.72,4.55,4.55,0,0,1,2.58,2.67c-1.15,0-2.29.36-3.45.3-.84,0-1.66-.33-2.5-.45a6.31,6.31,0,0,0-5.18,1.72,12.69,12.69,0,0,0-2.32,3.71"/><path d="M161.66,182.07a1.62,1.62,0,0,1,.91-1.91,4.78,4.78,0,0,1,2.29-.29l1,0a1.47,1.47,0,0,1,.42.06,1.45,1.45,0,0,1,.54.45,10.31,10.31,0,0,0,3.3,2.44,1,1,0,0,1,.39.27.64.64,0,0,1-.21.85,1.78,1.78,0,0,1-.94.24c-2.21.16-4.44.12-6.66.07a1.41,1.41,0,0,1-1.07-.33c-.32-.36-.17-.92,0-1.37"/><path d="M185.18,181.27l.14,2.16a.53.53,0,0,0,.12.35.48.48,0,0,0,.35.09l16.35.2c.42,0,.93-.06,1.06-.46s-.18-.68-.47-.89c-1.72-1.25-4.1-.79-6.21-1.12a8,8,0,0,1-4.4-2.24c-.24-.23-.54-.51-.86-.42a1,1,0,0,0-.39.27,6.52,6.52,0,0,1-5.46,1.68"/><path class="cls-3" d="M160.49,85.13a6,6,0,0,1,.86-2.46,1.14,1.14,0,0,1,1.71,0,1.69,1.69,0,0,1,0,1.29,24.35,24.35,0,0,0-.42,8.76,5.56,5.56,0,0,1,.06,2,3.71,3.71,0,0,1-1.12,1.77,7.66,7.66,0,0,1-6.94,1.94c-.12-.82-.69-2.2-.81-3a8.51,8.51,0,0,0,5.7-2.59,15.5,15.5,0,0,1-4.69,1.76,5.26,5.26,0,0,1-4.64-1.37,7.14,7.14,0,0,1-1.38-2.88c-.75-2.57-.36-4.53-.53-7.21a15.41,15.41,0,0,1,1.33-4c.51-1,1.68-1.24,2.82-1.33,2.07-.17,4.29,0,5.81,1.44s1.71,3.85,2.22,5.87"/><path class="cls-2" d="M163.61,95.44c-2.59,2.75-7.28,3.48-8.7,7l-3-5.49a5.62,5.62,0,0,0-1.19-1.65c-1.33-1.11-3.45-.71-4.76.42a11.23,11.23,0,0,0-2.67,4.41,93,93,0,0,0-4.8,13.69A12.1,12.1,0,0,1,137,118a10.82,10.82,0,0,1-3.91,3,6.73,6.73,0,0,1,5.13,9.16c2.67-.25,4.84-2.45,5.84-4.94a22.16,22.16,0,0,0,1.11-7.92l.11-6.38a84.17,84.17,0,0,1,.43,22.42c-.37,3.22-.79,6.89,1.36,9.31A9.54,9.54,0,0,0,151,145a38,38,0,0,0,10.64,2.29,14,14,0,0,0,5.21-.42,6.3,6.3,0,0,0,3.93-3.25,9.66,9.66,0,0,0,.57-3.63q.16-7.8-.28-15.59a7.2,7.2,0,0,0-.28-1.85c-.65-1.87-5-7.1-6.2-10.18s-.74-7.12,2-9c-2.46,2.3-2.06,6.41-.45,9.37s4.15,5.32,5.77,8.27c.86,1.57,1.45,3.28,2.35,4.82a23.45,23.45,0,0,1,2.08,3.63,12.63,12.63,0,0,1,.52,4.42l0,7.66a1.51,1.51,0,0,0,.23,1,1.46,1.46,0,0,0,.88.39,20.41,20.41,0,0,0,8-.13,2,2,0,0,0,1.2-.57,2.08,2.08,0,0,0,.38-1c.85-5.23.38-10.58-.1-15.85a21.7,21.7,0,0,0-.68-4.33,20.18,20.18,0,0,0-2.27-4.7,111.2,111.2,0,0,0-9.52-13.39c-1.89-2.29-4-4.58-6.78-5.61.63-.61,1.9.24,2.47-.41a1.23,1.23,0,0,0,.23-.77,7.17,7.17,0,0,0-5.19-7c-.7-.19-1.61-.17-2,.46a1.88,1.88,0,0,0-.15,1l.07,3.69"/><path class="cls-4" d="M146,144.58a97.38,97.38,0,0,0,1.39,12.87c1.12-1.71-3.16,13.85-3.24,23.79,0,3.32.31,6.63.35,9.94.12,11.35-3.22,22.54-3,33.89a1.28,1.28,0,0,0,.19.77,1.34,1.34,0,0,0,.53.34,32.67,32.67,0,0,0,8.8,2.26,3.6,3.6,0,0,0,3.05-.65,3.79,3.79,0,0,0,.78-2.29,181.72,181.72,0,0,1,3.75-21.23c1.07-4.52,2.32-9.28.93-13.71a21.33,21.33,0,0,1-1.31-4.28,10.35,10.35,0,0,1,.56-3.89,54,54,0,0,1,5.56-12.7c-1.35,4.73-4.53,9-4.75,13.9-.12,2.81.74,5.55,1.33,8.3,1.61,7.5,1.22,15.27,2.21,22.88a1.27,1.27,0,0,0,1.14,1.35c3.35,1,7,2,10.32.83a2.15,2.15,0,0,0,1.37-1.06,2.51,2.51,0,0,0-.15-1.72c-1.65-5.34-1.12-11.06-1.14-16.64a31.25,31.25,0,0,0-.63-6.83,53.22,53.22,0,0,0-1.79-5.58,130,130,0,0,1-4.36-18.31,19.61,19.61,0,0,1-.48-4.17c.17-5.46,4.85-10.34,3.93-15.73a35.7,35.7,0,0,1-24.71-3.06"/><path d="M153.82,229.38l-10-1.22a7.72,7.72,0,0,0-2.3,0,7.61,7.61,0,0,0-2.14.81l-4.58,2.26c-1.39.69-3,1.65-3.06,3.2a3,3,0,0,0,2.11,2.77,8.09,8.09,0,0,0,3.7.16,60.49,60.49,0,0,0,14.27-3.54,3.69,3.69,0,0,0,1.36-.78c.79-.82.65-2.13.46-3.26"/><path d="M163.26,216.74a17.24,17.24,0,0,1-3.68,2.07,8.16,8.16,0,0,0-3.33,2.51,3.35,3.35,0,0,0-.09,3.93,1.15,1.15,0,0,0,.68.45,1.47,1.47,0,0,0,.59-.07l15.85-4.07a2.85,2.85,0,0,0,2.52-4,21.79,21.79,0,0,1-12-.26"/><path class="cls-3" d="M178.68,144.23l-2.63,10.53a13.62,13.62,0,0,1-1.62,4.34c-.88,1.34-2.3,2.57-2.15,4.16l2.58-1.94a47.23,47.23,0,0,0-.37,6.62.76.76,0,0,0,.14.53.68.68,0,0,0,.46.16,3.65,3.65,0,0,0,3.5-2.29c1.93-5.71,3-15.73,6.71-22.83a33.87,33.87,0,0,0-6.42.89"/><path d="M120.56,125.4a35.67,35.67,0,0,1-2.06-4.75c-.13-.35-.22-.78,0-1a1,1,0,0,1,.93,0,11.42,11.42,0,0,1,5,3.57,21,21,0,0,1,2.53,4.45c1.16,2.55,2.23,5.13,3.31,7.71.13.33.25.76,0,1a.73.73,0,0,1-.46.16c-1.07.06-1.89-.9-2.52-1.77l-5.93-8.18"/><path class="cls-3" d="M132.92,121.85a4.54,4.54,0,0,1,3.59,1.86,8.18,8.18,0,0,1,1.47,3.88,2.36,2.36,0,0,1-.24,1.72,2.26,2.26,0,0,1-1,.68,21.59,21.59,0,0,1-6.6,1.27.41.41,0,0,1-.31-.06.44.44,0,0,1-.13-.23,14.6,14.6,0,0,0-2.62-4.9,1.31,1.31,0,0,1-.34-.62c-.07-.49.44-.85.88-1.08a33,33,0,0,1,4.67-2"/><path class="cls-3" d="M120.69,126.29a10.23,10.23,0,0,0-.33,4.26.69.69,0,0,0,.14.39c.15.17.43.16.65.24.47.15.68.69.89,1.14a3.76,3.76,0,0,0,3.58,2.39,13.09,13.09,0,0,0,.61-5.73c-.24.27-.69,0-.81-.39s-.16-.77-.48-.94a2.11,2.11,0,0,0-.43-.12,1.89,1.89,0,0,1-1-1,2.71,2.71,0,0,0-.86-1.2c-.43-.26-1.13-.11-1.22.38"/><path d="M148.59,81.26c-1.43-2.42-.43-5.75,1.73-7.54a10.68,10.68,0,0,1,8-2,6,6,0,0,1,3,1,6.71,6.71,0,0,1,1.91,3.12,20.84,20.84,0,0,1,1.44,5.83,9.07,9.07,0,0,1-1.42,5.74c.21-1.16.38-2.33.48-3.5a2,2,0,0,0-.35-1.66,1.41,1.41,0,0,0-1.8.06A4.17,4.17,0,0,0,160.5,84a12.45,12.45,0,0,0-2-4.14,6.06,6.06,0,0,0-10,1.06"/><path class="cls-3" d="M54,63.37a1.3,1.3,0,0,0-2.12-.95A1.69,1.69,0,0,0,52.4,65c.49.24,1.08.25,1.49.61a2.37,2.37,0,0,1,.57,1.7l.62,9.38a12.44,12.44,0,0,0,1.26,5.58c1,1.65,3,2.78,4.78,2,2-.89,2.39-3.58,2.3-5.8A34,34,0,0,0,63,74.19a7.82,7.82,0,0,1-6.47-3.12,13.29,13.29,0,0,0,4.27,1.69A4.54,4.54,0,0,0,65,71.37a6.08,6.08,0,0,0,1-2.17,28.61,28.61,0,0,0,.93-12.44A3.69,3.69,0,0,0,65.14,54c-.24-.13-2.89-1.21-4.16-.94a8.25,8.25,0,0,0-5.35,4.16c-1,2-1.07,4.37-1.11,6.63"/><path class="cls-3" d="M81.63,123.54,79.94,128c-.18.48-.34,1.07.07,1.43a1.71,1.71,0,0,0,.59.29l4.25,1.39a2.85,2.85,0,0,0,1.15.2c1-.08,1.86-1.08,2.67-.63-.09-.22.17-.43.4-.56l1.78-1a1.8,1.8,0,0,0,.77-.66,1,1,0,0,0-.43-1.17,3.91,3.91,0,0,0-1.34-.55c-1.64-.48-3.26-1-4.85-1.61a.77.77,0,0,1-.39-.23c-.25-.28,0-.7.35-.92s.74-.4.86-.75c.17-.5-.46-1-1.06-1a3.2,3.2,0,0,0-1.62.62L81.29,124"/><path class="cls-3" d="M77.79,141.46a25.41,25.41,0,0,0-.76,8.62l1.63-3.29c.89.91.56,2.55.17,3.83L78.11,153a2.77,2.77,0,0,0,3.32-1.42,7.41,7.41,0,0,0,.53-3.4l0-8a.53.53,0,0,0-.09-.38.4.4,0,0,0-.3-.09,29.6,29.6,0,0,0-3.26.06"/><path class="cls-1" d="M54.07,78.17a23.15,23.15,0,0,0-8.54,1.93,7.75,7.75,0,0,0-3.12,2.15,7.08,7.08,0,0,0-1.29,3.09C40.28,89.61,41.63,94,43.5,98A94.68,94.68,0,0,0,51,110.29c-1.67-1.46-3.33-4.4-5-5.85-1.09,22.87-2.4,47.22-3.92,70.07L59.3,175a6.88,6.88,0,0,0,2.68-.29c1.86-.75,2.7-3,2.86-5s-.15-4.14.4-6.12L65.16,171a3.06,3.06,0,0,0,.64,2.33,2.81,2.81,0,0,0,1.52.55L75,175.07a1.49,1.49,0,0,0,1.14-.14,1.47,1.47,0,0,0,.42-1,38,38,0,0,0,.11-5.94Q76,149.1,74.46,130.28l1.21,7.87a1.49,1.49,0,0,0,.45,1,1.42,1.42,0,0,0,.91.15,17.09,17.09,0,0,0,4.68-1.06l.1-5.31a3.91,3.91,0,0,0-.34-2,3.73,3.73,0,0,0-2-1.38l-9.56-3.65c-3.65-1.4-6.58-2.46-9.4-5.21a36.05,36.05,0,0,1-5.3-6.63c5.3,7.66,14.69,10.87,23.44,13.61a4.26,4.26,0,0,0,1.5-5c-.78-1.56-2.9-2.38-4.28-3.43-2.39-1.82-4.7-3.76-7-5.71-4.54-3.83-7.91-5.6-9.28-11.46,3.51,7,7.17,9,13,12.93q-.21-9.5,0-19a153.31,153.31,0,0,1,1.18,18.8,3.7,3.7,0,0,0,.47,2.21,3.45,3.45,0,0,0,1.43,1l5.54,2.59-2.36-17.81c-.73-5.45-1.47-11-3.69-16-2-4.5-5.74-8.77-10.55-9a14.82,14.82,0,0,1-1.46,4.45,4.84,4.84,0,0,1-3.63,2.58,4.83,4.83,0,0,1-4.06-2.24,14.74,14.74,0,0,1-1.89-4.51"/><path d="M62.5,174.35c1.83,16.93,6.63,33.41,8.1,50.39a1.06,1.06,0,0,0,.17.58.86.86,0,0,0,.61.25,6,6,0,0,0,4-.95,2.69,2.69,0,0,0,1-1,3.48,3.48,0,0,0,.22-1.67c-.51-15.3-2.12-30.58-1.86-45.89a.82.82,0,0,0-.14-.6.75.75,0,0,0-.49-.17l-8.24-1"/><path d="M46.61,175l-.11,50.5a2.81,2.81,0,0,1,2.27-.94,4.08,4.08,0,0,0,1.39.05c.9-.26,1.16-1.41,1.25-2.36C52.94,206.62,56.28,190.62,58,175c-2.37,0-8.9.15-11.27.13"/><path class="cls-2" d="M46.78,226.44a4.29,4.29,0,0,1,3.13-.68,12.43,12.43,0,0,1,3.11,1L55.87,228c.29.12.62.32.63.64a.64.64,0,0,1-.18.4,2.26,2.26,0,0,1-1.77.51l-8,0a.5.5,0,0,1-.3-.08.44.44,0,0,1-.09-.32c0-.7,0-1.4.07-2.1"/><path class="cls-2" d="M70.31,227.16l.33,1.62a.91.91,0,0,0,.25.55.82.82,0,0,0,.51.12q8,.2,15.92-.16a.86.86,0,0,0,.45-.11.62.62,0,0,0,0-.9,1.71,1.71,0,0,0-.91-.39c-2.85-.6-5.79-1.14-8.32-2.63a2.73,2.73,0,0,0-1.13-.47,2.23,2.23,0,0,0-.84.15l-6.23,1.87"/><path d="M52.53,61.62c.78-3.11-.1-6.78,1.87-9.32a6.36,6.36,0,0,1,4.23-2.25,13.52,13.52,0,0,1,4.86.38A45.37,45.37,0,0,1,68,51.65c1.14.8-2.26,1.73-1.86,3.07a7.4,7.4,0,0,0-9.17,1,11.72,11.72,0,0,0-2.68,6.69l-1.55-.85"/><path class="cls-3" d="M123,17c0-.58.86-.82,1.32-.47a1.9,1.9,0,0,1,.59,1.57,3.66,3.66,0,0,1-.75,2.36,2,2,0,0,1-2.27.66c-1.19,3.18-1.35,3.64-1.36,6.5,0,.37-7.21,5.5-10.8,4.87a6,6,0,0,1-.33-2.54,8.5,8.5,0,0,0,6.48-1.17c1.91-1.17,2.07-1.76,3.36-3.59-2.51,2.09-3.92,3.31-7.07,4.17a4.77,4.77,0,0,1-3.76-1.24,12.82,12.82,0,0,1-1.16-3.16c-1.6-5.52-1.35-8.8-1-14.54a4.52,4.52,0,0,1,.55-2.3,1.64,1.64,0,0,1,2.06-.66c.64.37.81,1.22,1.33,1.73.91.91,2.47.47,3.55-.23s2.13-1.65,3.42-1.64c2,0,3.17,2.31,3.46,4.3s.24,4.23,1.61,5.7"/><path d="M106.07,9.81l1.88-2c.27-.29.64-.61,1-.48s.47.76.62,1.21c.37,1.07,1.81,1.36,2.88,1a18.63,18.63,0,0,0,2.89-1.74,2.88,2.88,0,0,1,3.17-.09,3.59,3.59,0,0,1,1,2l1.42,5.58a7.08,7.08,0,0,1,.31,2.95,6.94,6.94,0,0,1-1.16,2.4,11.81,11.81,0,0,1-2.38,2.92,4,4,0,0,1-3.53.88c-1.59-.47-2.69-2.23-4.34-2.28a2.33,2.33,0,0,0-2.32,2c.9-.44,1.32-2.12,2.32-2,.52,0,1.66,1.64,2,2a1.07,1.07,0,0,1,.16,1.42c-.26.29-.21,1-.6,1.07a9.13,9.13,0,0,1-4-.87c-1.1-.49-.37-.48.13-1.58-.15,2.4-.44,3.49,1.62,4.72a6.71,6.71,0,0,0,6.84-.05,10.82,10.82,0,0,0,3.3-3.65,23.5,23.5,0,0,0,2.25-4.62,36.58,36.58,0,0,0,1-3.58l1.81-7.25c.25-1,.35-2.4-.61-2.82a3.61,3.61,0,0,1-.67-.27c-.37-.28-.37-.82-.5-1.26-.36-1.23-1.79-1.72-3-2a42.16,42.16,0,0,0-8.89-.89,3.26,3.26,0,0,0-2.47.75,3.32,3.32,0,0,0-.52.94l-2,4.9"/><path class="cls-1" d="M106.85,28.11c-.38,2.23,1.47,4.42,3.69,5A8.17,8.17,0,0,0,117,31.56a28.79,28.79,0,0,0,4.87-4.75,1.82,1.82,0,0,1,.67-.53,1.84,1.84,0,0,1,.81,0c2.79.36,5.67.76,8,2.25a19.17,19.17,0,0,1,3.7,3.33c1.22,1.3,7.72,21.41,7.81,28.3q.16,13.11.08,26.24c0,.69-.09,1.53-.73,1.83a2,2,0,0,1-1,.1l-3.69-.3a1.07,1.07,0,0,1-1.24-1.11C134.68,76.31,133,65.69,132.75,55l.36,31.88a3.54,3.54,0,0,1-.25,1.68c-.53,1.06-1.89,1.36-3.07,1.49a60.27,60.27,0,0,1-29.67-4.09,3,3,0,0,1-1.87-1.47A12.7,12.7,0,0,1,97.34,82c-.31-5.7,0-11.63.16-17.08.17-5.77.29-10.45.73-16.2-1.22,7.49-.89,13.41-1.56,20.47C96,76.52,98,80.83,96.17,88c-.11.44-2.51,1.47-2.82,1.81-.61.67-3.92,0-4-.49-2.49-18.32-1-34.21,4-52a11.58,11.58,0,0,1,2.33-4.94c2.51-2.68,6.86-2.6,9.92-4.65"/><path class="cls-4" d="M98.38,86.23c2.24,1.16,4.5.94,6.93,1.6,2.81.76,5.76,2.2,8.67,2.25l16.53.3c1.09,0,1.54-1.7,2-.72a20.61,20.61,0,0,1,1.09,3.12l1.16,29.16c.1,2.72.21,5.45.1,8.17-.12,3.2-.54,6.38-.78,9.57-.85,11.55.76,23.24-.91,34.7a82.15,82.15,0,0,0-14.54-.42c-.26-18.84-1.43-44.39-2.23-63.22a69.53,69.53,0,0,1-2.32,13.62c-.72,2.11-1,7.16-1.38,9.35-2.61,15.06-2.36,28-3.48,42.16a27,27,0,0,0-12.07-2.51c-.61,0-1.33,0-1.69-.49a1.93,1.93,0,0,1-.26-1,82.94,82.94,0,0,1,0-13.74c.27-3.28.74-6.54,1-9.82.32-4.06.33-8.15.34-12.23l.06-32a38.44,38.44,0,0,1,.64-8.51c.67-3,1.88-6.44,1.09-9.4"/><path d="M123.91,174.33c-1.67,1.76-4.32,2.17-6.42,3-.2.09-2.69,0-2.88.13a3.41,3.41,0,0,0-.67,1.82c0,.75,3.09.49,3.77.79s8.87.42,12.17-.05a1.11,1.11,0,0,0,.82-.37,1.18,1.18,0,0,0,.13-.56l.27-4.56a.46.46,0,0,0-.06-.31.42.42,0,0,0-.33-.09h-6.8"/><path d="M99,173.79c-3.09.36-6,1.58-9.07,2a5,5,0,0,0-1.8.44,1.49,1.49,0,0,0,.2,2.83,5,5,0,0,0,1.84.21,82.47,82.47,0,0,1,11.32.75,4.35,4.35,0,0,0,3-.3c1.12-.76,1.25-2.33,1.26-3.69a1.35,1.35,0,0,0-.25-1,1.2,1.2,0,0,0-.45-.27,13.26,13.26,0,0,0-6.1-1"/><path class="cls-3" d="M91.24,90.32a24.21,24.21,0,0,0,.23,6.19,6.12,6.12,0,0,0,1.27,3.18,1.18,1.18,0,0,0,1.14.47,1,1,0,0,0,.6-.93,5.85,5.85,0,0,0-.19-1.16,9.23,9.23,0,0,1,.32-3.86c0-.1.07-.22.17-.21s.11.07.15.13l.66,1.21c.27,0,.37-.33.39-.59a22.07,22.07,0,0,0-.27-5.38c0-.19-.09-.41-.27-.47a.59.59,0,0,0-.37,0l-4,1.57"/><path class="cls-3" d="M137,88.66a15.22,15.22,0,0,0-1,4.85A6.57,6.57,0,0,0,138.08,92a14.07,14.07,0,0,1-1.87,4.49,2.17,2.17,0,0,0-.54,1.66,1.29,1.29,0,0,0,1.25.87,2.64,2.64,0,0,0,1.51-.56,7.52,7.52,0,0,0,2.63-3.67,22.54,22.54,0,0,0,1-4.47,1.26,1.26,0,0,0-.1-.94c-.24-.35-.75-.37-1.18-.37a14.22,14.22,0,0,1-3.56-.43"/><path class="cls-1" d="M14.8,90.78c-10.88-.26-1,44-.07,52.15,1.87-.65,6.48.59,6.14-2.4a194.66,194.66,0,0,0-4.75-26.25c3.1,8.86,5.75,27.73,5.32,28.17-1.77,1.53-4.76.65-7,1.08-.45,0-3.41-19.26-3.41-19.26s-7.81,24.28-4.38,98.35c.23,5.1,18.54.79,27.75-.21,1-33.8,1.82-67-.19-100.42-1.51,7-2.6,14.81-4.94,22-12-1.41.1-22-1.78-30,1.69,11.3-8.46,24.69.9,29.55,3.22-9.18,13.85-49.43,4.45-51.91-3.21.94-5.66,5.1-9.19,3.93A23.38,23.38,0,0,1,14.8,90.78Z"/><path class="cls-4" d="M29.66,70A12.2,12.2,0,0,0,21,68.47a6.49,6.49,0,0,0-3.7,1.88,7.25,7.25,0,0,0-1.48,3.47,21.31,21.31,0,0,0-.38,5.69c.1,1.52.33,3.15-.47,4.46-.48.8-1.36,1.53-1.21,2.45,0,.19.1.38.12.58.06.63-.48,1.15-1,1.57a.7.7,0,0,1,.14,1c1.34-.23,2.54.75,3.56,1.63,2.38,2,5.27,4,8.44,3.74,2.67-.21,4.94-1.92,7-3.57.65-.5,1.35-1.35.88-2-.17-.23-.45-.37-.57-.62-.2-.42.12-1-.09-1.36s-.45-.4-.67-.62a1.94,1.94,0,0,1-.37-1.4l-.05-9.52c0-2-.08-4.17-1.39-5.7"/><path class="cls-3" d="M27.68,72.39a9.91,9.91,0,0,0-4.17-.67A4.61,4.61,0,0,0,19.42,74a6.81,6.81,0,0,0-.4,3.11,22.22,22.22,0,0,0,.43,4.15,7,7,0,0,0,1.63,3.28,4,4,0,0,0,3.33,1.28c1.63-.23,2.82-1.68,3.56-3.15a11.44,11.44,0,0,0,.7-9.11Z"/><path class="cls-3" d="M20.76,143c.25.9.46,1.81.63,2.72a16,16,0,0,1,1,4.41.28.28,0,0,1-.07.21.56.56,0,0,1-.19.09,3.31,3.31,0,0,1-2.9-.82,7.35,7.35,0,0,1-3.2-5.06.63.63,0,0,1,.06-.38,1.19,1.19,0,0,1,.76-.39,30.09,30.09,0,0,1,3.52-.6"/><path class="cls-3" d="M24.36,142.17c-.51.94-1,1.89-1.46,2.86a.73.73,0,0,0-.09.38c0,.21-1.84,2.56-2.28,4.28a.39.39,0,0,0,0,.24.41.41,0,0,0,.15.14,3,3,0,0,0,3-.29,9.4,9.4,0,0,0,4.63-4.9.85.85,0,0,0,.06-.42c-.05-.27-.33-.46-.59-.6a23.32,23.32,0,0,0-3.09-1.42"/><path d="M9.78,225.39a3.35,3.35,0,0,0-.13,1.18,1,1,0,0,0,.63.82c.78.25,4-1.17,4.09-1.88H10"/><path d="M24.06,224.55A11.6,11.6,0,0,0,28,226.2a.86.86,0,0,0,.65-.08.81.81,0,0,0,.23-.39,3.7,3.7,0,0,0,.18-1.48.29.29,0,0,0-.34-.33,17.77,17.77,0,0,0-5,.61"/><path class="cls-4" d="M143.55,285.52c1.1,0,2.2,0,3.29,0a1.16,1.16,0,0,0,.84-.25,1.14,1.14,0,0,0,.19-.89,97.91,97.91,0,0,0-6.71-30c-1.35-3.4-2.93-6.93-2.53-10.58.36-3.26,2.26-6.12,3.92-9a72.43,72.43,0,0,0,7-16.26c2.71,21.82,2.88,43.87,3.06,65.86l3.68.36a1.59,1.59,0,0,0,1.23-.21,1.69,1.69,0,0,0,.43-1l1.65-9.69a142.28,142.28,0,0,0,2.53-21c.07-3.18-.07-6.36,0-9.54s.51-6.51.9-9.75.78-6.55,1.42-9.79c1.3-6.64,3.63-13.27,2.85-20a114.38,114.38,0,0,1-25.48,1.26,3.76,3.76,0,0,0-2.08.25,3.6,3.6,0,0,0-1.33,1.62c-4.17,7.87-6.32,16.63-8.16,25.35a56,56,0,0,0-1.44,10.12c-.11,5,13.44,37.59,14.71,43"/><path class="cls-2" d="M140.63,163.28c-6.12-1.18-3,37.84-4.35,44.25,5.93-1.46,4.14-24.06,4.16-29.93-.65,7.05.81,14.11.56,21.07-.43,1.92-1.61,3.91-.79,5.69,6-1.48,12.26.59,18.4-.09,6.22,1,8.18.87,8.83-6.05,2.14-2.33-6.22-15.67-6.75-22.15C164.16,183,165.4,192.18,171,195c6-2.35.7-10.41,1.24-15.06.11-5.31-1.44-10.92-6-14.13-1.82-1.71-4.1-1-6.2-.24-6.51.67-13.12-1.39-19.63-1.88"/><path class="cls-1" d="M149.68,139c-2.83,0-5.23,2.18-6.35,5s-.84,6-.77,9-.17,6.3-2.07,8.67a1,1,0,0,0-.31.66c0,.38.46.58.83.69a62.31,62.31,0,0,0,21.51,2.42,1.24,1.24,0,0,0,.71-.19,1.22,1.22,0,0,0,.32-1.12c-.38-4.33-4.33-7.61-5.12-11.89-.62-3.39.74-7.29-1.24-10.11-1.61-2.29-4.73-2.8-7.51-3.12"/><path class="cls-3" d="M155.21,143a11.36,11.36,0,0,0-4.75-.77,5.27,5.27,0,0,0-4.67,2.65,7.61,7.61,0,0,0-.46,3.55,24.89,24.89,0,0,0,.49,4.73,8,8,0,0,0,1.86,3.75,4.54,4.54,0,0,0,3.79,1.46c1.87-.27,3.22-1.92,4.07-3.6a13,13,0,0,0,.8-10.39Z"/><path class="cls-3" d="M160.66,175.37a15.92,15.92,0,0,1,0-3.38,5.57,5.57,0,0,1,1.32-3.06c.88-1,2.2-1.48,2.84-2.61.93.58-.37,1.38-.41,2.08a7.71,7.71,0,0,1,2.9-2.63.85.85,0,0,1,.73,0,1.24,1.24,0,0,0,.78,0c.41.51,1,.95.87,1.59.18,0,.18.21.33.3q-1.73,1.49-3.57,2.84c-1.13.83-2.41,1.85-2.37,3.25,0,.31.07.67-.15.89a.87.87,0,0,1-.35.2,6.07,6.07,0,0,1-3,.27"/><path class="cls-3" d="M137.68,207.68a3.1,3.1,0,0,0-1.9,2.08,9.5,9.5,0,0,0-.27,2.91,8.5,8.5,0,0,0,2.29-4.42"/><path d="M143.19,286.61a41.18,41.18,0,0,1-7.93,4.38,5.69,5.69,0,0,0-1.56.83,1.55,1.55,0,0,0,.52,2.81,5.13,5.13,0,0,0,1.79.17l6.36-.14a14.5,14.5,0,0,0,2.28-.18,6.69,6.69,0,0,0,3.45-1.86,1.25,1.25,0,0,0,.32-.44,1.32,1.32,0,0,0,.07-.59l0-4.8a33.76,33.76,0,0,1-5.13-.19"/><path d="M152.63,285.3v7.41a1,1,0,0,0,.11.56.94.94,0,0,0,.56.32,37.76,37.76,0,0,0,7.29,1.43c1.19.11,2.69,0,3.18-1.1s-.35-2.19-1.11-3.05l-3.91-4.42a3,3,0,0,0-1.35-1,2.7,2.7,0,0,0-.94-.06l-3.5.14"/><path class="cls-4" d="M209.86,132.1l17.12-.85a4.92,4.92,0,0,1,5.8,3.17A43.36,43.36,0,0,1,237.66,145c1.48,5.65.66,11.61.17,17.43a153.36,153.36,0,0,0,.06,26.42c-5.8-1.24-11.49,2.63-17.41,2.8-6.73.19-13.09-4.4-19.74-3.42-1.07-2.65.32-5.58.93-8.37.65-3,.39-6.08.41-9.13,0-6.26,1.32-12.43,2.58-18.56l4.13-20"/><path class="cls-3" d="M204.49,189a231.15,231.15,0,0,1,2.88,36.14,1.55,1.55,0,0,0,.29,1.11,1.18,1.18,0,0,0,.58.26,6.29,6.29,0,0,0,3.73-.4c2.45-10.72,4.91-21.75,3.7-32.73a1.37,1.37,0,0,0-.23-.73,1.13,1.13,0,0,0-.48-.26L205,189"/><path class="cls-3" d="M218.66,193.44q.53,16.27,1.61,32.53a9.7,9.7,0,0,0,5-.08c.23-5,2-9.84,3.21-14.71A68.49,68.49,0,0,0,230.39,191l-11.49,1.68"/><path class="cls-2" d="M207.06,226.92a96.48,96.48,0,0,0-8.77,6,4,4,0,0,0-1.14,1.15,1.41,1.41,0,0,0,0,1.53c.45.6,1.35.54,2.09.42a76.18,76.18,0,0,0,9.77-2.31c1.4-.44,2.91-1,3.67-2.26a6.36,6.36,0,0,0,.49-3.87c0-.33-.09-.71-.39-.84a.9.9,0,0,0-.46,0l-4.66.49"/><path class="cls-2" d="M220.4,227.41a10.42,10.42,0,0,0-.23,2.83,3.39,3.39,0,0,0,1.29,2.45,5.11,5.11,0,0,0,2.82.64l11.44.33a3,3,0,0,0-.62-2.76,6.78,6.78,0,0,0-2.36-1.73A21.45,21.45,0,0,0,220.93,227"/><path class="cls-1" d="M209.33,130.55a49.23,49.23,0,0,1,1.57-25.31,5.11,5.11,0,0,1-1.37,1.56L204,104.38a15.4,15.4,0,0,1,8.92-6.73,1.6,1.6,0,0,1,1.1,0,2.06,2.06,0,0,1,.72,1,5.57,5.57,0,0,0,5.7,2.52,11.54,11.54,0,0,0,5.8-3,3.93,3.93,0,0,1,1.32-.9,3.21,3.21,0,0,1,1.63,0,12.34,12.34,0,0,1,9.67,12.3l-6.4.07a1.61,1.61,0,0,0-1.29.41,1.54,1.54,0,0,0-.19,1.14c.53,6.37.83,13.77,1.36,20.14-7.74-1.38-15.5.45-23.17-.14"/><path class="cls-3" d="M203.74,105.47c-2,5.7-9.83,19.22.21,20.7,8.48.16,18.88,1,26.13-3.86.75-1,.91-2.51,1.91-3.33.59-.48,1.78-1.08,1.73-1.59-.53-.53.31-.64,0-1.11-.84-.4-.18-.24,0-.72.31-1-.74-.5-1.74-.11.66-.67,1.66-.33,1.5-1-2.13-.51-5.6.71-6.26,2.84-.16.61-.14,1.36-.64,1.75-6.11.35-12.58-.51-18.75-.91-1.72-.5-3.13-1.56-4.89-1.93-.79-.17-1-1.17.13-4.68,2.32-1.76,5.38,2.65,5.44,0,.11-4.76,5.37-2.3-4.54-6.75"/><path class="cls-3" d="M231.5,109.84l6.37-.11a1.53,1.53,0,0,1,1.34.42,1.45,1.45,0,0,1,.17.89,27.18,27.18,0,0,1-4.93,14.21,6.54,6.54,0,0,1-1.67,1.84,4.33,4.33,0,0,1-2.43.69,11.14,11.14,0,0,1-2-.23,39.74,39.74,0,0,1-6.71-1.7,26.14,26.14,0,0,0,6.65-2.1c.47-.24.89-.24,1.26-.62,1-1,1.31-2.3,2.28-3.36a19.08,19.08,0,0,0,1.82-1.77,3.53,3.53,0,0,0,0-2.44c-.3-.41.31-.52,0-.94s-1.38-.51-1.92-.47-.18-.08-.68.14c-.11-1.63.44-3,.38-4.45"/><path class="cls-3" d="M208.48,113c-.61-.28-3.52-1.63-4.1-1.55s-1.49,0-1.27,1.66c.06.44-.3.35-.05.72.13.2-.56.73-.23.94s-.37,1-.11,1c.55.18,3.75,1.45,4.27,1.72,1,.52,2,0,3.15.22a63.12,63.12,0,0,0,15.94,1c.49,0,.22-.54.61-.83-3.37,0-7.68.35-10.86-.76-2.47-.86-4.36-1.18-5.91-2.78Z"/><path class="cls-3" d="M226.61,96.77a10.63,10.63,0,0,1-6.84,3.32,5.34,5.34,0,0,1-2.54-.32,3.71,3.71,0,0,1-2.08-2.39.44.44,0,0,1,0-.23.53.53,0,0,1,.21-.28,3.59,3.59,0,0,0,1.57-2.31,4.18,4.18,0,0,0-.83-2.15,11.78,11.78,0,0,1-1.49-7.19,6.77,6.77,0,0,1,.83-2.75,3.68,3.68,0,0,1,2.19-1.74,5.48,5.48,0,0,1,1.27-.13c1.62,0,3.35,0,4.67.91a5.14,5.14,0,0,1,2,3.62,12.26,12.26,0,0,1-.39,4.21,9.69,9.69,0,0,1-1.85,4.25,4.12,4.12,0,0,1-4.44.83c1.2.33,2.22,1,4.1.06.36-.18.69.24,1.08.38a2.31,2.31,0,0,1,.94.87,4.75,4.75,0,0,0,1.49,1.18"/><path d="M213.85,89.68c-1.35-.26-3.14-1.13-3.06-2.7-.55-1.68-1.76-2.94-.52-4.53C210.1,81,209,78.21,211.41,78c0-1.53.27-2.8,1.92-2.94.94-.41,1.29-1.7,2.26-2,.9-.11.8-1.61,1.73-1.69,2.15,0,5.07-2.17,6.8-.11.74-.5,2-.92,2.58,0,1-.29,2.83-.09,2.71,1.31.8,0,1.91.15,2.11,1.08a1.71,1.71,0,0,1,1.56,2,25.35,25.35,0,0,1,2.16,5,1.64,1.64,0,0,1-.13,1.56c-.31,1,.69,2,.36,2.91-1,1.11-.58,2.67-1.13,3.92-1.11,1.19-2.48,2.22-4.12,1.81-1.47,1.33-3.55.68-5.33,1.26.94-3.18,1.74-6.87.2-10.19-6.07-5.55-13.25,0-10.87,7.59"/><path class="cls-4" d="M254.33,143.33c-.42,8.41-2.34,16.68-3.21,25.06-.56,5.42-.68,10.87-.8,16.32l-.21,9.82-.65,29.9a1.75,1.75,0,0,0,.23,1.13,1.65,1.65,0,0,0,.84.51,23.74,23.74,0,0,0,7.13,1.34,124.19,124.19,0,0,0,3.8-15.67c1.14-7.55.89-15.23.81-22.86a31.32,31.32,0,0,1,.32-5.81,40.06,40.06,0,0,1,1.61-5.42,79.15,79.15,0,0,0,4-22.14c-.45,23.58,1.94,47.11,4.33,70.57a40.87,40.87,0,0,0,8.42.26,1.28,1.28,0,0,0,.84-.29,1.25,1.25,0,0,0,.23-.85q.58-30.22.71-60.45a165.69,165.69,0,0,0-.84-21.26,1.74,1.74,0,0,0-.24-.78,1.67,1.67,0,0,0-1-.49,19.82,19.82,0,0,0-4.26-.62,31.34,31.34,0,0,0-6.54,1.19c-5.14,1.11-10.46.75-15.7.39"/><path class="cls-1" d="M263,85.84a6.37,6.37,0,0,0,9.38.45,3,3,0,0,1,1.06-.91,2.2,2.2,0,0,1,.85-.07c6.26.32,11.63,5,14.55,10.57s3.83,11.9,4.7,18.11l-6.26,1.53a4.57,4.57,0,0,1-3.47-.07c-.37-.23-.82-.59-1.19-.35a1,1,0,0,0-.31.82q-.53,12.95-.12,25.92c-2.85-1.57-6.35-.47-9.51.32a44.24,44.24,0,0,1-17.34.82,1.2,1.2,0,0,1-1.34-1.45,136.59,136.59,0,0,0-1.38-25.48.87.87,0,0,0-.16-.45.83.83,0,0,0-.62-.2l-7.5-.44a76,76,0,0,1,6-22.28A9.75,9.75,0,0,1,253,88.75a10.49,10.49,0,0,1,3.3-1.49l6-1.92"/><path class="cls-3" d="M245.69,115.76l-.89,4.6a2,2,0,0,1-.38,1,2.1,2.1,0,0,1-.76.46L224.5,130a9.14,9.14,0,0,1-5,1.09c-1-.18-2.48-.47-2.78.53.81.07.92,1.31.42,2s-1.32,1-1.79,1.66c-1.08,1.56.57,3.86,2.47,4s3.6-1.13,4.89-2.53a6.41,6.41,0,0,1,1.65-1.47,5.84,5.84,0,0,1,2-.46,65.48,65.48,0,0,0,19.37-5.24,8.27,8.27,0,0,0,2.27-1.35,7.76,7.76,0,0,0,1.69-2.71,37.85,37.85,0,0,0,2.66-9.33l-6.51,0"/><path class="cls-3" d="M262.74,85.51a4.67,4.67,0,0,0,3.61,2.82,10.62,10.62,0,0,0,4.74-.39,1.39,1.39,0,0,0,1.34-1.65q.06-5.66.4-11.3a1.47,1.47,0,0,1,.21-.83,1.82,1.82,0,0,1,.75-.49,2.2,2.2,0,0,0,1.34-2.3c-.23-.93-1.75-1.31-2.15-.44l-.1-5.68c0-.91-.14-2-1-2.39s-1.71.17-2.53.54a6.21,6.21,0,0,1-6.09-.63c-.47-.34-1.17-.73-1.53-.27a.89.89,0,0,0-.15.33A29.17,29.17,0,0,0,260.55,75,5.29,5.29,0,0,0,262,78.5a4.89,4.89,0,0,0,4,.63,15.38,15.38,0,0,0,4.23-1.41,10.35,10.35,0,0,1-5.78,2.52,1.85,1.85,0,0,0-1.16.37,1.72,1.72,0,0,0-.33,1.22l0,3.54"/><path d="M262.44,61.24A2,2,0,0,1,263.56,59a5.63,5.63,0,0,1,2.68-.41l4.38,0c1.53,0,3.23.1,4.34,1.16a5.49,5.49,0,0,1,1.27,4,23.66,23.66,0,0,1-.16,3c-.16,1.38-.63,3-1.93,3.44a.48.48,0,0,1-.39,0,.56.56,0,0,1-.15-.48,17.23,17.23,0,0,0-.75-5.57,2.18,2.18,0,0,0-1.1-1.54c-1-.36-1.88.66-2.87,1a3.88,3.88,0,0,1-1.4.13,8.33,8.33,0,0,1-2.89-.5,3.6,3.6,0,0,1-2.06-2"/><path class="cls-3" d="M278.41,84.21l0,2.46c1.39.43,3.17.75,4.08-.39a6.93,6.93,0,0,0,.78-2.53A3.94,3.94,0,0,1,286,81.12a4,4,0,0,0,1-.34,2.29,2.29,0,0,0,.8-2.17,1.5,1.5,0,0,0-.31-.94.6.6,0,0,0-.88,0,1.78,1.78,0,0,0-.81-1.93c-.6-.45-1.34-.68-2-1.09a5.53,5.53,0,0,1-2-2.62c-.28-.69-.55-1.51-1.25-1.78a1.9,1.9,0,0,0-1.8.46,6.31,6.31,0,0,0-2.16,4,18.71,18.71,0,0,0,0,4.61,5.43,5.43,0,0,0,.57,2.43,2.86,2.86,0,0,0,3.57,1.09L278.56,84"/><path class="cls-2" d="M265.92,129.57c0,.65-.06,1.46-.66,1.72a1.43,1.43,0,0,1-.68.09l-5,0a2.77,2.77,0,0,1,3.39-1.7c.43.15.82.4,1.26.53a1.2,1.2,0,0,0,1.26-.27"/><path class="cls-2" d="M270.16,130.25c-.71.83-1.4,1.67-2.06,2.54-.12.16-.25.38-.14.55s.27.16.43.17a10.8,10.8,0,0,0,4.85-1,.81.81,0,0,0,.45-.36c.15-.37-.26-.8-.12-1.17a4.2,4.2,0,0,1-3.52-.92"/><path class="cls-3" d="M263.23,117.92l-.14,9.9a.64.64,0,0,0,.09.41.63.63,0,0,0,.46.15,2.31,2.31,0,0,0,2-.61,2.16,2.16,0,0,0,.3-1c.32-2.1.62-4.21.89-6.31a.66.66,0,0,0-.06-.52.8.8,0,0,0-.29-.22l-2.91-1.42"/><path class="cls-3" d="M269.13,120.24a30.59,30.59,0,0,0,.8,7.45c.19.93.48,2,1.19,2.3s1.25-.17,1.78.22q.28-4.64.18-9.29a.7.7,0,0,0-.08-.39.37.37,0,0,0-.34-.13l-3.31,0"/><path class="cls-4" d="M262.81,117.58a9.56,9.56,0,0,0,3.43,1.9,91.2,91.2,0,0,1,.78-9.64,86.83,86.83,0,0,0,1.81,10.37h3.72a22,22,0,0,0,.21-4.73l6.37-.07a6.79,6.79,0,0,0,3.35-.63c1.5-.89,1.24-3.65,1.65-5.34-5.33.46-10-2-11.91-7a1.27,1.27,0,0,0-.52-.76,1.19,1.19,0,0,0-.77,0l-5.68,1.23a4.37,4.37,0,0,0-1.77.67,4.12,4.12,0,0,0-1.21,2.58,32.49,32.49,0,0,0-.14,10.91"/><path class="cls-2" d="M272.15,100.48a8.35,8.35,0,0,0,4.35,6.67,18.69,18.69,0,0,0,8,2.13A118,118,0,0,0,288,90.9a9.42,9.42,0,0,0-.51-4.84c-.71-1.48-2.42-2.61-4-2.13a3.71,3.71,0,0,1-1.29,2.76,3,3,0,0,1-2.52.68,2.06,2.06,0,0,1-1.58-1.94c0-.61.34-1.25.06-1.8a1.8,1.8,0,0,0-1.12-.75,5.78,5.78,0,0,0-3.13-.46,2,2,0,0,0-1.56,2.37,1.5,1.5,0,0,1,2.07.69,4.26,4.26,0,0,1,.25,2.43c-.38,4.25-.79,8.62-2.74,12.42"/><path class="cls-3" d="M266,111.85a7.35,7.35,0,0,1-3.17-4.25c-.53-.33-1,.55-1,1.17l-.06,2.73a2.09,2.09,0,0,0,1.19,2.25A61.86,61.86,0,0,0,289.47,124a1.13,1.13,0,0,0,.85-.11,1.19,1.19,0,0,0,.31-.91c.07-2.14.1-4.29.08-6.43,0-.33,0-.73-.34-.87a1,1,0,0,0-.54,0c-6.17,1.11-12.5.08-18.69-.94a3.91,3.91,0,0,1-1.74-.58,4.81,4.81,0,0,1-1.24-2,10,10,0,0,0-2.69-3.57.67.67,0,0,0-.53-.22c-.33.08-.36.53-.29.87a7.25,7.25,0,0,0,1,2.41"/><path class="cls-3" d="M279.9,90.53a12.82,12.82,0,0,1,2.64,2.18c.15.16.31.38.24.59a.66.66,0,0,1-.41.33A28.14,28.14,0,0,1,274.71,96c-2.66.29-4.27-.51-6.43-1.5-.51-.24-1.86-1.43-2.33-1.73a10.34,10.34,0,0,0-2.41-.8,2.41,2.41,0,0,1-1.81-1.6l1.62,0a1.56,1.56,0,0,0-1.64-1.14,2,2,0,0,1,2.47.1c.73.52,1.28,1.28,2,1.75a6.7,6.7,0,0,0,2.57.75l5.06.77a6.51,6.51,0,0,0,3.64-.15,6.4,6.4,0,0,0,2.18-1.93"/><path class="cls-3" d="M261.83,83.56c-.24.36.33.89.07,1.24a.67.67,0,0,1-.31.2l-1.44.55a5.61,5.61,0,0,1-.92,3.4,4.71,4.71,0,0,0,.23-1.94,3.45,3.45,0,0,0-2.23,2.61,3.7,3.7,0,0,1-.06-3.75c.67-1.13,3.35-2.37,4.66-2.31"/><path d="M277.74,71.07a11.55,11.55,0,0,1,2.36-2.52,3.91,3.91,0,0,1,3.28-.72c.32.09.73.21.93,0a1,1,0,0,0,.13-.51A1.56,1.56,0,0,1,286,66a3,3,0,0,1,1-1.69.85.85,0,0,1,.51,1l1.76-1.68a1.73,1.73,0,0,1,.46,1.07.84.84,0,0,1,1.4.66,2.25,2.25,0,0,1,1-.49.76.76,0,0,1,.86.48c.07.27-.07.59.1.82s.68.17.88.44-.26.82-.22,1.26c0,.27.25.47.36.72a1.66,1.66,0,0,1,0,.83l-.36,2.38a.63.63,0,0,1-.2.45c-.16.1-.37,0-.55.07-.71.15-.45,1.42-1.09,1.76s-1.21-.21-1.58.2a1,1,0,0,0-.19.6,8,8,0,0,1-1.71,4.2,1.7,1.7,0,0,0-.59-1.49,5.73,5.73,0,0,1-.6-.48c-.47-.56-.21-1.5-.71-2s-1.32-.32-2-.49c-1.68-.44-1.84-2.85-3.16-4a2.68,2.68,0,0,0-3.73.4"/><line class="cls-5" x1="284.57" y1="74.54" x2="284.08" y2="72.21"/><line class="cls-5" x1="285.97" y1="75.24" x2="285.47" y2="72.75"/><path d="M250.34,227.13c1.91.43,3.85.78,5.8,1a43,43,0,0,1-.13,5.08,23.19,23.19,0,0,1-3.73.14L241,233.22a5.35,5.35,0,0,1-1.87-.25c-.32-.13-.66-.39-.67-.74s.45-.69.84-.86q5-2.22,10.22-4.1"/><path d="M274.57,226.88a57.84,57.84,0,0,0,5.88.38,41,41,0,0,1,.43,5.07,24.16,24.16,0,0,1-3.69.55L266,234a5.39,5.39,0,0,1-1.88,0,.93.93,0,0,1-.75-.66c-.06-.42.37-.74.74-.95,3.18-1.83,6.41-3.57,9.7-5.19"/><path class="cls-3" d="M98.1,68.69c-2.18,1-3,3.69-3.27,6.07A33.37,33.37,0,0,0,94.57,80a5.17,5.17,0,0,0,.6,2.67c.27.45.67.81,1,1.24,1.08,1.63.39,3.79.5,5.74a3.26,3.26,0,0,0,.7,2,2.69,2.69,0,0,0,2.52.7A5.33,5.33,0,0,0,102.23,91a11.3,11.3,0,0,0,3.69-6.61,3.81,3.81,0,0,1-2.88,2,10.94,10.94,0,0,1-3.65-.16c4.71.41,6.58-2.09,7.88-5.06a2,2,0,0,0,2-1.23,6.14,6.14,0,0,0,.41-2.42,1,1,0,0,0-.08-.51c-.29-.57-1.16-.17-1.62.29a2.5,2.5,0,0,0-1.06-2.71,13.89,13.89,0,0,0-2.81-1.32A10.17,10.17,0,0,1,100,70c-.52-.72-1.1-1.59-2-1.57"/><path class="cls-1" d="M85.16,134.58a4.09,4.09,0,0,1-3.08-1,4,4,0,0,1-.65-2.63l-.27-16.17c-.08-4.8-.15-9.69,1.19-14.3,1-3.33,2.66-6.49,3-9.94l.46,6.06a22,22,0,0,1,.09,3.72,24.94,24.94,0,0,0-.39,4.54,27.4,27.4,0,0,0,1.14,4,22,22,0,0,1,.25,7.63c-.49,6-1,12-1.88,17.92"/><path class="cls-1" d="M117.38,89.69c-2.6,7.82-4.28,16-3.81,24.27.4,7,2.33,13.76,4.24,20.48a2.42,2.42,0,0,0,.31.74,2.15,2.15,0,0,0,1.37.68c1.53.3,3.37.17,4.25-1.1a4.83,4.83,0,0,0,.58-2.82l0-17.51a38.62,38.62,0,0,0-.25-5.38,38.88,38.88,0,0,0-1.79-6.67l-1.72-5.18A46.77,46.77,0,0,0,117.66,90"/><path class="cls-2" d="M121.15,199c-11.68-.2-23.5,4.86-34.76,1.79.7-13.61,1.39-27.26.36-40.85-.32-4.32-.82-8.62-.92-12.95-.2-8.66,1.22-17.27,1.5-25.93.31-9.9-1.06-13.78-1.09-29.69a3.71,3.71,0,0,1,.18-1.49,3.3,3.3,0,0,1,1.23-1.34,18.09,18.09,0,0,1,8.66-3.29c.67,2.16-.3,4.93,1.34,6.49s4.46.32,5.73-1.54,1.74-4.19,3.1-6a14.82,14.82,0,0,1,7.58,2.43,4.11,4.11,0,0,1,2,2.47,5,5,0,0,1-.26,2.09,77.77,77.77,0,0,0-1.68,33.18c1.47,8.8,4.45,17.3,5.89,26.11.47,2.89.74,6-.6,8.63l1.75-.83a178.32,178.32,0,0,1-.26,29.14c-.35,3.86-.8,7.89.63,11.49"/><path class="cls-3" d="M84.83,135l-3-.17q.06,6.33,0,12.67a14.66,14.66,0,0,1-.27,3.31,30.06,30.06,0,0,1-1.19,3.29c-.92,2.52-1.06,5.56.56,7.7l.56-1.09c0-.11.14-.24.26-.23s.09.27,0,.2a18.52,18.52,0,0,1,1.46-6.48l.52.86c.62-.34.59-1.23.51-1.94-.67-6,1.41-12.12.74-18.15"/><path class="cls-3" d="M117.86,135.72c1.93,7.47,3.89,15.15,3,22.8l1.27-1.27.15,4.5a2.62,2.62,0,0,0,2.11-1.69,7.54,7.54,0,0,0,.39-2.8,190.21,190.21,0,0,0-1.07-21.74l-5.28.37"/><path class="cls-3" d="M88.82,201.91l1.67,17a1.38,1.38,0,0,1-.17,1,1.52,1.52,0,0,1-.48.31l-4.79,2.23a10,10,0,0,0,7.94.42,1.52,1.52,0,0,0,.72-.46A1.67,1.67,0,0,0,94,222a141.18,141.18,0,0,0,5.11-19.81,48.63,48.63,0,0,1-10.23-.51"/><path class="cls-3" d="M110,200.37a59,59,0,0,0,1.36,13.52,22,22,0,0,1,.74,4.82,5.8,5.8,0,0,1-1.79,4.38,6.53,6.53,0,0,0,5.48-.92,3,3,0,0,0,1-1.14,4.07,4.07,0,0,0,.25-1.39c.44-6.79,3-13.38,2.81-20.18a27.73,27.73,0,0,0-9.72.93"/><path d="M93.92,73.28a9.54,9.54,0,0,1-.42-6.83c.14-.41.45-.9.87-.79.17,0,.3.17.47.18s.38-.17.52-.34l1.24-1.56c.44.37.35-.79.85-1s1.82-.78,1.94-.22c.78-.76,1.49-.37,2.58-.45.53,0,1.42-.34,1.77.06a8.92,8.92,0,0,0,.88.58c.43.34,1.06-.19,1.39.25s1.69.13,1.79.47c.19.61.52,1.26,1.14,1.11s1.3-.21,1.63.33a5.29,5.29,0,0,0,.56.91c.27.34,1,0,1.19.34.12.18.51,1.71.6,1.91.39.77,1.08.46,1.75,1s-.16,1.52.14,2.32.89,1.28.83,2.13a20.36,20.36,0,0,1-1.09,2.68,3.93,3.93,0,0,0,.2,1.91,1.67,1.67,0,0,1-.42,1.78c-.24.17-.56.22-.79.4-.6.45-.37,1.4-.66,2.09a2.93,2.93,0,0,1-2,1.33c-1.1.33-2.53.56-3.2-.37a.8.8,0,0,1-.13-.82,1.21,1.21,0,0,1,.4-.38,6.12,6.12,0,0,0,2.54-5,1.2,1.2,0,0,0-.51-1.12,2,2,0,0,0-.88-.06,3.51,3.51,0,0,1-1.7-.66c-2.6-1.58-5.29-3.25-6.89-5.83-.44-.71-.88-1.54-1.69-1.76-1-.26-1.92.6-2.59,1.39-.94,1.13-1.9,2.5-1.58,3.94Z"/><path d="M84.62,223a16,16,0,0,0-3,1.72l12-.1a5,5,0,0,1,.24-1.89,8.09,8.09,0,0,1-4.67,1.2,24,24,0,0,1-4.83-.76"/><path d="M109.52,223.48a2.07,2.07,0,0,0-1.33,1.33,53.08,53.08,0,0,0,8-.41.58.58,0,0,0,.39-.16.5.5,0,0,0,.09-.29l.31-2.45a6.56,6.56,0,0,1-6.2,2.16,10.5,10.5,0,0,0-1.56-.31"/><path class="cls-3" d="M41.92,113.21a1.14,1.14,0,0,0,1.32-.15,2.57,2.57,0,0,0,.72-1.22,2.24,2.24,0,0,0,0-1.61,1,1,0,0,0-1.35-.49,16.33,16.33,0,0,0,0-4.25,5.41,5.41,0,0,0-2.11-3.58,6.66,6.66,0,0,0-4.55-.74,5.07,5.07,0,0,0-3.32,1.4,4.74,4.74,0,0,0-.92,2,13.89,13.89,0,0,0-.37,4.63,2,2,0,0,0-1.53,1,1.25,1.25,0,0,0,.54,1.64c.22.1.51.12.66.32a.94.94,0,0,1,.11.56,5.24,5.24,0,0,0,1,3.48,4.48,4.48,0,0,0,4.15,1.21,13.48,13.48,0,0,0,4.13-1.77c-1.63,2.21-4.48,2.81-7.18,2.25-.15,1.78.32,4,.32,5.75,0,.66-.66,1.47-.48,2.1a3.83,3.83,0,0,0,7.39,0c.17-.6-.43-1.45-.42-2.07a26.48,26.48,0,0,1,.76-6.92"/><path class="cls-1" d="M32.62,123.88c-1.57.8-3.45.94-4.89,2a9.77,9.77,0,0,0-2.08,2.22l-8,10.69c2.08,1.17,3.69,4.43,5.77,5.59,1-.84,2.86-3.52,3.83-4.36.15-.13,1-.91,1-1.18-.52-2-1.18-4.63,0-6.37a13.8,13.8,0,0,0,.54,6.14c.33.81.81,1.56,1.13,2.37a12.18,12.18,0,0,1,.57,4.34q0,4.74-.21,9.48a.93.93,0,0,0,.12.66,1,1,0,0,0,.77.25q6.82.17,13.66,0a.87.87,0,0,0,.65-.19.92.92,0,0,0,.17-.52,29.36,29.36,0,0,0-.2-5.38,79.15,79.15,0,0,1,.3-16.43,26.45,26.45,0,0,1,.2,4.27L45.81,147q3.31,0,6.63,0a.8.8,0,0,0,.55-.14.83.83,0,0,0,.22-.57,15.51,15.51,0,0,0-.23-3.66,81.64,81.64,0,0,0-2-9.53,18.69,18.69,0,0,0-3.2-7.07,7.55,7.55,0,0,0-6.83-3,.61.61,0,0,0-.35.14c-.17.18-.1.47,0,.71a4,4,0,0,1-3.67,4.78A4,4,0,0,1,33,124"/><path class="cls-2" d="M29.14,156.16c-4.28,7.25-5.78,15.83-6,24.24s.84,16.8,1.25,25.21c.76,15.67-.65,31.45,1.11,47a2.08,2.08,0,0,0,.39,1.17,2.09,2.09,0,0,0,.95.48c1.41.43,3.29.68,4-.59a3.31,3.31,0,0,0,.31-1.06,186.66,186.66,0,0,0,2.69-27.61c.13-5.45,0-10.93.59-16.36.28-2.71.73-5.41,1-8.13.78-7.9,0-15.9,1-23.78,3.19,25.69-.06,52.08,5.44,77.37l5,.38a2,2,0,0,0,1.08-.12c.65-.33.75-1.21.75-1.94q.39-36.4.77-72.8c.08-7.12.1-14.49-2.75-21-.2-.44-.62-2-1-2.24s-1.43,0-1.91,0c-5.08-.38-9.44.14-14.53.18"/><path class="cls-3" d="M16.34,140.52c-3.17,3.83-8.48,11.57-8.73,12.43-.63,2.19.51,5,2.13,6.6,5.24,5.18,9.5,9.9,15.7,13.87,1.23-1.31,1-4.2.88-6-6-2.32-8.16-6.2-11.55-11.69a1.61,1.61,0,0,1,.09-2.24l5.91-8.75a2.08,2.08,0,0,0,.49-1.27,1.89,1.89,0,0,0-.52-1,22.58,22.58,0,0,0-3.1-3.16"/><path class="cls-3" d="M46.48,147.39c2-.09,4-.12,6-.11a95.1,95.1,0,0,1,1.28,14.38c0,1.14,0,2.28.13,3.42.17,1.67.19,10.36.76,13a15.77,15.77,0,0,1,.56,2.61c.07,1.47-.87,4.79-2.15,5.61.08-1.72-.17-5.3-1-6.85a4,4,0,0,1-.94,2.59c-.25-2.74,0-6.24-.16-9a55.89,55.89,0,0,0-.73-5.61A133.68,133.68,0,0,0,46,147.73"/><path class="cls-3" d="M26.39,255a22.29,22.29,0,0,1,.25,5.35.67.67,0,0,1-.11.37.73.73,0,0,1-.28.17l-4.05,1.56c0,.17.21.26.38.26l5.45.17a1,1,0,0,0,.72-.17.89.89,0,0,0,.21-.33,9.24,9.24,0,0,0,.71-3.24c0-1.37.3-2.54.32-4.06,0-.11.09-.2.06-.3s-.31-.21-.5-.19l-3,.25"/><path class="cls-3" d="M43.44,254.73l.2,4.72a1.67,1.67,0,0,1-.06.63,1.42,1.42,0,0,1-.37.51l-1.73,1.84c0,.06-.11.12-.11.19a.27.27,0,0,0,.1.18A1.68,1.68,0,0,0,43,263l3.07-.7a.89.89,0,0,0,.62-.33.83.83,0,0,0,.09-.44L47,255l-3.74,0"/><path d="M22.1,263.13a12.11,12.11,0,0,0-4.75,1.34,91.27,91.27,0,0,0,12,.12.63.63,0,0,0,.58-.25,1,1,0,0,0,.09-.5l.08-2A2.26,2.26,0,0,1,28.29,263a25.53,25.53,0,0,1-6.41.36"/><path d="M47.32,261.85c0,.61,0,1.23,0,1.84a.8.8,0,0,1-.11.47.54.54,0,0,1-.37.16,33.73,33.73,0,0,1-10.12.36l6.79-1.57a22.37,22.37,0,0,0,3.54-1"/><path d="M38.89,100.88a21,21,0,0,1-4.81,3.21,9.91,9.91,0,0,0-2.62,1.6,3.09,3.09,0,0,0-.88,2.93.62.62,0,0,0,1.2-.34c-.51-1.91,2.32-2.75,3.55-3.43a23.08,23.08,0,0,0,4.45-3.08c.59-.55-.29-1.43-.89-.89Z"/><path d="M40.46,103.56v-.07l0,.16a1,1,0,0,1,.06-.23l-.06.15a1.09,1.09,0,0,1,.14-.23l-.1.13a1,1,0,0,1,.2-.2l-.13.1a1.2,1.2,0,0,1,.27-.16l-.15.06.26-.07-.16,0a.7.7,0,0,1,.25,0l-.17,0,.12,0a.62.62,0,0,0,.48-.07.6.6,0,0,0,.29-.37.62.62,0,0,0-.06-.48.67.67,0,0,0-.37-.29,1.67,1.67,0,0,0-1.36.24,1.94,1.94,0,0,0-.52.55,1.52,1.52,0,0,0-.22.75.62.62,0,0,0,.18.44.6.6,0,0,0,.44.18.65.65,0,0,0,.44-.18.73.73,0,0,0,.19-.44Z"/><path d="M41.65,104.84v-.06l0,.16a1.33,1.33,0,0,1,0-.19l-.06.15a1,1,0,0,1,.1-.17l-.09.12a.81.81,0,0,1,.16-.16l-.13.1.22-.13-.15.07.22-.07-.16,0H42l-.17,0,.18,0-.15-.06h0a.39.39,0,0,0,.23.07.42.42,0,0,0,.25,0,.67.67,0,0,0,.38-.28.69.69,0,0,0,.06-.49.63.63,0,0,0-.29-.37,1.33,1.33,0,0,0-.71-.14,1.5,1.5,0,0,0-.68.21,1.7,1.7,0,0,0-.51.49,1.33,1.33,0,0,0-.21.7.61.61,0,0,0,.62.62.67.67,0,0,0,.45-.18.72.72,0,0,0,.18-.44Z"/><path d="M42.47,106.49s0,0,0,0l-.06.15a.21.21,0,0,1,.06-.1l-.1.12a.76.76,0,0,1,.09-.09l-.13.1.13-.07-.15.06a.5.5,0,0,1,.13,0l-.17,0h.13l-.17,0a.2.2,0,0,1,.11,0,.53.53,0,0,0,.25,0,.53.53,0,0,0,.24-.08.44.44,0,0,0,.17-.16.43.43,0,0,0,.11-.21l0-.17a.59.59,0,0,0-.09-.31l-.1-.13a.74.74,0,0,0-.27-.16l-.11,0a1.18,1.18,0,0,0-.27,0,.78.78,0,0,0-.26,0,2.34,2.34,0,0,0-.24.09l-.09.06a1.08,1.08,0,0,0-.2.16,1.2,1.2,0,0,0-.26.45.43.43,0,0,0,0,.25.51.51,0,0,0,.07.24.44.44,0,0,0,.16.17.43.43,0,0,0,.21.11l.17,0a.62.62,0,0,0,.32-.09.65.65,0,0,0,.28-.37Z"/><path d="M42.53,108.44a.63.63,0,0,0,0-1.25.63.63,0,0,0,0,1.25Z"/><path d="M37.2,100.45c-1.14.56-2.31,1.09-3.44,1.68a6.39,6.39,0,0,0-2.52,2.14c-.43.69.65,1.31,1.08.63a5.47,5.47,0,0,1,2.23-1.77c1.08-.56,2.19-1.07,3.28-1.6a.62.62,0,0,0,.23-.85.65.65,0,0,0-.86-.23Z"/><path d="M30.33,112.45c-.83,3.47.13,6.88.39,10.35s-1,6.92,0,10.28a.63.63,0,0,0,1.21-.33c-1-3.22.28-6.65,0-10s-1.23-6.69-.43-10c.18-.78-1-1.12-1.21-.33Z"/><path d="M31.23,116.73c.85,3.26.32,6.61.3,9.94s1.1,6.57.57,9.82c-.12.79,1.08,1.13,1.21.34.55-3.4-.54-6.76-.53-10.16s.53-6.89-.34-10.28a.63.63,0,0,0-1.21.34Z"/><path d="M41.55,113.85c-.22,1.53-.43,3.07-.54,4.61a46.32,46.32,0,0,0,.09,4.86c.11,3-1.35,5.76-.75,8.71.16.79,1.36.46,1.2-.33-.56-2.78.9-5.57.8-8.38-.06-1.45-.19-2.88-.12-4.34.08-1.61.3-3.2.52-4.8.11-.79-1.09-1.13-1.2-.33Z"/><path d="M42.38,113.69a76.17,76.17,0,0,0-.51,11c0,1.81.23,3.62.21,5.43a28.54,28.54,0,0,1-.79,5.73c-.17.78,1,1.12,1.2.33a32.59,32.59,0,0,0,.82-5.19c.1-1.95-.12-3.91-.18-5.87a75.16,75.16,0,0,1,.5-11.42c.1-.8-1.16-.79-1.25,0Z"/><path d="M31.93,117.59c.59,4.78,0,9.81,1.91,14.35.3.73,1.51.41,1.2-.33-1.87-4.44-1.28-9.34-1.86-14-.1-.79-1.35-.8-1.25,0Z"/><path d="M40.53,116.94l-.65,4a26,26,0,0,0-.49,4.12c0,.64.11,1.29.1,1.93a7,7,0,0,1-.37,1.81,8.46,8.46,0,0,0-.62,3.44c.08.79,1.33.8,1.25,0a8.84,8.84,0,0,1,.69-3.47,10.57,10.57,0,0,0,.21-3.41,20.81,20.81,0,0,1,.44-4.09l.64-4c.13-.79-1.07-1.13-1.2-.33Z"/><path d="M41.77,114.84a25.19,25.19,0,0,0,.13,5.42c.23,1.8.82,3.53,1.06,5.33a48.86,48.86,0,0,1,.15,5.68l0,5.71a.63.63,0,0,0,1.25,0l0-5.5c0-1.91.08-3.87-.13-5.77-.19-1.69-.74-3.31-1-5a24.12,24.12,0,0,1-.2-5.88c.06-.8-1.19-.8-1.25,0Z"/><path d="M29.91,116.55a24.41,24.41,0,0,0-.05,7.34c.53,2.49-.15,5,.15,7.45.09.79,1.34.8,1.25,0-.29-2.42.39-4.82-.08-7.23a14.19,14.19,0,0,1-.36-3.73c.09-1.28.23-2.55.34-3.83.07-.8-1.18-.8-1.25,0Z"/><path class="cls-3" d="M90.35,134.19l0,5.15a3.34,3.34,0,0,0,.3,1.72,2.9,2.9,0,0,0,1.62,1.14,10.51,10.51,0,0,0,4.94.56,1.07,1.07,0,0,0,.69-.28,1.08,1.08,0,0,0,.2-.69,45.64,45.64,0,0,0-.07-6.51,2.74,2.74,0,0,1-3.92-1.66c1.16,1,2.82,1.06,4.35,1.09a4.23,4.23,0,0,0,1.91-.26,3.26,3.26,0,0,0,1.57-2.56c.14-1,0-2.09.16-3.12,0-.19.08-.41.26-.48a1.31,1.31,0,0,1,.44,0,.75.75,0,0,0,.62-.84,3.11,3.11,0,0,0-.42-1.08c-1.46-3,.28-7-1.64-9.73-1.39-2-4.23-2.41-6.57-1.8a6.66,6.66,0,0,0-3.46,2,9.58,9.58,0,0,0-1.39,2.48,9.22,9.22,0,0,0-1.11,4.46,1,1,0,0,1,0,.58,1.18,1.18,0,0,1-.48.4A2.29,2.29,0,0,0,89.72,129a10.52,10.52,0,0,1,.47,4.21"/><path class="cls-1" d="M88.6,140.1c-7.3,4.27-14.88,8.81-19.33,16a18.6,18.6,0,0,1,8.09,6,7.13,7.13,0,0,1,1.7,3.39,3,3,0,0,1-1.59,3.2l5.86-4.08c-1.6,2-3.08,2.54-5.06,4.32-.44.39-.1,1.76-.37,2.28a3,3,0,0,0-.26,1.33l-1,25.86c11.45-1.84,23.54,2.07,34.59-1.44a1.24,1.24,0,0,0,.54-.26,1.34,1.34,0,0,0,.31-.83c1.62-11.78,3.24-23.71,2-35.54a12,12,0,0,1,1.31,3.57,3.13,3.13,0,0,0,1.9-3.11,9,9,0,0,0-1.19-3.69,54.66,54.66,0,0,0-6.49-10.73,21,21,0,0,0-10.13-7.11,7.61,7.61,0,0,0-.89,2.5,2.56,2.56,0,0,1-1.62,2,2.81,2.81,0,0,1-1.43-.15,14,14,0,0,1-6.29-4.11"/><path class="cls-4" d="M79.46,198.35a21.19,21.19,0,0,0,2,12.43c.84,1.66,1.93,3.28,2.14,5.13.3,2.67-1.27,5.15-2.68,7.44A100,100,0,0,0,73.1,239c-2,4.94-3.56,10-6.07,14.74-2.8,5.25-6.81,10.15-7.45,16.06a7.06,7.06,0,0,0,.53,4,7.64,7.64,0,0,0,2,2.24,26.5,26.5,0,0,0,6.05,3.87,1.13,1.13,0,0,0,.78.14c.35-.11.5-.51.61-.86,2.77-8.72,9.58-15.54,13.5-23.8,1.86-3.92,3.06-8.16,5.38-11.82a17.8,17.8,0,0,0,2.12-3.74c.93-2.79-.15-5.81-1.22-8.54,8.06,16.16,11.91,34,15.67,51.71a32.43,32.43,0,0,0,15.65-2.92,1.46,1.46,0,0,0,.86-.75,1.53,1.53,0,0,0-.31-1.18c-3.09-5.32-4-11.58-5.08-17.63-1.83-10.13-4.41-20.11-7-30.08-1.84-7.15-4.49-20.09-3.87-19.27,2.48-3.93,4.6-9.77,6-14.2-3.67-1-7.68,1.46-11.46,1.87-6.5.71-12.89-.91-19.4-1.5"/><path class="cls-1" d="M62.94,277.28a28.82,28.82,0,0,1-2.19,8.91c1.31.27,4.09,1.3,4.16,1.28s.94-3,1-3.1L67,282.08a.86.86,0,0,0,.13-.58.79.79,0,0,0-.35-.42,42.69,42.69,0,0,1-3.94-3.54"/><path class="cls-1" d="M112.23,283.41c.27,1.31,1.28,5.66,1.55,7a38.27,38.27,0,0,0,4.59-1.44c.15-.23-1-3.73-1-4v-3.12a30.11,30.11,0,0,0-4.75,1.93"/><path d="M59.09,287.72a5.83,5.83,0,0,0-1,1.72,1.91,1.91,0,0,0,.33,1.89,2.68,2.68,0,0,0,.87.53A61.52,61.52,0,0,0,72.15,296c.36-.84-.33-1.74-1-2.39l-5.28-5.35a3.75,3.75,0,0,0-1-.79,3.28,3.28,0,0,0-.93-.25,29.86,29.86,0,0,0-4.22-.42"/><path d="M113.78,290.37c1.61-.07,3-1.09,4.59-1.44a21.29,21.29,0,0,1,3.67-.23c2.83-.15,5.69-1.3,8.43-.56.28.08.58.2.66.47a.71.71,0,0,1-.1.58,4.32,4.32,0,0,1-2.1,1.67,73.9,73.9,0,0,1-11.32,4.45,5,5,0,0,1-2.19.32,2.8,2.8,0,0,1-2.08-3.71"/><path class="cls-3" d="M71.07,158.36c-2.1,2.29-4.1,4.69-6,7.17a14.43,14.43,0,0,0-2.29,3.89,15.35,15.35,0,0,0-.6,4.49q-.28,9.79.09,19.61c.14,3.51.33,7.11-.69,10.48-.6,2-1.6,3.81-2.1,5.81a12.17,12.17,0,0,0,.55,7.49c1.12-.09,1.65-1.41,1.92-2.5l1.65-6.59L65,211.58c.86-1,.78-2.52.72-3.86-.43-9.44,1.75-18.79,3.92-28,.72-3,1.55-6.27,3.89-8.32,1.3-1.14,3-1.9,3.79-3.44.93-1.89,0-4.21-1.39-5.79s-3.2-2.78-4.47-4.46"/><path class="cls-3" d="M115.61,164.88,115,181.31a1.67,1.67,0,0,0,.12.86,1.7,1.7,0,0,0,1.2.71,178.12,178.12,0,0,1,24.59,8.59,14.32,14.32,0,0,1,2.55,1.32c1.68,1.19,3.22,3.2,5.25,2.86l-.23-2a23.27,23.27,0,0,0,6.67,2c-.95-1.8-2.83-2.88-4.62-3.85l-20.81-11.35a23.7,23.7,0,0,1-6.29-4.39c-2.79-3.05-3.77-7.28-5.24-11.14a2.81,2.81,0,0,0-1.06-1.55c-.55-.32-1.44-.1-1.53.53"/><path class="cls-1" d="M102.09,118.17a6.58,6.58,0,0,0-5.53-4.07,7.34,7.34,0,0,0-6.29,2.9,8.3,8.3,0,0,0-1.36,6.88,116.42,116.42,0,0,1,13.89-4.94,30.54,30.54,0,0,0,7.39-2.51l-7.78,1.92"/><path class="cls-2" d="M200,146.63c-1.87,2.62-4.75,4.06-7.74,2.73-1.06-.47-2.63-1.7-3.79-1.62a10.11,10.11,0,0,0-3.84,1.18c-2.53,1.56-4.88,3-6.11,5.72-2,4.36-2.57,10.35-1.89,15.71.71,1.19,4.82-1.16,5.89-.28.31.24,1.65,21.89-.33,31.88l10.69-1a9.32,9.32,0,0,0,3.7-.85c1.2-.66,2.09-1.84,3.37-2.35,1.47-.57,3.11-.14,4.68,0s5-.93,5.68-2.36c.29-.65-.75-4.61-.78-5.32-.41-10-2.09-16-3.94-25.78.36,1.38,1.48,2.93,1.84,4.31a5,5,0,0,1,4.76-3,5.64,5.64,0,0,0,2.55-.89c.22-.32-.26-1.83-.34-2.21-.76-3.66-2.4-6.54-4.3-9.76s-5.13-5.9-8.87-6.13Z"/><path d="M182,203.17c-.21,6.3-.42,12.61,0,18.89.47,7.61,1.82,15.12,2.86,22.67a53.57,53.57,0,0,1,.68,9,28.12,28.12,0,0,0,1.23,7.75,47.69,47.69,0,0,1,.33,9.86,15.91,15.91,0,0,0,.67,7.52c2.38-.29,3.51-.54,5.9-.83.36-.05,1.22.51,1.51.28.44-.35.74-16.09.39-23-.25-5-.86-10-1.15-15-.53-9.21,0-18.45.53-27.66.48,6.73,0,13.5.3,20.25.58,13.88,4.33,27.61,3.53,41.48,2.14-.68,4.63,1.4,6.59.31,1.43-.79,1.62-2.74,1.63-4.37q.34-36.35,2.42-72.67c-2.37,1.93-6,.45-8.89,1.26a19,19,0,0,0-2.77,1.23c-4.78,2.28-10.31,2.13-15.6,1.93Z"/><path class="cls-3" d="M190.57,147.35c-.45-2,1-4,.7-6-.26-1.73-1.77-3.3-1.32-5-1-.48-1.09-1.81-1.08-2.9a2,2,0,0,1,.33-1.28c.31-.33,1-.31,1.1.13a20.4,20.4,0,0,0,.12-2.93,2.51,2.51,0,0,1,1.5-2.31c1.29-.36,2.43,1,3.75,1.19s2.85-.85,4.31-.7a1.24,1.24,0,0,1,.83.36,1.59,1.59,0,0,1,.28.88,32.74,32.74,0,0,1,.14,4.43,1.23,1.23,0,0,1,1.87.79,2,2,0,0,1-1.14,2,2.37,2.37,0,0,0-.61.37,1.6,1.6,0,0,0-.34.86c-.68,4.29-4.13,5.5-7.35,5,1,.6,3.51.26,4.67.07a23.75,23.75,0,0,1,.45,4.76,11.41,11.41,0,0,1-2.11,2c-1.95,1.12-4.34.12-6-1.35"/><path class="cls-3" d="M177.25,171.55c2.59,9.94.41,20.45.87,30.71,0,1.17.14,2.34.11,3.51-.08,2.61-.74,5.18-.72,7.79s1.56,3.62,3.77,5c.32-4.81.34-7.53.27-12.61a28.16,28.16,0,0,1,.41-4.48c.21-1.48.54-3,.75-4.44a57.41,57.41,0,0,0,.32-9.09l-.3-16.77a1.06,1.06,0,0,0-.34-.94,1,1,0,0,0-.74-.06,14.13,14.13,0,0,0-4.45,1.6"/><path class="cls-3" d="M207.4,169.29c2.19,3.25,4.44,6.64,5,10.51.38,2.51,0,5.07.36,7.59a77.26,77.26,0,0,1,.17,8.47c-.27,2.33-.43,3.71-.69,6a2.64,2.64,0,0,1-.46,1.43,4.12,4.12,0,0,1-1.27.79,3.73,3.73,0,0,0-1.86,3.59l1.81-1.35c.37-.27.9-.54,1.22-.22a.87.87,0,0,1,.21.52,4.82,4.82,0,0,1-2.43,4.78c2,.27,4.26.43,5.63-1s1-4,1.21-6.06c.23-2.62,5.59-23,1.91-31.72a19.94,19.94,0,0,0-2.22-3.53l-2.14-3a1.7,1.7,0,0,0-.59-.6,1.73,1.73,0,0,0-1.62.41,38.11,38.11,0,0,0-3.95,3.12"/><path d="M209.9,208.1c.06.44.32,1,.81.93s.53-.44.6-.76l.55-2.23A13.52,13.52,0,0,0,210,207.7"/><line class="cls-6" x1="214.05" y1="293.83" x2="214.16" y2="212.03"/><path d="M195.05,283.43l.26,4.47a3,3,0,0,1-1.26,3l-5.42,4.7c-1.25,1.08-2.81,2.24-4.39,1.76a1.74,1.74,0,0,1-1.07-.82,1.9,1.9,0,0,1,.32-1.9,15,15,0,0,1,1.43-1.44c2.18-2.24,2.26-5.75,3.72-8.51a1,1,0,0,1,.35-.43c.37-.2.8.08,1.17.28a3.2,3.2,0,0,0,3.93-.82"/><path d="M199.51,282.49a2.07,2.07,0,0,0,2.65.56,9.74,9.74,0,0,0,1.18-1.05,1.48,1.48,0,0,1,1.45-.39c.67.27.78,1.15.88,1.86.48,3.19,2.83,5.71,4.82,8.25.62.79,1.23,1.91.64,2.73a2.13,2.13,0,0,1-2,.61c-3.36-.76-9.46-2.71-9.64-6.75l.25-5.21"/><path class="cls-3" d="M190,283.75l-.23-3.56a.52.52,0,0,1,.07-.37.47.47,0,0,1,.32-.12,7.24,7.24,0,0,0,2.88-.46,4.12,4.12,0,0,1,.62-.33.59.59,0,0,1,.65.12.82.82,0,0,1,.15.52l.17,2.76a.79.79,0,0,1-.08.48.74.74,0,0,1-.31.24,12.44,12.44,0,0,1-3.25,1.14c-.28.05-.65.06-.77-.2"/><path class="cls-3" d="M200.11,275.78l0,4.8a4.59,4.59,0,0,0,.19,1.61.48.48,0,0,0,.17.27.53.53,0,0,0,.25.08c.9.07,1.53-1,2.43-1.11a3.26,3.26,0,0,0,.7-.06c.59-.19.7-1,.7-1.58v-4a.38.38,0,0,0,0-.21c-.07-.11-.23-.1-.37-.09a10.86,10.86,0,0,1-4.24-.4"/><path d="M192.08,126.44c1.7.07,3.23,1.33,4.93,1.21.62,0,1.2-.27,1.81-.37a2.1,2.1,0,0,1,1.76.37,2.36,2.36,0,0,1,.53.84,11.57,11.57,0,0,1,.9,3.57l.14-4.25a5.14,5.14,0,0,0-.51-3,4.33,4.33,0,0,0-2.73-1.58,13.54,13.54,0,0,0-5.84-.07,3.83,3.83,0,0,0-2.24,1.13,3.67,3.67,0,0,0-.58,1.13,15.27,15.27,0,0,0-.93,5.91,9,9,0,0,1,1.48-4.1c.3-.44.9-.88,1.28-.51"/><path d="M189.59,137.26a17.23,17.23,0,0,0,.78,2,4.74,4.74,0,0,0,1.86,2.31,5.43,5.43,0,0,0,2,.53,6.64,6.64,0,0,0,3.68-.38c1.77-.85,2.48-2.79,3-4.54-.66.89-1.36,1.75-2.1,2.59a2.7,2.7,0,0,1-.94.77,3.28,3.28,0,0,1-1.08.15,8.06,8.06,0,0,1-3.95-.56,1,1,0,0,1-.47-.38c-.24-.39,0-.89.41-1.19a2.93,2.93,0,0,1,2.25-.59,2.76,2.76,0,0,1,1.92,1.22,1.85,1.85,0,0,0-1.16-2.23,5.16,5.16,0,0,0-2.92-.18,16.38,16.38,0,0,1-2.94.41"/></svg>