<svg id="diagramsb" xmlns="http://www.w3.org/2000/svg" viewBox="0 0 288.12 294.73"><defs><style>.cls-1{fill:#f1b71c;}.cls-2{fill:#d0462e;}.cls-3{fill:#4c2216;}.cls-4{fill:#3a8199;}.cls-5,.cls-6{fill:none;stroke-linecap:round;stroke-miterlimit:10;}.cls-5{stroke:#f1b71c;}.cls-6{stroke:#000;stroke-width:2px;}</style></defs><path class="cls-1" d="M192.07,95.58l.09,24.42c0,5.7,0,11.41.55,17.09,1.2,13.33,5.13,26.47,4.45,39.85l5.53.81c2.54.38,5.61.55,7.17-1.49,1-1.25,1-3,1-4.53q0-27.53,1-55L214.48,174a1.49,1.49,0,0,0,.21.81,1.42,1.42,0,0,0,1.1.38l10.09.46c1,.05,2.2,0,2.74-.85a2.92,2.92,0,0,0,.22-1.9c-.86-8.75.18-17.55,1.22-26.28q.75-6.34,1.51-12.69c1-8.36,2-16.72,3.55-25-2.5.09-5.19.13-7.25-1.29-.88-.61-1.57-1.45-2.41-2.12-3.27-2.62-8.43-2.51-11-5.87-1.46-2-1.59-4.58-2.54-6.84a2.3,2.3,0,0,0-.72-1,2.55,2.55,0,0,0-1.52-.33,42.72,42.72,0,0,0-18,4" transform="translate(-5.94 -2.64)"/><path class="cls-2" d="M195.66,79.18c-.27,5.23-1.67,9.68-2.93,14.76,4.29-.23,19-5.81,20.57-.66,1.17,5.3,4.2,8.36,9.06,9.74,3.6,1.7,8.86,6.24,12.93,5.4,1-9-.31-18.67.35-27.75.85-2.92-3.91-2.94-4.28-4.94,5.17,3.9,12.44,2.83,10.75-4-1.1-5.13-4-10.88-5.81-15.81C235,49.24,229,44.3,222.83,41.37c-2.26,4.07-4.22,7.75-7.76,10.77-3.9-2-7.54-8.15-5.31-12-4.12,2.53-9,2.84-11.28,7.52C196,53.44,180.91,79.32,194,79.35" transform="translate(-5.94 -2.64)"/><path class="cls-3" d="M215.63,60.1a6.86,6.86,0,0,1-3.16.37,2.37,2.37,0,0,1-2-2.14c0-.48.21-.94.23-1.43s-.29-1-.78-1c-.5,1.14-.06,2.59-.75,3.62a3.81,3.81,0,0,1-1.34,1.07l-13.37,7.73a11.47,11.47,0,0,0-3.85,3,4,4,0,0,0-.21,4.6,3.87,3.87,0,0,0,3.69,1.14,10,10,0,0,0,3.63-1.72c4.17-2.79,7.55-7.15,12.07-9.31a36.07,36.07,0,0,0,4.48-2c1.45-1.12,1.29-1.5,1.35-3.33" transform="translate(-5.94 -2.64)"/><path class="cls-3" d="M224.42,58.55a11.7,11.7,0,0,0-1-5.38A4.68,4.68,0,0,0,219,50.48a9.56,9.56,0,0,1,2.87,2.9,4.52,4.52,0,0,1-1.81-.23c-.61-.11-1.37,0-1.6.59s.39,1.29.83,1.84c1.35,1.68,1.14,4.07,1.74,6.13.74,2.55,2.72,4.52,4.62,6.37L229,71.33c1.9,1.86,4,3.8,6.58,4.26,1.54.28,3.38-.16,4.09-1.55a3.77,3.77,0,0,0,.32-1.88,9.69,9.69,0,0,0-2.9-5.8c-3.41-3.62-8.09-5.72-12.65-7.72" transform="translate(-5.94 -2.64)"/><path class="cls-3" d="M208.08,28.09c-2.69-2.75-2.52,4.92-.13,4.38,1.48-.3,2,1.82,2.67,3,1.36,5-2.48,11.9,3.83,15.43,2.36-1.71,5-3.63,5.85-6.61.93-3.39-.63-7.79-.63-7.79s-3.23,2.28-4.6,1.57A6.82,6.82,0,0,0,220,35.2c1.12-1.35,1-2.69,2.32-3s2-3.46,1.64-5.33a1.11,1.11,0,0,0-1.55-.77l-.36.16c-2-11.22-15.84-10-14,1.45" transform="translate(-5.94 -2.64)"/><path d="M222.91,25.16l-.2-5.53a3,3,0,0,0-.15-1,6.89,6.89,0,0,0-.55-.89,1.26,1.26,0,0,1-.22-1,2.72,2.72,0,0,0,.13-.37.71.71,0,0,0-.51-.74,2.12,2.12,0,0,0-1,0,2.37,2.37,0,0,0-.47-.87.8.8,0,0,0-.91-.21c-.25.13-.38.41-.62.55a1.4,1.4,0,0,1-.58.11,1.59,1.59,0,0,1-.81-.12.55.55,0,0,1-.27-.69.45.45,0,0,0-.56-.07c-.19.09-.35.24-.54.31a2.1,2.1,0,0,1-.75,0,2.5,2.5,0,0,0-1.59.55c-.6.48-1,1.25-1.69,1.55s-1.65,0-2.41.29A2.79,2.79,0,0,0,208,18.28a11.26,11.26,0,0,0-.92,8.24c.06.26.52,1,.77,1.05a21.24,21.24,0,0,1,.25-4.44A4.86,4.86,0,0,1,209.8,20a7.44,7.44,0,0,1,4.32-1.74,14.72,14.72,0,0,1,3.19.66,5.7,5.7,0,0,1,3.05,2.76,15.47,15.47,0,0,1,1.8,4.46c.28-.12.47-.22.75-.33" transform="translate(-5.94 -2.64)"/><path class="cls-3" d="M200.58,178l-.38,4.51a18.89,18.89,0,0,0-.07,3.19c.07.74.35,1.6,1.07,1.78a1.8,1.8,0,0,0,1.63-.75c1.95-2.15,2.35-5.28,2.33-8.18L201,178" transform="translate(-5.94 -2.64)"/><path class="cls-3" d="M217.49,175.8c-.1,1.42-.13,3,.89,4a5.2,5.2,0,0,0,.93.66,14.84,14.84,0,0,0,3.7,1.78.79.79,0,0,0,.78-.09.64.64,0,0,0,.15-.31,4.31,4.31,0,0,0-.51-2.4,9,9,0,0,1-.57-3.45,17.22,17.22,0,0,0-4.86-.33" transform="translate(-5.94 -2.64)"/><path class="cls-2" d="M198.12,186.07c.06,8.44,6.61,4.47,7-1.51a3.26,3.26,0,0,1-1.83,2.36c-3.1,2.73-4.36-.49-4.29-3.37" transform="translate(-5.94 -2.64)"/><path class="cls-2" d="M217.53,181.21c1.71,8,13.87,12.6,7.3.39-1.52,3.88-5,0-7.07-1.39" transform="translate(-5.94 -2.64)"/><path class="cls-3" d="M167.86,17.16c-.09-.76-.38-1.73-1.15-1.77s-1.2,1-1.21,1.88a3.51,3.51,0,0,0,.28,1.64,1.49,1.49,0,0,0,1.34.86c.19,0,.4-.06.54.06a.61.61,0,0,1,.14.34,45.28,45.28,0,0,1,.44,8.94,2.51,2.51,0,0,0,.13,1.19A2.43,2.43,0,0,0,169,31l4.44,4.21a.85.85,0,0,0,.54.29.84.84,0,0,0,.48-.27L177,33a2.73,2.73,0,0,0,.85-1.1,2.48,2.48,0,0,0,.08-.9l-.07-3.44a6.26,6.26,0,0,1-7.93-2.36,20.33,20.33,0,0,0,3.71,1.2,5.86,5.86,0,0,0,4.33-.29,4.92,4.92,0,0,0,1.77-2.2,17.8,17.8,0,0,0,1.22-5.75,42.41,42.41,0,0,0,.3-7.55c-.07-.86-.4-1.93-1.25-2a3.11,3.11,0,0,0-1,.21c-1.42.35-2.82-.55-4.27-.77a5.89,5.89,0,0,0-5.6,2.81,10.34,10.34,0,0,0-1.35,6.37" transform="translate(-5.94 -2.64)"/><path class="cls-3" d="M193.13,97.92l2.81-.15a1.18,1.18,0,0,1,.59.07,1.16,1.16,0,0,1,.48.74,20.75,20.75,0,0,1,.87,4.27,8.07,8.07,0,0,1,0,1.63,5.16,5.16,0,0,1-5,4.44c.81-1.86,1.63-3.91,1-5.86a7.6,7.6,0,0,0-1.65,2.46,33.92,33.92,0,0,1,.44-7.53" transform="translate(-5.94 -2.64)"/><path class="cls-3" d="M161.34,178.09l.06,2.44a3.38,3.38,0,0,1,3.57-1.71,2,2,0,0,0,.73.09c.24,0,.48-.27.42-.51s-.47-.36-.79-.35l-4,.19" transform="translate(-5.94 -2.64)"/><path class="cls-3" d="M185,179l.12,1.62a.26.26,0,0,0,0,.17.29.29,0,0,0,.19.07,6.3,6.3,0,0,0,2.77-.18,6.75,6.75,0,0,0,1-.56l1.68-1.05a.94.94,0,0,0,.38-.36A9.82,9.82,0,0,0,191,176c-.07,0-1.72.2-1.79.21-1.87.42-4.61,1.26-4.08,2.66" transform="translate(-5.94 -2.64)"/><path class="cls-3" d="M156.22,97.18,153.41,97a1.18,1.18,0,0,0-.59.07,1.19,1.19,0,0,0-.49.75,21.31,21.31,0,0,0-.86,4.26,8.08,8.08,0,0,0,0,1.63,5.14,5.14,0,0,0,5,4.44c-.8-1.86-1.62-3.91-1-5.85a7.51,7.51,0,0,1,1.65,2.45,34,34,0,0,0-.43-7.53" transform="translate(-5.94 -2.64)"/><path class="cls-4" d="M188.31,91.26c-4.06,2.69-9.39,2.26-14.16,1.27s-9.65-2.42-14.41-1.4q-1.49,17.2-1.39,34.49c0,4.91.15,9.82.27,14.72l.91,35.68a1.62,1.62,0,0,0,.24,1,1.58,1.58,0,0,0,1.3.38l6.74-.07,2.83-28.82.78-8c.71-7.24,1.42-14.47,1.71-21.74.13-3.27.18-6.54.22-9.81a41.38,41.38,0,0,0,3,12.14c1.49,3.56,3.5,7,4,10.82a31,31,0,0,1,.08,4.91A171,171,0,0,0,184,177.69a33.2,33.2,0,0,1,8.3-2.17c-1.61-6.07-1.49-12.44-1.37-18.71.15-7.38.28-14.75.25-22.13,0-5.88-.18-11.77-.71-17.63-.78-8.48-2.38-17-1.68-25.45" transform="translate(-5.94 -2.64)"/><path class="cls-1" d="M168.28,32c-5,1-10.38,2.28-13.37,6.36-1.86,2.53-2.45,5.78-2.53,8.92s.32,6.29.19,9.42c-.11,2.78-.63,5.53-1,8.29-1.22,10.39.25,20.88.2,31.34l4.06.71a1.38,1.38,0,0,0,1.93-1.51c1.19-12.21.68-24.56,2.13-36.74a298.81,298.81,0,0,1,0,31,1.09,1.09,0,0,0,.13.71,1,1,0,0,0,.63.31c2.18.47,4.46.09,6.68.32,2.58.27,5,1.35,7.54,1.94a20,20,0,0,0,12.66-1.28,1.42,1.42,0,0,0,1-1.54,114.54,114.54,0,0,0-1-23.84c-.73-5-1.78-10.14-.38-15A462.5,462.5,0,0,0,191.38,98l5.05-1.12a1.26,1.26,0,0,0,1.26-1.52c-.11-10.23-.22-20.54-2.23-30.57-.78-3.91-1.85-7.77-2.56-11.69-.59-3.29-.94-6.63-1.82-9.86a15.37,15.37,0,0,0-4.25-7.61A15.49,15.49,0,0,0,180,32.45a3.14,3.14,0,0,0-1.55-.07,3.32,3.32,0,0,0-1.28.9l-2.3,2.26a1.11,1.11,0,0,1-1.81.13L168.5,32" transform="translate(-5.94 -2.64)"/><path d="M167.23,12.86c.33-1.63-.31-3.37.17-5a4.71,4.71,0,0,1,2.87-2.85,10,10,0,0,1,4.11-.52,9.82,9.82,0,0,1,3.73.71,4.57,4.57,0,0,1,2.57,2.67c-1.15,0-2.29.36-3.44.3-.85,0-1.66-.33-2.5-.44a6.27,6.27,0,0,0-5.18,1.71,12.41,12.41,0,0,0-2.31,3.7" transform="translate(-5.94 -2.64)"/><path d="M161.65,182a1.62,1.62,0,0,1,.91-1.91,4.75,4.75,0,0,1,2.28-.29l1,0a1.16,1.16,0,0,1,.42.06,1.42,1.42,0,0,1,.54.44,10.31,10.31,0,0,0,3.3,2.44.91.91,0,0,1,.39.27.64.64,0,0,1-.21.85,1.78,1.78,0,0,1-.94.24c-2.21.16-4.43.11-6.65.07a1.41,1.41,0,0,1-1.07-.33c-.32-.36-.17-.92,0-1.37" transform="translate(-5.94 -2.64)"/><path d="M185.15,181.24l.14,2.16a.5.5,0,0,0,.12.35.48.48,0,0,0,.35.09l16.34.2c.41,0,.92-.07,1.05-.46s-.17-.68-.46-.89c-1.73-1.25-4.11-.78-6.21-1.11a8,8,0,0,1-4.4-2.24c-.24-.24-.53-.51-.86-.43a.92.92,0,0,0-.38.27,6.53,6.53,0,0,1-5.46,1.68" transform="translate(-5.94 -2.64)"/><path class="cls-3" d="M160.48,85.19a6,6,0,0,1,.86-2.46,1.14,1.14,0,0,1,1.71,0,1.74,1.74,0,0,1,0,1.29,24.08,24.08,0,0,0-.42,8.75,5.56,5.56,0,0,1,.06,2,3.71,3.71,0,0,1-1.12,1.77,7.65,7.65,0,0,1-6.93,1.94c-.13-.82-.69-2.2-.82-3a8.51,8.51,0,0,0,5.7-2.59,15.09,15.09,0,0,1-4.68,1.76,5.26,5.26,0,0,1-4.64-1.37,7.1,7.1,0,0,1-1.38-2.87c-.75-2.57-.36-4.53-.53-7.2a15.74,15.74,0,0,1,1.33-4c.51-1,1.68-1.23,2.82-1.32,2.07-.17,4.28,0,5.81,1.44s1.71,3.85,2.21,5.86" transform="translate(-5.94 -2.64)"/><path class="cls-2" d="M163.6,95.49c-2.59,2.74-7.27,3.47-8.69,7l-3-5.48a5.62,5.62,0,0,0-1.19-1.65c-1.33-1.11-3.45-.71-4.76.42a11.26,11.26,0,0,0-2.67,4.4,94,94,0,0,0-4.79,13.68A12.1,12.1,0,0,1,137,118a10.52,10.52,0,0,1-3.91,3,6.73,6.73,0,0,1,5.13,9.16c2.67-.25,4.83-2.45,5.83-4.93a22,22,0,0,0,1.11-7.92l.12-6.38a84.44,84.44,0,0,1,.43,22.4c-.37,3.22-.8,6.89,1.35,9.3A9.62,9.62,0,0,0,151,145a38,38,0,0,0,10.63,2.28,14,14,0,0,0,5.2-.41,6.3,6.3,0,0,0,3.93-3.25,9.66,9.66,0,0,0,.57-3.63q.17-7.8-.28-15.57a7.14,7.14,0,0,0-.28-1.85c-.65-1.87-5-7.1-6.2-10.17s-.74-7.12,2-9c-2.45,2.3-2.05,6.41-.45,9.36s4.15,5.32,5.77,8.27c.86,1.57,1.45,3.27,2.35,4.81a24.29,24.29,0,0,1,2.08,3.63,12.83,12.83,0,0,1,.51,4.41l0,7.65a1.48,1.48,0,0,0,.23,1,1.41,1.41,0,0,0,.89.4,20.5,20.5,0,0,0,8-.13,2.08,2.08,0,0,0,1.21-.57,2.1,2.1,0,0,0,.37-1c.85-5.23.38-10.57-.09-15.84a22.57,22.57,0,0,0-.68-4.33,20.31,20.31,0,0,0-2.27-4.69,113,113,0,0,0-9.51-13.38c-1.89-2.28-4-4.57-6.77-5.6.62-.61,1.9.24,2.47-.42a1.24,1.24,0,0,0,.22-.76,7.17,7.17,0,0,0-5.18-7c-.7-.18-1.61-.17-2,.46a1.88,1.88,0,0,0-.16,1l.08,3.69" transform="translate(-5.94 -2.64)"/><path class="cls-4" d="M146,144.58a97.38,97.38,0,0,0,1.39,12.87c1.12-1.72-3.16,13.83-3.23,23.77,0,3.31.31,6.61.34,9.92.13,11.34-3.21,22.52-2.94,33.86a1.2,1.2,0,0,0,.19.77,1.19,1.19,0,0,0,.53.34,32.53,32.53,0,0,0,8.78,2.26,3.61,3.61,0,0,0,3.06-.65,3.85,3.85,0,0,0,.78-2.28,183.64,183.64,0,0,1,3.74-21.22c1.07-4.51,2.32-9.27.93-13.7a21.79,21.79,0,0,1-1.31-4.28,10.5,10.5,0,0,1,.56-3.88,54.26,54.26,0,0,1,5.55-12.68c-1.35,4.72-4.52,9-4.74,13.88-.12,2.8.74,5.55,1.33,8.29,1.61,7.49,1.22,15.26,2.2,22.86a1.8,1.8,0,0,0,.31.91,1.72,1.72,0,0,0,.83.44c3.36,1,7,2,10.31.82a2.1,2.1,0,0,0,1.38-1,2.57,2.57,0,0,0-.15-1.72c-1.66-5.33-1.13-11.05-1.15-16.63a30.6,30.6,0,0,0-.62-6.82,53.05,53.05,0,0,0-1.79-5.57,129.57,129.57,0,0,1-4.36-18.3,19.44,19.44,0,0,1-.47-4.16c.16-5.46,4.83-10.33,3.92-15.71a35.7,35.7,0,0,1-24.69-3.07" transform="translate(-5.94 -2.64)"/><path d="M153.82,229.31l-10-1.22a8.14,8.14,0,0,0-2.31-.06,8.35,8.35,0,0,0-2.13.81l-4.58,2.27c-1.38.69-3,1.64-3,3.19a3,3,0,0,0,2.11,2.77,8.06,8.06,0,0,0,3.69.16,59.84,59.84,0,0,0,14.25-3.54,3.52,3.52,0,0,0,1.36-.77c.79-.83.66-2.14.47-3.26" transform="translate(-5.94 -2.64)"/><path d="M163.24,216.68a16.49,16.49,0,0,1-3.67,2.06,8.32,8.32,0,0,0-3.33,2.51,3.38,3.38,0,0,0-.08,3.94,1.12,1.12,0,0,0,.67.44,1.47,1.47,0,0,0,.59-.07l15.84-4.07a3.71,3.71,0,0,0,2.21-1.15,3.75,3.75,0,0,0,.3-2.88,21.82,21.82,0,0,1-12-.26" transform="translate(-5.94 -2.64)"/><path class="cls-3" d="M178.65,144.24,176,154.75a13.93,13.93,0,0,1-1.62,4.34c-.88,1.34-2.3,2.57-2.15,4.16l2.58-1.94a47.09,47.09,0,0,0-.37,6.61.75.75,0,0,0,.14.53.66.66,0,0,0,.46.16,3.63,3.63,0,0,0,3.5-2.28c1.93-5.71,3-15.72,6.7-22.81a32.33,32.33,0,0,0-6.42.89" transform="translate(-5.94 -2.64)"/><path d="M120.59,125.42a37.08,37.08,0,0,1-2.07-4.75c-.12-.34-.21-.78.06-1s.62-.13.93,0a11.48,11.48,0,0,1,5,3.57,21.11,21.11,0,0,1,2.52,4.44c1.16,2.55,2.23,5.13,3.31,7.71.13.33.25.75,0,1a.76.76,0,0,1-.46.16c-1.07.06-1.89-.9-2.52-1.77l-5.92-8.17" transform="translate(-5.94 -2.64)"/><path class="cls-3" d="M132.94,121.87a4.54,4.54,0,0,1,3.58,1.87,8.11,8.11,0,0,1,1.47,3.87,2.36,2.36,0,0,1-.24,1.72,2.26,2.26,0,0,1-1,.68,21.58,21.58,0,0,1-6.59,1.27.5.5,0,0,1-.32-.06.42.42,0,0,1-.12-.23,14.6,14.6,0,0,0-2.62-4.9,1.27,1.27,0,0,1-.34-.62c-.07-.49.44-.85.88-1.08a34.07,34.07,0,0,1,4.66-2" transform="translate(-5.94 -2.64)"/><path class="cls-3" d="M120.71,126.31a10.23,10.23,0,0,0-.32,4.26.72.72,0,0,0,.13.38c.16.18.43.17.66.24.47.16.68.7.89,1.15a3.73,3.73,0,0,0,3.57,2.38,12.92,12.92,0,0,0,.61-5.72c-.24.27-.69-.05-.81-.39s-.16-.77-.48-.94a2.11,2.11,0,0,0-.43-.12,1.85,1.85,0,0,1-1-1,2.64,2.64,0,0,0-.87-1.19c-.43-.26-1.13-.12-1.21.37" transform="translate(-5.94 -2.64)"/><path d="M148.59,81.32c-1.42-2.42-.43-5.74,1.73-7.53a10.68,10.68,0,0,1,8-2,6,6,0,0,1,3,1A6.79,6.79,0,0,1,163.19,76a20.32,20.32,0,0,1,1.43,5.83,8.93,8.93,0,0,1-1.42,5.73c.22-1.16.38-2.33.49-3.5a2.07,2.07,0,0,0-.35-1.66,1.41,1.41,0,0,0-1.8.07,4.06,4.06,0,0,0-1,1.63,12.31,12.31,0,0,0-2-4.13,6.06,6.06,0,0,0-9.95,1" transform="translate(-5.94 -2.64)"/><path class="cls-3" d="M54.1,63.45a1.3,1.3,0,0,0-2.11-1,1.69,1.69,0,0,0,.5,2.56c.49.23,1.08.25,1.49.61a2.37,2.37,0,0,1,.57,1.69l.62,9.38a12.36,12.36,0,0,0,1.25,5.57c1,1.65,3.06,2.78,4.78,2,2-.89,2.39-3.57,2.3-5.79a34,34,0,0,0-.44-4.27,7.83,7.83,0,0,1-6.47-3.11,13.5,13.5,0,0,0,4.27,1.68,4.53,4.53,0,0,0,4.19-1.38,6.3,6.3,0,0,0,1-2.18A28.86,28.86,0,0,0,67,56.84a3.69,3.69,0,0,0-1.77-2.79c-.24-.14-2.89-1.21-4.16-.94a8.31,8.31,0,0,0-5.35,4.15c-1,2-1.06,4.37-1.1,6.63" transform="translate(-5.94 -2.64)"/><path class="cls-3" d="M81.69,123.57,80,128c-.18.48-.34,1.07.07,1.43a1.68,1.68,0,0,0,.6.29l4.24,1.38a2.7,2.7,0,0,0,1.15.21c1-.09,1.86-1.08,2.67-.63-.09-.22.17-.43.4-.56l1.78-1a1.77,1.77,0,0,0,.76-.66,1,1,0,0,0-.42-1.17,4.08,4.08,0,0,0-1.34-.55c-1.65-.47-3.26-1-4.85-1.61a.83.83,0,0,1-.39-.22c-.25-.29,0-.7.35-.92s.74-.41.86-.76c.17-.5-.46-1-1.06-1a3.19,3.19,0,0,0-1.62.61L81.35,124" transform="translate(-5.94 -2.64)"/><path class="cls-3" d="M77.86,141.47a24.88,24.88,0,0,0-.76,8.61l1.63-3.29c.88.91.56,2.55.17,3.83L78.17,153a2.77,2.77,0,0,0,3.32-1.42,7.41,7.41,0,0,0,.53-3.4l0-8a.53.53,0,0,0-.09-.38.38.38,0,0,0-.29-.09,29.51,29.51,0,0,0-3.26.06" transform="translate(-5.94 -2.64)"/><path class="cls-1" d="M54.16,78.23a23.36,23.36,0,0,0-8.54,1.94,7.76,7.76,0,0,0-3.12,2.14,7.12,7.12,0,0,0-1.28,3.09c-.84,4.27.51,8.69,2.38,12.6a92.67,92.67,0,0,0,7.5,12.32c-1.67-1.45-3.33-4.39-5-5.84-1.09,22.85-2.41,47.18-3.92,70l17.21.5a6.49,6.49,0,0,0,2.67-.29c1.86-.74,2.7-3,2.85-5s-.14-4.15.41-6.12L65.24,171a3,3,0,0,0,.64,2.33,2.81,2.81,0,0,0,1.52.55L75.05,175a1.12,1.12,0,0,0,1.56-1.18,39.1,39.1,0,0,0,.11-5.93q-.66-18.84-2.19-37.63l1.21,7.86a1.49,1.49,0,0,0,.45,1,1.42,1.42,0,0,0,.91.15,17.18,17.18,0,0,0,4.68-1.06l.09-5.3a3.9,3.9,0,0,0-.33-2,3.8,3.8,0,0,0-2-1.38l-9.56-3.65c-3.65-1.39-6.57-2.46-9.39-5.21a36.77,36.77,0,0,1-5.3-6.61c5.3,7.64,14.68,10.85,23.43,13.6a4.3,4.3,0,0,0,1.5-5c-.79-1.56-2.9-2.38-4.28-3.43-2.39-1.82-4.7-3.76-7-5.71-4.53-3.83-7.9-5.59-9.26-11.45,3.5,7,7.15,9,13,12.92q-.21-9.48,0-19a153,153,0,0,1,1.18,18.78,3.77,3.77,0,0,0,.46,2.21,3.55,3.55,0,0,0,1.44,1l5.53,2.59-2.36-17.79c-.72-5.45-1.47-11-3.69-16-2-4.5-5.72-8.76-10.53-9a14.86,14.86,0,0,1-1.46,4.44,4.84,4.84,0,0,1-3.63,2.58,4.82,4.82,0,0,1-4-2.24,14.63,14.63,0,0,1-1.89-4.51" transform="translate(-5.94 -2.64)"/><path d="M62.58,174.32c1.83,16.93,6.62,33.39,8.09,50.35a1,1,0,0,0,.17.58.86.86,0,0,0,.61.25,6,6,0,0,0,4-.95,2.64,2.64,0,0,0,1-1,3.57,3.57,0,0,0,.22-1.66c-.51-15.3-2.12-30.56-1.86-45.86a.84.84,0,0,0-.14-.59.78.78,0,0,0-.49-.18l-8.23-1" transform="translate(-5.94 -2.64)"/><path d="M46.71,175l-.12,50.46a2.82,2.82,0,0,1,2.27-.94,4.08,4.08,0,0,0,1.39.05c.9-.26,1.16-1.41,1.25-2.36C53,206.57,56.37,190.58,58.12,175c-2.37,0-8.9.16-11.26.14" transform="translate(-5.94 -2.64)"/><path class="cls-2" d="M46.87,226.37a4.3,4.3,0,0,1,3.13-.68,12.43,12.43,0,0,1,3.11,1L56,227.89c.29.12.63.31.63.63a.6.6,0,0,1-.17.4,2.28,2.28,0,0,1-1.77.52l-8,0a.37.37,0,0,1-.29-.08.41.41,0,0,1-.09-.31,18.42,18.42,0,0,1,.07-2.1" transform="translate(-5.94 -2.64)"/><path class="cls-2" d="M70.38,227.09l.33,1.62a.92.92,0,0,0,.26.55.79.79,0,0,0,.5.12q8,.18,15.91-.16a.86.86,0,0,0,.45-.11.62.62,0,0,0,0-.9,1.71,1.71,0,0,0-.91-.39c-2.85-.6-5.79-1.14-8.32-2.63a2.63,2.63,0,0,0-1.12-.47,2.5,2.5,0,0,0-.85.15l-6.22,1.87" transform="translate(-5.94 -2.64)"/><path d="M52.62,61.71c.77-3.12-.1-6.78,1.87-9.32a6.36,6.36,0,0,1,4.22-2.25,13.52,13.52,0,0,1,4.86.38,44.46,44.46,0,0,1,4.5,1.22c1.14.8-2.25,1.73-1.85,3.06a7.42,7.42,0,0,0-9.17,1,11.86,11.86,0,0,0-2.68,6.69l-1.54-.85" transform="translate(-5.94 -2.64)"/><path class="cls-3" d="M123.05,17.1c0-.58.85-.82,1.32-.47A1.92,1.92,0,0,1,125,18.2a3.61,3.61,0,0,1-.75,2.36,2,2,0,0,1-2.27.66c-1.19,3.18-1.34,3.64-1.35,6.49,0,.37-7.2,5.5-10.79,4.87a5.83,5.83,0,0,1-.33-2.54,8.48,8.48,0,0,0,6.47-1.17c1.91-1.17,2.07-1.76,3.36-3.59-2.51,2.09-3.91,3.31-7.07,4.17a4.73,4.73,0,0,1-3.75-1.24,13.19,13.19,0,0,1-1.17-3.15c-1.59-5.52-1.34-8.8-1-14.54a4.51,4.51,0,0,1,.55-2.29,1.64,1.64,0,0,1,2.06-.66c.64.37.8,1.22,1.33,1.73.91.91,2.47.47,3.54-.23s2.13-1.65,3.42-1.64c2,0,3.17,2.31,3.46,4.3s.24,4.22,1.6,5.69" transform="translate(-5.94 -2.64)"/><path d="M106.11,9.94l1.88-2c.27-.29.64-.61,1-.48s.47.76.62,1.21c.37,1.06,1.81,1.36,2.87,1a18.17,18.17,0,0,0,2.89-1.74,2.88,2.88,0,0,1,3.17-.09,3.51,3.51,0,0,1,1,2l1.42,5.58a6.71,6.71,0,0,1,.31,2.94,6.74,6.74,0,0,1-1.15,2.4,11.76,11.76,0,0,1-2.38,2.91,4,4,0,0,1-3.53.89c-1.58-.47-2.68-2.23-4.34-2.28a2.33,2.33,0,0,0-2.31,2.05c.89-.45,1.32-2.13,2.31-2.05.53,0,1.67,1.64,2.05,2a1.07,1.07,0,0,1,.15,1.42c-.26.3-.21,1-.6,1.08a9.24,9.24,0,0,1-4-.88c-1.1-.48-.37-.48.13-1.57-.15,2.39-.44,3.48,1.62,4.71a6.69,6.69,0,0,0,6.83-.05,10.72,10.72,0,0,0,3.3-3.65,23.7,23.7,0,0,0,2.25-4.61c.41-1.17.71-2.37,1-3.57l1.81-7.25c.25-1,.35-2.4-.61-2.82a3.91,3.91,0,0,1-.67-.27c-.37-.28-.36-.82-.49-1.26-.36-1.22-1.8-1.72-3-2a42.06,42.06,0,0,0-8.88-.88,3.18,3.18,0,0,0-2.47.75,3.14,3.14,0,0,0-.52.93l-2.05,4.9" transform="translate(-5.94 -2.64)"/><path class="cls-1" d="M106.89,28.22c-.38,2.23,1.47,4.42,3.68,5A8.12,8.12,0,0,0,117,31.67a29.17,29.17,0,0,0,4.87-4.75,1.66,1.66,0,0,1,.66-.52,1.89,1.89,0,0,1,.82,0c2.78.37,5.66.77,8,2.25a19.4,19.4,0,0,1,3.69,3.32c1.22,1.3,7.72,21.4,7.81,28.28q.17,13.11.08,26.22c0,.69-.1,1.53-.73,1.83a1.87,1.87,0,0,1-1,.09l-3.69-.29a1.45,1.45,0,0,1-.91-.28,1.38,1.38,0,0,1-.32-.83c-1.67-10.58-3.34-21.19-3.61-31.89l.36,31.85a3.66,3.66,0,0,1-.24,1.68c-.53,1.06-1.89,1.35-3.07,1.49A60.44,60.44,0,0,1,100.16,86a3,3,0,0,1-1.86-1.47A12.7,12.7,0,0,1,97.39,82c-.31-5.69,0-11.62.16-17.07.17-5.76.28-10.43.73-16.18-1.23,7.49-.89,13.4-1.56,20.45C96,76.58,98,80.9,96.22,88.08c-.11.44-2.51,1.47-2.82,1.8-.61.68-3.91,0-4-.49-2.48-18.29-1-34.17,4-52a11.54,11.54,0,0,1,2.33-4.93c2.51-2.68,6.85-2.6,9.91-4.65" transform="translate(-5.94 -2.64)"/><path class="cls-4" d="M98.43,86.29c2.24,1.15,4.49.94,6.92,1.6,2.81.76,5.75,2.2,8.66,2.25l16.52.3c1.09,0,1.54-1.7,2-.73a19.52,19.52,0,0,1,1.08,3.12L134.8,122c.11,2.72.22,5.45.11,8.17-.13,3.19-.55,6.37-.78,9.56-.85,11.54.75,23.22-.92,34.67a81.9,81.9,0,0,0-14.52-.42c-.26-18.83-1.43-44.35-2.23-63.16a68.47,68.47,0,0,1-2.32,13.6c-.72,2.11-1,7.15-1.38,9.34-2.6,15.05-2.35,28-3.47,42.12a27,27,0,0,0-12.06-2.5c-.61,0-1.33,0-1.69-.49a1.93,1.93,0,0,1-.26-.95,82.82,82.82,0,0,1,0-13.73c.27-3.27.74-6.53,1-9.8.33-4.07.34-8.15.35-12.23l.06-32a38.35,38.35,0,0,1,.64-8.5c.67-3,1.87-6.44,1.09-9.39" transform="translate(-5.94 -2.64)"/><path d="M123.93,174.31c-1.66,1.76-4.31,2.17-6.41,3-.2.08-2.69,0-2.88.12a3.32,3.32,0,0,0-.66,1.83c0,.74,3.08.48,3.76.78s8.86.43,12.15,0a1.14,1.14,0,0,0,.82-.38,1.16,1.16,0,0,0,.14-.56l.26-4.56a.39.39,0,0,0-.06-.3c-.07-.09-.21-.09-.32-.09h-6.8" transform="translate(-5.94 -2.64)"/><path d="M99,173.76c-3.09.37-6,1.59-9.06,2a5,5,0,0,0-1.8.45,1.49,1.49,0,0,0,.2,2.83,5.34,5.34,0,0,0,1.83.21,82.47,82.47,0,0,1,11.32.75,4.33,4.33,0,0,0,3-.31c1.12-.75,1.25-2.33,1.26-3.68a1.37,1.37,0,0,0-.25-1,1.22,1.22,0,0,0-.44-.26,13.4,13.4,0,0,0-6.1-1" transform="translate(-5.94 -2.64)"/><path class="cls-3" d="M91.3,90.38a23.6,23.6,0,0,0,.22,6.17,6.21,6.21,0,0,0,1.28,3.19,1.17,1.17,0,0,0,1.13.47,1,1,0,0,0,.6-.93,5.2,5.2,0,0,0-.19-1.16,9.23,9.23,0,0,1,.32-3.86c0-.1.07-.22.17-.21s.11.07.15.13l.66,1.21c.26,0,.37-.33.39-.59a22,22,0,0,0-.27-5.37c0-.19-.09-.41-.27-.47a.53.53,0,0,0-.37.05l-4,1.57" transform="translate(-5.94 -2.64)"/><path class="cls-3" d="M137,88.72a15.1,15.1,0,0,0-1,4.84A6.42,6.42,0,0,0,138.09,92a13.85,13.85,0,0,1-1.87,4.49,2.21,2.21,0,0,0-.54,1.66,1.32,1.32,0,0,0,1.25.87,2.72,2.72,0,0,0,1.51-.56,7.58,7.58,0,0,0,2.63-3.67,22.45,22.45,0,0,0,1-4.46,1.29,1.29,0,0,0-.1-1c-.25-.35-.75-.36-1.18-.36a13.78,13.78,0,0,1-3.56-.44" transform="translate(-5.94 -2.64)"/><path class="cls-1" d="M14.92,90.84c-10.86-.26-1,44-.07,52.09,1.87-.64,6.48.59,6.13-2.39a192.38,192.38,0,0,0-4.74-26.22c3.1,8.84,5.75,27.7,5.32,28.14-1.77,1.52-4.76.64-7,1.07-.45,0-3.4-19.24-3.4-19.24s-7.81,24.26-4.38,98.27c.23,5.08,18.52.78,27.73-.21,1-33.78,1.82-67-.19-100.33-1.51,7-2.6,14.79-4.94,21.92-11.95-1.41.1-21.93-1.78-30,1.7,11.29-8.45,24.67.9,29.53,3.21-9.18,13.84-49.39,4.45-51.87-3.21.94-5.66,5.1-9.18,3.93A23.45,23.45,0,0,1,14.92,90.84Z" transform="translate(-5.94 -2.64)"/><path class="cls-4" d="M29.77,70a12.28,12.28,0,0,0-8.65-1.5,6.61,6.61,0,0,0-3.7,1.88,7.25,7.25,0,0,0-1.48,3.47,22.1,22.1,0,0,0-.38,5.68c.1,1.52.33,3.15-.46,4.46-.49.8-1.36,1.53-1.22,2.45,0,.19.11.38.13.58.06.63-.49,1.15-1,1.56a.72.72,0,0,1,.15,1c1.33-.24,2.53.75,3.55,1.62,2.38,2,5.27,4,8.43,3.74,2.68-.21,4.94-1.92,7-3.56.64-.51,1.35-1.35.87-2-.16-.23-.44-.37-.57-.62-.2-.42.13-.95-.08-1.36s-.46-.4-.67-.62a2,2,0,0,1-.37-1.4l-.05-9.52c0-2-.08-4.16-1.39-5.69" transform="translate(-5.94 -2.64)"/><path class="cls-3" d="M27.79,72.46a9.87,9.87,0,0,0-4.16-.67,4.61,4.61,0,0,0-4.09,2.32,6.8,6.8,0,0,0-.4,3.11,22,22,0,0,0,.43,4.14,7,7,0,0,0,1.63,3.28,3.94,3.94,0,0,0,3.32,1.28c1.63-.23,2.82-1.68,3.56-3.15a11.46,11.46,0,0,0,.71-9.1Z" transform="translate(-5.94 -2.64)"/><path class="cls-3" d="M20.88,143c.24.9.45,1.8.63,2.71a16.36,16.36,0,0,1,1,4.41.28.28,0,0,1-.07.21.56.56,0,0,1-.19.09,3.3,3.3,0,0,1-2.9-.82,7.35,7.35,0,0,1-3.2-5.06.61.61,0,0,1,.06-.37,1.21,1.21,0,0,1,.76-.39,28.16,28.16,0,0,1,3.52-.61" transform="translate(-5.94 -2.64)"/><path class="cls-3" d="M24.48,142.18c-.52.93-1,1.89-1.46,2.85a.65.65,0,0,0-.09.38c0,.22-1.84,2.56-2.28,4.28a.33.33,0,0,0,0,.24.47.47,0,0,0,.14.14,3,3,0,0,0,3-.29,9.38,9.38,0,0,0,4.63-4.89.77.77,0,0,0,.06-.42c-.05-.28-.33-.46-.59-.6a21.59,21.59,0,0,0-3.09-1.42" transform="translate(-5.94 -2.64)"/><path d="M9.91,225.32a3.35,3.35,0,0,0-.13,1.18,1,1,0,0,0,.63.82c.78.24,4-1.17,4.08-1.88h-4.4" transform="translate(-5.94 -2.64)"/><path d="M24.18,224.48a11.46,11.46,0,0,0,3.88,1.65.86.86,0,0,0,.65-.08.81.81,0,0,0,.23-.39,3.53,3.53,0,0,0,.18-1.48.41.41,0,0,0-.1-.27.39.39,0,0,0-.24,0,17,17,0,0,0-5,.61" transform="translate(-5.94 -2.64)"/><path class="cls-4" d="M143.56,285.39c1.09,0,2.19,0,3.29,0a1.18,1.18,0,0,0,.83-.25,1.16,1.16,0,0,0,.19-.9,97.72,97.72,0,0,0-6.7-29.92c-1.35-3.41-2.93-6.93-2.53-10.57.36-3.27,2.26-6.12,3.92-9a72.13,72.13,0,0,0,7-16.25c2.7,21.81,2.88,43.84,3.05,65.81l3.68.36a1.62,1.62,0,0,0,1.23-.21,1.58,1.58,0,0,0,.43-1l1.65-9.67c1.19-6.94,2.38-13.9,2.53-20.94.07-3.18-.07-6.36,0-9.53s.51-6.51.9-9.75.78-6.54,1.41-9.77c1.31-6.64,3.63-13.27,2.85-20a114.11,114.11,0,0,1-25.45,1.26,3.75,3.75,0,0,0-2.08.25,3.6,3.6,0,0,0-1.33,1.62c-4.17,7.86-6.32,16.62-8.15,25.33a55.73,55.73,0,0,0-1.44,10.11c-.11,5,13.42,37.55,14.7,43" transform="translate(-5.94 -2.64)"/><path class="cls-2" d="M140.64,163.27c-6.12-1.18-3,37.8-4.35,44.21,5.92-1.46,4.14-24,4.16-29.91-.65,7,.81,14.1.55,21.06-.42,1.91-1.6,3.9-.78,5.68,5.95-1.48,12.25.59,18.38-.09,6.21,1,8.17.87,8.82-6.05,2.14-2.32-6.21-15.65-6.74-22.13,3.46,6.94,4.7,16.1,10.31,18.92,6-2.35.7-10.4,1.24-15.05.11-5.3-1.44-10.9-5.95-14.11-1.82-1.71-4.1-1-6.2-.24-6.5.67-13.11-1.39-19.61-1.88" transform="translate(-5.94 -2.64)"/><path class="cls-1" d="M149.68,139c-2.83,0-5.22,2.18-6.34,5s-.84,6-.78,9-.17,6.29-2.06,8.66a1.09,1.09,0,0,0-.32.65c0,.39.47.59.84.7a62.44,62.44,0,0,0,21.49,2.42,1.33,1.33,0,0,0,.71-.19,1.26,1.26,0,0,0,.32-1.12c-.38-4.33-4.33-7.61-5.11-11.88-.63-3.39.74-7.28-1.25-10.1-1.61-2.29-4.73-2.8-7.5-3.12" transform="translate(-5.94 -2.64)"/><path class="cls-3" d="M155.2,143a11.44,11.44,0,0,0-4.74-.76,5.28,5.28,0,0,0-4.67,2.65,7.69,7.69,0,0,0-.45,3.54,24.1,24.1,0,0,0,.49,4.73,8,8,0,0,0,1.85,3.74,4.51,4.51,0,0,0,3.79,1.46c1.86-.27,3.22-1.91,4.06-3.6a13,13,0,0,0,.81-10.37Z" transform="translate(-5.94 -2.64)"/><path class="cls-3" d="M160.65,175.34a16.5,16.5,0,0,1,0-3.37,5.51,5.51,0,0,1,1.32-3.05c.87-.95,2.2-1.49,2.84-2.61.92.58-.37,1.37-.41,2.08a7.6,7.6,0,0,1,2.89-2.63.87.87,0,0,1,.74,0,1.28,1.28,0,0,0,.77,0c.41.51,1,1,.87,1.59.18,0,.18.2.33.3q-1.72,1.48-3.56,2.83c-1.13.83-2.42,1.85-2.38,3.25,0,.31.07.67-.14.89a.87.87,0,0,1-.35.2,6.19,6.19,0,0,1-3,.27" transform="translate(-5.94 -2.64)"/><path class="cls-3" d="M137.69,207.63a3.06,3.06,0,0,0-1.89,2.08,8.87,8.87,0,0,0-.27,2.91,8.57,8.57,0,0,0,2.28-4.42" transform="translate(-5.94 -2.64)"/><path d="M143.19,286.49a41.3,41.3,0,0,1-7.92,4.37,5.84,5.84,0,0,0-1.56.83,1.55,1.55,0,0,0,.53,2.81,5.35,5.35,0,0,0,1.79.17l6.35-.14a14.38,14.38,0,0,0,2.27-.18,6.69,6.69,0,0,0,3.45-1.86,1.41,1.41,0,0,0,.33-.44,1.68,1.68,0,0,0,.07-.59l0-4.79a35.16,35.16,0,0,1-5.13-.19" transform="translate(-5.94 -2.64)"/><path d="M152.63,285.17v7.41a1,1,0,0,0,.11.56,1,1,0,0,0,.56.32,37.64,37.64,0,0,0,7.28,1.42c1.19.12,2.68,0,3.17-1.09s-.34-2.19-1.1-3.05l-3.91-4.41a3.08,3.08,0,0,0-1.34-1,3.36,3.36,0,0,0-1-.06l-3.49.14" transform="translate(-5.94 -2.64)"/><path class="cls-4" d="M209.81,132.12l17.1-.86a6.67,6.67,0,0,1,3.47.46,6.52,6.52,0,0,1,2.32,2.71A43.36,43.36,0,0,1,237.58,145c1.47,5.64.66,11.59.17,17.41a153.13,153.13,0,0,0,.06,26.4c-5.79-1.24-11.48,2.62-17.4,2.79-6.71.19-13.07-4.39-19.72-3.42-1.06-2.65.33-5.57.93-8.36.65-3,.39-6.07.41-9.12.05-6.25,1.32-12.42,2.58-18.54l4.13-20" transform="translate(-5.94 -2.64)"/><path class="cls-3" d="M204.44,188.92A230.77,230.77,0,0,1,207.32,225a1.55,1.55,0,0,0,.29,1.11,1.14,1.14,0,0,0,.58.26,6.26,6.26,0,0,0,3.72-.4c2.45-10.71,4.91-21.73,3.7-32.7a1.37,1.37,0,0,0-.23-.73,1.13,1.13,0,0,0-.48-.26l-10-3.39" transform="translate(-5.94 -2.64)"/><path class="cls-3" d="M218.6,193.4q.53,16.28,1.6,32.5a9.74,9.74,0,0,0,5-.08c.22-5,2-9.83,3.2-14.7a68,68,0,0,0,1.91-20.21l-11.47,1.68" transform="translate(-5.94 -2.64)"/><path class="cls-2" d="M207,226.85a98.32,98.32,0,0,0-8.76,5.94,4,4,0,0,0-1.14,1.15,1.41,1.41,0,0,0,0,1.53c.45.6,1.35.55,2.08.42a74.4,74.4,0,0,0,9.76-2.31c1.41-.44,2.91-1,3.68-2.26a6.43,6.43,0,0,0,.48-3.87c0-.32-.09-.7-.39-.83a.89.89,0,0,0-.46,0l-4.65.49" transform="translate(-5.94 -2.64)"/><path class="cls-2" d="M220.34,227.34a9.63,9.63,0,0,0-.23,2.83,3.36,3.36,0,0,0,1.28,2.44,5,5,0,0,0,2.82.64l11.43.33a3,3,0,0,0-.61-2.76,7,7,0,0,0-2.37-1.72,21.4,21.4,0,0,0-11.8-2.15" transform="translate(-5.94 -2.64)"/><path class="cls-1" d="M209.28,130.57a49.05,49.05,0,0,1,1.57-25.29,5.39,5.39,0,0,1-1.37,1.56l-5.54-2.41a15.37,15.37,0,0,1,8.91-6.73,1.55,1.55,0,0,1,1.1,0,2,2,0,0,1,.72,1,5.58,5.58,0,0,0,5.7,2.51,11.43,11.43,0,0,0,5.79-3,4,4,0,0,1,1.31-.89,3.25,3.25,0,0,1,1.64,0,12.33,12.33,0,0,1,9.66,12.29l-6.39.07a1.6,1.6,0,0,0-1.3.41,1.64,1.64,0,0,0-.19,1.14c.54,6.36.83,13.75,1.37,20.12-7.74-1.38-15.49.44-23.15-.14" transform="translate(-5.94 -2.64)"/><path class="cls-3" d="M203.69,105.51c-2,5.69-9.82,19.2.21,20.68,8.47.16,18.86,1,26.11-3.85.75-1,.9-2.51,1.9-3.33.59-.48,1.78-1.08,1.73-1.59-.52-.53.32-.64,0-1.11-.84-.4-.18-.24,0-.72.3-1-.75-.5-1.75-.11.67-.66,1.66-.33,1.5-1-2.12-.51-5.59.72-6.25,2.84-.16.61-.14,1.36-.64,1.74-6.1.36-12.57-.5-18.73-.91-1.72-.49-3.13-1.55-4.88-1.92-.8-.17-1-1.17.12-4.67,2.32-1.76,5.38,2.65,5.44,0,.11-4.76,5.36-2.31-4.54-6.75" transform="translate(-5.94 -2.64)"/><path class="cls-3" d="M231.43,109.87l6.36-.1a1.53,1.53,0,0,1,1.34.42,1.42,1.42,0,0,1,.17.89,27.14,27.14,0,0,1-4.93,14.19,6.72,6.72,0,0,1-1.67,1.85,4.39,4.39,0,0,1-2.42.68,11.14,11.14,0,0,1-2-.23,40.33,40.33,0,0,1-6.7-1.69,26.27,26.27,0,0,0,6.63-2.1c.48-.25.9-.25,1.27-.62,1-1,1.31-2.3,2.27-3.37a18,18,0,0,0,1.83-1.77,3.56,3.56,0,0,0,0-2.43c-.31-.41.31-.51,0-.94s-1.37-.5-1.92-.47-.18-.08-.68.14c-.11-1.63.45-3,.39-4.45" transform="translate(-5.94 -2.64)"/><path class="cls-3" d="M208.43,113c-.61-.27-3.52-1.63-4.1-1.55s-1.49,0-1.27,1.66c.06.44-.3.35-.05.72.13.2-.56.73-.22.94s-.38,1-.11,1c.54.18,3.74,1.45,4.25,1.72,1,.51,2,0,3.16.22a62.94,62.94,0,0,0,15.92,1c.49,0,.22-.54.61-.83-3.37,0-7.67.35-10.85-.76-2.47-.86-4.36-1.18-5.91-2.78Z" transform="translate(-5.94 -2.64)"/><path class="cls-3" d="M226.54,96.81a10.6,10.6,0,0,1-6.83,3.33,5.46,5.46,0,0,1-2.54-.32,3.73,3.73,0,0,1-2.08-2.39.45.45,0,0,1,0-.23.53.53,0,0,1,.21-.28,3.59,3.59,0,0,0,1.57-2.31,4.22,4.22,0,0,0-.83-2.15,11.73,11.73,0,0,1-1.49-7.18,6.93,6.93,0,0,1,.83-2.75,3.71,3.71,0,0,1,2.19-1.74,6,6,0,0,1,1.27-.13,7.62,7.62,0,0,1,4.67.92,5.14,5.14,0,0,1,1.95,3.61,12.17,12.17,0,0,1-.38,4.2,9.7,9.7,0,0,1-1.85,4.25,4.13,4.13,0,0,1-4.44.83c1.2.33,2.21,1,4.09.06.37-.18.7.24,1.08.38a2.39,2.39,0,0,1,.95.87A4.6,4.6,0,0,0,226.37,97" transform="translate(-5.94 -2.64)"/><path d="M213.79,89.73c-1.35-.25-3.13-1.12-3.06-2.7-.55-1.67-1.75-2.93-.51-4.52-.17-1.48-1.31-4.23,1.13-4.43,0-1.54.27-2.8,1.92-2.94.94-.41,1.29-1.7,2.26-2,.9-.11.8-1.61,1.73-1.69,2.14,0,5.06-2.16,6.79-.1.74-.51,2-.92,2.58,0,1-.29,2.83-.1,2.71,1.31.8,0,1.91.15,2.1,1.07a1.71,1.71,0,0,1,1.56,2,25.63,25.63,0,0,1,2.17,5,1.69,1.69,0,0,1-.14,1.57c-.31.94.69,2,.36,2.9-1,1.11-.57,2.67-1.13,3.92-1.11,1.19-2.47,2.22-4.11,1.81-1.47,1.32-3.55.68-5.33,1.25.94-3.18,1.74-6.86.2-10.17-6.06-5.55-13.23-.06-10.86,7.57" transform="translate(-5.94 -2.64)"/><path class="cls-4" d="M254.23,143.33c-.41,8.41-2.33,16.67-3.2,25-.56,5.42-.68,10.87-.8,16.31l-.21,9.81-.66,29.87a1.88,1.88,0,0,0,.23,1.13,1.68,1.68,0,0,0,.85.51,23.68,23.68,0,0,0,7.12,1.34,122.57,122.57,0,0,0,3.79-15.65c1.15-7.55.9-15.22.82-22.85a30.38,30.38,0,0,1,.32-5.8,39.46,39.46,0,0,1,1.6-5.41,79.08,79.08,0,0,0,4-22.13c-.45,23.56,1.94,47.07,4.33,70.51a40.77,40.77,0,0,0,8.41.26,1.28,1.28,0,0,0,.84-.29,1.25,1.25,0,0,0,.23-.85q.57-30.19.7-60.4a167.28,167.28,0,0,0-.83-21.24,1.7,1.7,0,0,0-.24-.77,1.62,1.62,0,0,0-1-.49,19.82,19.82,0,0,0-4.25-.62,30.7,30.7,0,0,0-6.54,1.19c-5.13,1.1-10.45.75-15.69.39" transform="translate(-5.94 -2.64)"/><path class="cls-1" d="M262.94,85.9a6.36,6.36,0,0,0,9.37.45,2.89,2.89,0,0,1,1.06-.91,2.2,2.2,0,0,1,.85-.07c6.25.32,11.62,5,14.53,10.55s3.83,11.9,4.7,18.11l-6.26,1.53a4.59,4.59,0,0,1-3.46-.08c-.37-.23-.82-.58-1.19-.35a1,1,0,0,0-.31.82q-.53,12.93-.13,25.89c-2.84-1.57-6.34-.46-9.49.33a44.38,44.38,0,0,1-17.33.82,1.61,1.61,0,0,1-1.21-.59,1.67,1.67,0,0,1-.12-.86,136.38,136.38,0,0,0-1.39-25.46.79.79,0,0,0-.16-.45.81.81,0,0,0-.61-.2L244.3,115a75.83,75.83,0,0,1,6-22.26,9.69,9.69,0,0,1,2.62-3.92,10.11,10.11,0,0,1,3.29-1.49l6-1.92" transform="translate(-5.94 -2.64)"/><path class="cls-3" d="M245.6,115.79l-.89,4.6a1.88,1.88,0,0,1-.38,1,2,2,0,0,1-.75.47L224.43,130a9.11,9.11,0,0,1-5,1.08c-1-.17-2.49-.46-2.78.54.81.07.92,1.31.41,1.95s-1.31,1-1.78,1.66c-1.08,1.56.57,3.86,2.47,4s3.59-1.13,4.88-2.52a6.27,6.27,0,0,1,1.65-1.48,5.61,5.61,0,0,1,2-.45,65.66,65.66,0,0,0,19.35-5.24,8.13,8.13,0,0,0,2.27-1.35,7.81,7.81,0,0,0,1.69-2.7,37.83,37.83,0,0,0,2.65-9.33l-6.5,0" transform="translate(-5.94 -2.64)"/><path class="cls-3" d="M262.63,85.57a4.71,4.71,0,0,0,3.61,2.82A10.91,10.91,0,0,0,271,88a1.8,1.8,0,0,0,1.13-.63,2,2,0,0,0,.21-1c0-3.77.17-7.53.39-11.29a1.48,1.48,0,0,1,.22-.83,1.82,1.82,0,0,1,.75-.49,2.21,2.21,0,0,0,1.33-2.3c-.22-.92-1.74-1.3-2.14-.44l-.1-5.67c0-.91-.15-2-1-2.39s-1.71.17-2.53.54a6.21,6.21,0,0,1-6.09-.63c-.46-.34-1.17-.72-1.52-.27a.89.89,0,0,0-.15.33A29.11,29.11,0,0,0,260.45,75a5.25,5.25,0,0,0,1.49,3.53,4.87,4.87,0,0,0,4,.62,15.38,15.38,0,0,0,4.23-1.41,10.43,10.43,0,0,1-5.77,2.53,1.79,1.79,0,0,0-1.16.37,1.63,1.63,0,0,0-.33,1.21l0,3.54" transform="translate(-5.94 -2.64)"/><path d="M262.33,61.32a2,2,0,0,1,1.13-2.23,5.73,5.73,0,0,1,2.67-.4l4.38,0c1.53,0,3.23.09,4.34,1.15a5.48,5.48,0,0,1,1.26,4,23.41,23.41,0,0,1-.16,3c-.16,1.38-.62,3-1.92,3.44a.45.45,0,0,1-.39,0c-.15-.09-.15-.3-.15-.47a17.23,17.23,0,0,0-.75-5.57,2.2,2.2,0,0,0-1.11-1.54c-1-.36-1.87.66-2.86,1a3.85,3.85,0,0,1-1.39.13,8.25,8.25,0,0,1-2.89-.5,3.65,3.65,0,0,1-2.07-2" transform="translate(-5.94 -2.64)"/><path class="cls-3" d="M278.29,84.27l0,2.46c1.39.43,3.17.75,4.08-.39a7.12,7.12,0,0,0,.78-2.53,3.94,3.94,0,0,1,2.66-2.63,4.13,4.13,0,0,0,1-.33,2.26,2.26,0,0,0,.8-2.17,1.55,1.55,0,0,0-.3-.94.62.62,0,0,0-.89,0,1.78,1.78,0,0,0-.8-1.93c-.61-.44-1.34-.67-2-1.08a5.53,5.53,0,0,1-2-2.62c-.28-.69-.55-1.51-1.25-1.78a1.94,1.94,0,0,0-1.8.46,6.25,6.25,0,0,0-2.15,4,18.71,18.71,0,0,0,0,4.61,5.56,5.56,0,0,0,.57,2.42,2.87,2.87,0,0,0,3.58,1.09l-2.2,1.25" transform="translate(-5.94 -2.64)"/><path class="cls-2" d="M265.81,129.59c0,.65-.06,1.46-.66,1.72a1.7,1.7,0,0,1-.67.09l-5,0a2.77,2.77,0,0,1,3.39-1.7c.43.15.82.4,1.26.53a1.22,1.22,0,0,0,1.26-.27" transform="translate(-5.94 -2.64)"/><path class="cls-2" d="M270.05,130.27c-.71.82-1.4,1.67-2.06,2.54-.12.16-.25.37-.14.54a.48.48,0,0,0,.43.17,10.66,10.66,0,0,0,4.85-1,.74.74,0,0,0,.44-.37c.16-.37-.26-.79-.12-1.17a4.15,4.15,0,0,1-3.51-.91" transform="translate(-5.94 -2.64)"/><path class="cls-3" d="M263.12,118l-.13,9.89a.64.64,0,0,0,.09.41.61.61,0,0,0,.46.15c.73,0,1.59,0,2-.61a2.18,2.18,0,0,0,.31-1c.32-2.1.61-4.2.89-6.31a.77.77,0,0,0-.06-.52.81.81,0,0,0-.3-.21l-2.9-1.43" transform="translate(-5.94 -2.64)"/><path class="cls-3" d="M269,120.27a30.51,30.51,0,0,0,.8,7.44c.19.93.48,2,1.19,2.29s1.25-.16,1.77.23q.3-4.63.19-9.29a.72.72,0,0,0-.08-.39.39.39,0,0,0-.34-.12l-3.31,0" transform="translate(-5.94 -2.64)"/><path class="cls-4" d="M262.7,117.61a9.47,9.47,0,0,0,3.43,1.89q.15-4.83.78-9.63a86.48,86.48,0,0,0,1.81,10.37h3.72a22,22,0,0,0,.21-4.73l6.36-.07a6.68,6.68,0,0,0,3.35-.63c1.5-.89,1.23-3.64,1.65-5.34-5.33.47-10-2-11.9-7-.12-.29-.24-.62-.52-.75a1.26,1.26,0,0,0-.77,0L265.15,103a4.25,4.25,0,0,0-1.77.68,4,4,0,0,0-1.21,2.57,32.69,32.69,0,0,0-.15,10.9" transform="translate(-5.94 -2.64)"/><path class="cls-2" d="M272,100.53a8.32,8.32,0,0,0,4.34,6.66,18.84,18.84,0,0,0,8,2.13A116.65,116.65,0,0,0,287.91,91a9.29,9.29,0,0,0-.51-4.83c-.71-1.48-2.41-2.61-4-2.13a3.71,3.71,0,0,1-1.29,2.76,2.91,2.91,0,0,1-2.52.67A2.05,2.05,0,0,1,278,85.49c0-.61.34-1.25.07-1.8a1.9,1.9,0,0,0-1.12-.75,5.68,5.68,0,0,0-3.13-.45,2,2,0,0,0-1.56,2.36,1.5,1.5,0,0,1,2.07.69,4.35,4.35,0,0,1,.25,2.43c-.38,4.24-.8,8.61-2.74,12.4" transform="translate(-5.94 -2.64)"/><path class="cls-3" d="M265.87,111.89a7.38,7.38,0,0,1-3.18-4.25c-.52-.33-1,.55-1,1.17l-.06,2.73a2.71,2.71,0,0,0,.15,1.2,2.76,2.76,0,0,0,1,1.05A61.71,61.71,0,0,0,289.34,124a.86.86,0,0,0,1.16-1q.11-3.22.08-6.43c0-.33-.05-.73-.34-.86a.9.9,0,0,0-.54,0c-6.16,1.11-12.49.08-18.67-.94a3.91,3.91,0,0,1-1.74-.58,4.81,4.81,0,0,1-1.24-2,10.09,10.09,0,0,0-2.68-3.56.69.69,0,0,0-.54-.22c-.33.07-.36.53-.29.86a7.32,7.32,0,0,0,1,2.42" transform="translate(-5.94 -2.64)"/><path class="cls-3" d="M279.78,90.59a12.78,12.78,0,0,1,2.64,2.17c.15.16.31.38.24.59a.63.63,0,0,1-.41.33,28.18,28.18,0,0,1-7.65,2.38c-2.66.29-4.27-.51-6.43-1.5-.51-.24-1.85-1.42-2.33-1.73a9.8,9.8,0,0,0-2.4-.79,2.43,2.43,0,0,1-1.82-1.61l1.63,0a1.56,1.56,0,0,0-1.64-1.14,2,2,0,0,1,2.47.09c.73.52,1.27,1.28,2,1.75a6.7,6.7,0,0,0,2.57.75l5.06.77a6.51,6.51,0,0,0,3.64-.14,6.38,6.38,0,0,0,2.17-1.94" transform="translate(-5.94 -2.64)"/><path class="cls-3" d="M261.72,83.63c-.24.35.33.88.08,1.23a.67.67,0,0,1-.31.2l-1.44.55a5.61,5.61,0,0,1-.92,3.4,4.73,4.73,0,0,0,.23-1.94,3.4,3.4,0,0,0-2.22,2.6,3.66,3.66,0,0,1-.06-3.74c.66-1.13,3.34-2.37,4.64-2.3" transform="translate(-5.94 -2.64)"/><path d="M277.62,71.15A11.55,11.55,0,0,1,280,68.63a4,4,0,0,1,3.28-.73c.32.09.72.22.93,0a1,1,0,0,0,.13-.51,1.55,1.55,0,0,1,1.57-1.3,3,3,0,0,1,1-1.69.84.84,0,0,1,.51,1l1.76-1.68a1.77,1.77,0,0,1,.47,1.07.83.83,0,0,1,1.39.66,2.15,2.15,0,0,1,1-.49.75.75,0,0,1,.86.48c.07.27-.07.59.1.82s.68.17.88.44-.26.81-.22,1.25c0,.27.25.47.35.72a1.59,1.59,0,0,1,0,.84l-.36,2.37a.61.61,0,0,1-.2.45c-.16.1-.37,0-.55.08-.71.14-.45,1.41-1.09,1.75s-1.21-.21-1.58.2a1,1,0,0,0-.19.6,7.94,7.94,0,0,1-1.71,4.19,1.7,1.7,0,0,0-.59-1.49,3.87,3.87,0,0,1-.59-.48c-.47-.55-.22-1.49-.72-2s-1.31-.32-2-.49c-1.68-.44-1.85-2.85-3.16-4a2.68,2.68,0,0,0-3.73.39" transform="translate(-5.94 -2.64)"/><line class="cls-5" x1="278.51" y1="71.97" x2="278.01" y2="69.65"/><line class="cls-5" x1="279.91" y1="72.67" x2="279.41" y2="70.19"/><path d="M250.25,227.06c1.91.43,3.85.78,5.8,1a43.1,43.1,0,0,1-.14,5.08,24.32,24.32,0,0,1-3.72.14l-11.25-.16a5.35,5.35,0,0,1-1.87-.25c-.32-.13-.66-.38-.67-.73s.45-.7.84-.87q5-2.21,10.21-4.09" transform="translate(-5.94 -2.64)"/><path d="M274.46,226.81q2.93.33,5.87.38a41,41,0,0,1,.43,5.06,24.21,24.21,0,0,1-3.68.55l-11.2,1.09a5.21,5.21,0,0,1-1.89,0c-.34-.09-.7-.3-.74-.65s.36-.74.73-.95q4.77-2.76,9.7-5.2" transform="translate(-5.94 -2.64)"/><path class="cls-3" d="M98.15,68.77c-2.18,1-3,3.68-3.27,6.06A34.58,34.58,0,0,0,94.62,80a5.22,5.22,0,0,0,.6,2.67c.27.44.67.8,1,1.23,1.07,1.63.39,3.79.5,5.73a3.22,3.22,0,0,0,.7,2,2.67,2.67,0,0,0,2.52.7A5.3,5.3,0,0,0,102.27,91a11.19,11.19,0,0,0,3.69-6.6,3.81,3.81,0,0,1-2.88,2,11.15,11.15,0,0,1-3.64-.16c4.7.41,6.57-2.09,7.87-5.06A2,2,0,0,0,109.25,80a5.78,5.78,0,0,0,.41-2.41,1,1,0,0,0-.07-.52c-.3-.57-1.16-.16-1.62.29a2.49,2.49,0,0,0-1.06-2.7,13.89,13.89,0,0,0-2.81-1.32,10.17,10.17,0,0,1-4-3.28c-.51-.71-1.1-1.58-2-1.57" transform="translate(-5.94 -2.64)"/><path class="cls-1" d="M85.22,134.59A3.05,3.05,0,0,1,81.49,131l-.27-16.15c-.08-4.8-.15-9.69,1.19-14.3,1-3.32,2.66-6.47,3-9.92l.47,6.05a21.91,21.91,0,0,1,.09,3.71,25,25,0,0,0-.39,4.55,26.43,26.43,0,0,0,1.14,4,22.19,22.19,0,0,1,.25,7.63c-.5,6-1,12-1.88,17.9" transform="translate(-5.94 -2.64)"/><path class="cls-1" d="M117.41,89.75c-2.6,7.81-4.28,16-3.81,24.24.4,7,2.33,13.75,4.24,20.47a2.15,2.15,0,0,0,.31.73,2.11,2.11,0,0,0,1.37.69c1.52.29,3.37.17,4.25-1.11a4.89,4.89,0,0,0,.57-2.81v-17.5a38.41,38.41,0,0,0-.26-5.37,38,38,0,0,0-1.78-6.67l-1.73-5.17A46.73,46.73,0,0,0,117.69,90" transform="translate(-5.94 -2.64)"/><path class="cls-2" d="M121.17,198.92c-11.66-.2-23.47,4.86-34.72,1.79.69-13.59,1.39-27.23.36-40.81-.32-4.31-.82-8.61-.92-12.94-.2-8.65,1.22-17.25,1.49-25.9.32-9.89-1-13.77-1.08-29.67a3.94,3.94,0,0,1,.17-1.49,3.44,3.44,0,0,1,1.24-1.33,18.09,18.09,0,0,1,8.65-3.29c.67,2.16-.3,4.93,1.34,6.48s4.45.32,5.72-1.53,1.74-4.19,3.1-6a14.82,14.82,0,0,1,7.57,2.43,4.09,4.09,0,0,1,2,2.46,4.89,4.89,0,0,1-.26,2.1,77.58,77.58,0,0,0-1.68,33.14c1.47,8.8,4.45,17.29,5.88,26.09.48,2.89.75,6-.6,8.62l1.76-.82a179.08,179.08,0,0,1-.26,29.11c-.35,3.85-.8,7.88.63,11.47" transform="translate(-5.94 -2.64)"/><path class="cls-3" d="M84.89,135l-3-.17q.06,6.33,0,12.66a14.65,14.65,0,0,1-.26,3.31,29.22,29.22,0,0,1-1.2,3.28c-.92,2.53-1,5.56.57,7.7l.55-1.09c.06-.11.14-.24.26-.23s.09.27,0,.2a18.8,18.8,0,0,1,1.46-6.48l.52.87c.62-.35.59-1.24.51-1.95-.67-6,1.41-12.1.74-18.13" transform="translate(-5.94 -2.64)"/><path class="cls-3" d="M117.88,135.74c1.94,7.45,3.9,15.12,3,22.77l1.27-1.27.15,4.5a2.6,2.6,0,0,0,2.1-1.69,7.54,7.54,0,0,0,.39-2.8,189.86,189.86,0,0,0-1.07-21.72l-5.27.37" transform="translate(-5.94 -2.64)"/><path class="cls-3" d="M88.88,201.86l1.67,17a1.39,1.39,0,0,1-.18,1,1.23,1.23,0,0,1-.48.32l-4.78,2.22a9.91,9.91,0,0,0,7.93.42,1.6,1.6,0,0,0,.73-.46,1.84,1.84,0,0,0,.24-.51,139.65,139.65,0,0,0,5.1-19.8,49.12,49.12,0,0,1-10.21-.5" transform="translate(-5.94 -2.64)"/><path class="cls-3" d="M110.06,200.33a59.49,59.49,0,0,0,1.36,13.5,20.84,20.84,0,0,1,.74,4.81,5.78,5.78,0,0,1-1.78,4.38,6.51,6.51,0,0,0,5.47-.92,2.85,2.85,0,0,0,1-1.14,4,4,0,0,0,.25-1.39c.44-6.78,3-13.36,2.81-20.15a27.72,27.72,0,0,0-9.72.92" transform="translate(-5.94 -2.64)"/><path d="M94,73.35a9.51,9.51,0,0,1-.42-6.82c.14-.41.45-.91.88-.8.16,0,.29.18.46.19s.38-.17.52-.34L96.65,64c.43.37.35-.79.85-1s1.82-.78,1.94-.22c.77-.76,1.49-.37,2.57-.44.53,0,1.42-.35,1.77,0a8.92,8.92,0,0,0,.88.58c.43.34,1.06-.19,1.39.25s1.69.13,1.79.47c.19.61.52,1.26,1.14,1.11s1.29-.21,1.63.33a5.24,5.24,0,0,0,.55.91c.27.33,1,0,1.19.33.12.19.51,1.71.61,1.91.38.78,1.07.47,1.74,1s-.15,1.52.14,2.33.89,1.27.83,2.12a19.69,19.69,0,0,1-1.09,2.67,4,4,0,0,0,.21,1.92,1.68,1.68,0,0,1-.43,1.78c-.24.16-.55.21-.79.39-.59.45-.37,1.4-.66,2.09a2.89,2.89,0,0,1-2,1.33c-1.1.33-2.53.56-3.2-.37a.8.8,0,0,1-.13-.82,1.32,1.32,0,0,1,.4-.38,6.1,6.1,0,0,0,2.54-5,1.22,1.22,0,0,0-.51-1.12,2.15,2.15,0,0,0-.88-.05,3.47,3.47,0,0,1-1.7-.66c-2.6-1.58-5.28-3.25-6.89-5.82-.44-.71-.87-1.55-1.68-1.76-1-.26-1.92.59-2.59,1.39-.94,1.12-1.9,2.5-1.58,3.93Z" transform="translate(-5.94 -2.64)"/><path d="M84.68,222.88a15.57,15.57,0,0,0-3,1.72l12-.1a5,5,0,0,1,.24-1.89,8,8,0,0,1-4.66,1.2,23.94,23.94,0,0,1-4.83-.76" transform="translate(-5.94 -2.64)"/><path d="M109.56,223.41a2.11,2.11,0,0,0-1.34,1.33,53,53,0,0,0,8-.41.53.53,0,0,0,.39-.16.56.56,0,0,0,.1-.29l.3-2.45a6.56,6.56,0,0,1-6.2,2.16,10.63,10.63,0,0,0-1.55-.31" transform="translate(-5.94 -2.64)"/><path class="cls-3" d="M42,113.24a1.14,1.14,0,0,0,1.33-.15,2.54,2.54,0,0,0,.72-1.21,2.27,2.27,0,0,0,0-1.62,1,1,0,0,0-1.36-.49,15.84,15.84,0,0,0,0-4.24A5.41,5.41,0,0,0,40.62,102a6.66,6.66,0,0,0-4.55-.74,5,5,0,0,0-3.31,1.39,4.74,4.74,0,0,0-.92,2,13.89,13.89,0,0,0-.37,4.63,2,2,0,0,0-1.53,1,1.24,1.24,0,0,0,.54,1.63c.22.1.5.13.66.32a1,1,0,0,1,.11.56,5.24,5.24,0,0,0,1,3.48,4.47,4.47,0,0,0,4.15,1.21,13.58,13.58,0,0,0,4.13-1.77c-1.64,2.21-4.49,2.81-7.18,2.25-.15,1.78.31,4,.31,5.74,0,.66-.65,1.47-.48,2.11a3.83,3.83,0,0,0,7.39,0c.17-.6-.43-1.45-.42-2.07a26.4,26.4,0,0,1,.76-6.91" transform="translate(-5.94 -2.64)"/><path class="cls-1" d="M32.73,123.91c-1.57.79-3.44.94-4.89,1.94a9.72,9.72,0,0,0-2.07,2.22l-8,10.68c2.08,1.17,3.69,4.42,5.76,5.59,1-.84,2.86-3.53,3.83-4.37.15-.12,1-.9,1-1.16-.51-2.05-1.18-4.64,0-6.37a13.91,13.91,0,0,0,.54,6.13c.33.81.81,1.55,1.13,2.37a12.16,12.16,0,0,1,.57,4.33q0,4.74-.21,9.48a.92.92,0,0,0,.12.65,1,1,0,0,0,.77.26q6.82.15,13.64,0a.89.89,0,0,0,.65-.2.77.77,0,0,0,.17-.51,29.35,29.35,0,0,0-.19-5.38,79.74,79.74,0,0,1,.29-16.42A25.41,25.41,0,0,1,46,137.4L45.9,147c2.21,0,4.42,0,6.62,0a.89.89,0,0,0,.56-.15.8.8,0,0,0,.22-.56,15.51,15.51,0,0,0-.23-3.66,81.64,81.64,0,0,0-2-9.53A18.78,18.78,0,0,0,47.83,126c-1.65-2-4.27-3.42-6.83-3a.64.64,0,0,0-.35.14c-.17.17-.1.46,0,.7A4,4,0,0,1,37,128.65,4,4,0,0,1,33.12,124" transform="translate(-5.94 -2.64)"/><path class="cls-2" d="M29.25,156.16c-4.27,7.24-5.77,15.81-6,24.22s.84,16.78,1.24,25.17c.76,15.67-.65,31.43,1.12,47a2,2,0,0,0,.39,1.17,2,2,0,0,0,.94.49c1.41.42,3.29.68,4-.6a3.42,3.42,0,0,0,.31-1.06A188.85,188.85,0,0,0,34,225c.13-5.45,0-10.92.58-16.34.29-2.71.74-5.41,1-8.12.78-7.9,0-15.89,1-23.77,3.19,25.67-.06,52,5.44,77.31l5,.37a2.06,2.06,0,0,0,1.08-.11c.66-.34.75-1.21.76-1.95q.38-36.36.76-72.72c.08-7.12.11-14.49-2.75-21-.19-.44-.62-2-1-2.23s-1.43,0-1.92,0c-5.06-.39-9.43.14-14.51.17" transform="translate(-5.94 -2.64)"/><path class="cls-3" d="M16.46,140.53C13.29,144.36,8,152.09,7.74,153c-.63,2.18.51,5,2.13,6.59,5.23,5.17,9.49,9.89,15.69,13.86,1.23-1.31,1-4.2.88-6-6-2.31-8.16-6.19-11.55-11.68A1.62,1.62,0,0,1,15,153.5l5.91-8.75a2.06,2.06,0,0,0,.49-1.27,2,2,0,0,0-.52-1,22,22,0,0,0-3.1-3.15" transform="translate(-5.94 -2.64)"/><path class="cls-3" d="M46.57,147.39q3-.12,6-.11a97.5,97.5,0,0,1,1.28,14.37c0,1.14,0,2.28.13,3.42.17,1.67.19,10.35.76,13a15.77,15.77,0,0,1,.56,2.61c.06,1.46-.87,4.77-2.15,5.6.07-1.72-.17-5.3-1-6.84a4.05,4.05,0,0,1-.94,2.59c-.25-2.75,0-6.24-.16-9a55.89,55.89,0,0,0-.73-5.61,132,132,0,0,0-4.24-19.65" transform="translate(-5.94 -2.64)"/><path class="cls-3" d="M26.51,254.94a22.84,22.84,0,0,1,.24,5.35.6.6,0,0,1-.11.37.66.66,0,0,1-.28.17l-4,1.56c0,.17.2.26.38.26l5.44.17a1,1,0,0,0,.72-.17.89.89,0,0,0,.21-.33,9.29,9.29,0,0,0,.71-3.24c0-1.37.3-2.54.32-4.06,0-.1.09-.2.06-.3s-.31-.21-.5-.19l-3,.26" transform="translate(-5.94 -2.64)"/><path class="cls-3" d="M43.54,254.63l.2,4.72a1.9,1.9,0,0,1-.06.63,1.71,1.71,0,0,1-.37.51l-1.73,1.84a.29.29,0,0,0-.11.19.27.27,0,0,0,.1.18,1.71,1.71,0,0,0,1.52.15l3.07-.7a.7.7,0,0,0,.71-.77l.23-6.52-3.73-.06" transform="translate(-5.94 -2.64)"/><path d="M22.22,263a12.13,12.13,0,0,0-4.75,1.35,91.11,91.11,0,0,0,12,.11.63.63,0,0,0,.58-.24,1.06,1.06,0,0,0,.09-.51l.08-2a2.29,2.29,0,0,1-1.85,1.14,25.48,25.48,0,0,1-6.4.36" transform="translate(-5.94 -2.64)"/><path d="M47.41,261.75c0,.61,0,1.22,0,1.83a.84.84,0,0,1-.12.48.57.57,0,0,1-.37.16,33.67,33.67,0,0,1-10.11.36L43.59,263a21,21,0,0,0,3.53-1" transform="translate(-5.94 -2.64)"/><path d="M39,100.93a21.94,21.94,0,0,1-4.81,3.21,9.47,9.47,0,0,0-2.62,1.59,3.1,3.1,0,0,0-.89,2.92.63.63,0,0,0,1.21-.33c-.51-1.91,2.31-2.75,3.54-3.43a22.78,22.78,0,0,0,4.45-3.08c.6-.54-.29-1.42-.88-.88Z" transform="translate(-5.94 -2.64)"/><path d="M40.56,103.6v-.07l0,.17a.86.86,0,0,1,.06-.23l-.06.15a1,1,0,0,1,.14-.24l-.1.13a1.26,1.26,0,0,1,.2-.2l-.13.1a1.17,1.17,0,0,1,.27-.15l-.15.06a.77.77,0,0,1,.26-.07l-.16,0h.25l-.17,0,.12,0a.66.66,0,0,0,.48-.06.65.65,0,0,0,.29-.38.62.62,0,0,0-.06-.48.67.67,0,0,0-.38-.28,1.58,1.58,0,0,0-1.35.24,1.71,1.71,0,0,0-.52.55,1.46,1.46,0,0,0-.22.74.6.6,0,0,0,.18.44.62.62,0,0,0,.44.18.6.6,0,0,0,.44-.18.73.73,0,0,0,.19-.44Z" transform="translate(-5.94 -2.64)"/><path d="M41.75,104.88v-.06l0,.16a1.33,1.33,0,0,1,.05-.19l-.06.15a1,1,0,0,1,.1-.17l-.09.12a.81.81,0,0,1,.16-.16l-.13.1.22-.13-.15.07a.9.9,0,0,1,.22-.06l-.16,0a.67.67,0,0,1,.2,0l-.17,0a.58.58,0,0,1,.18,0l-.15-.06h0a.49.49,0,0,0,.23.08.53.53,0,0,0,.25,0,.64.64,0,0,0,.37-.29.63.63,0,0,0,.07-.48.62.62,0,0,0-.29-.38,1.33,1.33,0,0,0-.71-.14,1.5,1.5,0,0,0-.68.21,1.7,1.7,0,0,0-.51.49,1.33,1.33,0,0,0-.21.7.61.61,0,0,0,.62.62.67.67,0,0,0,.45-.18.72.72,0,0,0,.18-.44Z" transform="translate(-5.94 -2.64)"/><path d="M42.57,106.53l0,0-.06.15a.21.21,0,0,1,.06-.1l-.1.12a.38.38,0,0,1,.09-.09l-.13.1.12-.07-.14.06a.5.5,0,0,1,.13,0l-.17,0a.28.28,0,0,1,.13,0l-.17,0a.2.2,0,0,1,.11,0,.53.53,0,0,0,.25,0,.45.45,0,0,0,.23-.08.35.35,0,0,0,.18-.16.43.43,0,0,0,.11-.21l0-.17a.58.58,0,0,0-.08-.31l-.1-.13a.74.74,0,0,0-.27-.16l-.11,0a1.18,1.18,0,0,0-.27,0,.75.75,0,0,0-.26,0,1.34,1.34,0,0,0-.24.09l-.09.06a1.05,1.05,0,0,0-.46.61.43.43,0,0,0,0,.25.42.42,0,0,0,.07.24.44.44,0,0,0,.16.17.43.43,0,0,0,.21.11l.17,0a.62.62,0,0,0,.32-.09.65.65,0,0,0,.28-.37Z" transform="translate(-5.94 -2.64)"/><path d="M42.63,108.48a.63.63,0,0,0,0-1.25.63.63,0,0,0,0,1.25Z" transform="translate(-5.94 -2.64)"/><path d="M37.31,100.5c-1.15.55-2.32,1.08-3.44,1.68a6.23,6.23,0,0,0-2.52,2.14c-.43.68.65,1.31,1.08.63a5.41,5.41,0,0,1,2.23-1.78c1.08-.55,2.18-1.06,3.28-1.59a.64.64,0,0,0,.22-.86.63.63,0,0,0-.85-.22Z" transform="translate(-5.94 -2.64)"/><path d="M30.44,112.48c-.83,3.47.12,6.88.39,10.35s-1,6.91,0,10.27a.63.63,0,0,0,1.21-.34c-1-3.22.27-6.64,0-9.93s-1.23-6.69-.44-10c.19-.78-1-1.11-1.2-.33Z" transform="translate(-5.94 -2.64)"/><path d="M31.34,116.76c.85,3.26.31,6.61.3,9.93s1.1,6.56.57,9.82c-.13.78,1.08,1.12,1.21.33.55-3.4-.55-6.75-.53-10.15s.53-6.88-.35-10.27a.62.62,0,0,0-1.2.34Z" transform="translate(-5.94 -2.64)"/><path d="M41.65,113.88c-.22,1.53-.43,3.07-.54,4.61a46.08,46.08,0,0,0,.09,4.85c.11,3-1.35,5.76-.75,8.71.16.79,1.36.46,1.2-.33-.56-2.78.9-5.57.8-8.38-.06-1.45-.19-2.88-.12-4.33.08-1.61.3-3.2.52-4.8.11-.78-1.09-1.12-1.2-.33Z" transform="translate(-5.94 -2.64)"/><path d="M42.48,113.72a77.57,77.57,0,0,0-.52,11c0,1.81.24,3.62.22,5.43a28.34,28.34,0,0,1-.79,5.72c-.17.78,1,1.12,1.2.33a33.64,33.64,0,0,0,.82-5.18c.1-1.95-.12-3.91-.18-5.86a75.11,75.11,0,0,1,.5-11.42c.09-.79-1.16-.79-1.25,0Z" transform="translate(-5.94 -2.64)"/><path d="M32,117.62c.6,4.78,0,9.8,1.91,14.34.31.73,1.52.41,1.21-.33-1.87-4.44-1.28-9.34-1.87-14-.09-.79-1.35-.8-1.25,0Z" transform="translate(-5.94 -2.64)"/><path d="M40.63,117l-.65,4a26,26,0,0,0-.49,4.12c0,.65.11,1.29.1,1.93a6.63,6.63,0,0,1-.37,1.81,8.44,8.44,0,0,0-.62,3.43c.09.79,1.34.8,1.25,0a9,9,0,0,1,.69-3.46,10.55,10.55,0,0,0,.21-3.41,20.71,20.71,0,0,1,.44-4.08l.64-4c.13-.79-1.07-1.13-1.2-.33Z" transform="translate(-5.94 -2.64)"/><path d="M41.86,114.87a26.54,26.54,0,0,0,.13,5.42c.24,1.8.83,3.53,1.07,5.32a48.74,48.74,0,0,1,.15,5.67l0,5.71a.63.63,0,0,0,1.25,0l0-5.5c0-1.91.08-3.86-.13-5.76-.19-1.69-.74-3.31-1-5a24.54,24.54,0,0,1-.21-5.87c.07-.8-1.18-.8-1.25,0Z" transform="translate(-5.94 -2.64)"/><path d="M30,116.58a24.41,24.41,0,0,0-.05,7.34c.53,2.49-.15,4.94.15,7.44.09.78,1.34.79,1.25,0-.29-2.42.38-4.82-.08-7.23a14.11,14.11,0,0,1-.36-3.72c.09-1.28.23-2.55.34-3.83.07-.8-1.18-.8-1.25,0Z" transform="translate(-5.94 -2.64)"/><path class="cls-3" d="M90.4,134.2l0,5.15a3.28,3.28,0,0,0,.29,1.71,2.94,2.94,0,0,0,1.62,1.15,10.75,10.75,0,0,0,4.93.56,1.13,1.13,0,0,0,.7-.28,1.1,1.1,0,0,0,.2-.69,47.15,47.15,0,0,0-.07-6.51,2.74,2.74,0,0,1-3.92-1.66c1.16,1,2.82,1.07,4.35,1.09a4.25,4.25,0,0,0,1.91-.26,3.19,3.19,0,0,0,1.56-2.55c.14-1,0-2.09.16-3.12,0-.19.08-.41.26-.48a1.31,1.31,0,0,1,.44,0,.75.75,0,0,0,.62-.84,3.09,3.09,0,0,0-.41-1.08c-1.47-3,.27-7-1.65-9.72-1.39-2-4.23-2.41-6.56-1.8a6.7,6.7,0,0,0-3.46,2A10,10,0,0,0,90,119.35a9.12,9.12,0,0,0-1.11,4.47.76.76,0,0,1-.53,1A2.29,2.29,0,0,0,89.77,129a10.52,10.52,0,0,1,.47,4.21" transform="translate(-5.94 -2.64)"/><path class="cls-1" d="M88.66,140.11c-7.29,4.27-14.87,8.8-19.32,16a18.57,18.57,0,0,1,8.08,6,7,7,0,0,1,1.7,3.39,3,3,0,0,1-1.58,3.2l5.85-4.08c-1.6,2-3.08,2.54-5.06,4.32-.43.4-.09,1.76-.37,2.28a3.18,3.18,0,0,0-.25,1.33l-1,25.84c11.43-1.84,23.52,2.07,34.56-1.44a1,1,0,0,0,.84-1.09c1.62-11.78,3.24-23.69,2-35.51a12.28,12.28,0,0,1,1.32,3.57,3.13,3.13,0,0,0,1.89-3.11,9,9,0,0,0-1.19-3.69,55,55,0,0,0-6.48-10.72,21.15,21.15,0,0,0-10.12-7.1,7.53,7.53,0,0,0-.89,2.5,2.6,2.6,0,0,1-1.62,2,2.7,2.7,0,0,1-1.43-.16,13.78,13.78,0,0,1-6.28-4.1" transform="translate(-5.94 -2.64)"/><path class="cls-4" d="M79.52,198.31a21.12,21.12,0,0,0,2,12.41c.85,1.66,1.93,3.28,2.14,5.13.3,2.67-1.27,5.15-2.68,7.43a101.22,101.22,0,0,0-7.85,15.6c-2,4.93-3.56,10-6.06,14.73-2.8,5.24-6.81,10.13-7.45,16a7.06,7.06,0,0,0,.53,4,7.9,7.9,0,0,0,2,2.24,27,27,0,0,0,6,3.86,1.15,1.15,0,0,0,.78.14c.36-.11.51-.51.62-.86,2.76-8.71,9.57-15.52,13.48-23.78,1.86-3.91,3.06-8.15,5.38-11.81a17.92,17.92,0,0,0,2.12-3.73c.92-2.79-.16-5.8-1.22-8.54,8.05,16.15,11.89,34,15.66,51.67a32.49,32.49,0,0,0,15.63-2.92,1.49,1.49,0,0,0,.86-.75,1.53,1.53,0,0,0-.31-1.18c-3.09-5.31-4-11.57-5.07-17.61-1.84-10.12-4.41-20.1-7-30.06-1.84-7.14-4.48-20.06-3.87-19.25,2.48-3.92,4.6-9.75,6-14.18-3.67-1-7.68,1.46-11.45,1.87-6.49.7-12.89-.92-19.39-1.5" transform="translate(-5.94 -2.64)"/><path class="cls-1" d="M63,277.17a28.7,28.7,0,0,1-2.19,8.89c1.32.28,4.09,1.3,4.15,1.28s1-3,1-3.1L67.11,282a.82.82,0,0,0,.14-.58.9.9,0,0,0-.35-.42A41.43,41.43,0,0,1,63,277.42" transform="translate(-5.94 -2.64)"/><path class="cls-1" d="M112.26,283.29c.28,1.3,1.28,5.65,1.56,6.95a38.59,38.59,0,0,0,4.58-1.44c.15-.22-1-3.73-1-4v-3.11a29.08,29.08,0,0,0-4.74,1.93" transform="translate(-5.94 -2.64)"/><path d="M59.17,287.6a5.66,5.66,0,0,0-1,1.71,1.92,1.92,0,0,0,.34,1.89,2.68,2.68,0,0,0,.87.53,61.32,61.32,0,0,0,12.87,4.13c.37-.83-.33-1.73-1-2.38L66,288.13a3.45,3.45,0,0,0-1-.79,3.13,3.13,0,0,0-.92-.25,31.24,31.24,0,0,0-4.22-.41" transform="translate(-5.94 -2.64)"/><path d="M113.82,290.24c1.6-.07,3-1.08,4.58-1.44a21.29,21.29,0,0,1,3.67-.23c2.83-.15,5.69-1.29,8.42-.55a.88.88,0,0,1,.66.46.77.77,0,0,1-.1.59,4.45,4.45,0,0,1-2.1,1.66,74.19,74.19,0,0,1-11.31,4.45,5.15,5.15,0,0,1-2.19.32,2.79,2.79,0,0,1-2.07-3.71" transform="translate(-5.94 -2.64)"/><path class="cls-3" d="M71.15,158.36q-3.16,3.44-6,7.16a14.38,14.38,0,0,0-2.29,3.88,15.37,15.37,0,0,0-.6,4.48q-.28,9.8.09,19.6c.14,3.51.33,7.11-.69,10.47-.6,2-1.6,3.81-2.09,5.81a12.1,12.1,0,0,0,.54,7.47c1.12-.08,1.65-1.4,1.92-2.49l1.65-6.58,1.37,3.36c.85-1,.78-2.52.72-3.86-.44-9.43,1.75-18.76,3.92-27.95.71-3,1.54-6.26,3.88-8.31,1.3-1.14,3-1.89,3.79-3.44.93-1.89,0-4.2-1.39-5.78s-3.19-2.78-4.47-4.46" transform="translate(-5.94 -2.64)"/><path class="cls-3" d="M115.64,164.87l-.59,16.41a1.79,1.79,0,0,0,.12.86,1.72,1.72,0,0,0,1.2.71,179.61,179.61,0,0,1,24.57,8.58,13.9,13.9,0,0,1,2.54,1.32c1.68,1.19,3.22,3.2,5.25,2.86l-.22-2a23.14,23.14,0,0,0,6.65,2c-.94-1.8-2.83-2.87-4.61-3.85l-20.79-11.34a23.47,23.47,0,0,1-6.29-4.39c-2.79-3-3.76-7.26-5.23-11.12a2.87,2.87,0,0,0-1.06-1.56c-.55-.32-1.44-.09-1.53.54" transform="translate(-5.94 -2.64)"/><path class="cls-1" d="M102.13,118.2a6.55,6.55,0,0,0-5.52-4.07,7.34,7.34,0,0,0-6.29,2.9A8.35,8.35,0,0,0,89,123.9,116.84,116.84,0,0,1,102.84,119a30.76,30.76,0,0,0,7.38-2.51l-7.76,1.92" transform="translate(-5.94 -2.64)"/><path class="cls-2" d="M199.94,146.63c-1.87,2.62-4.75,4.06-7.73,2.73-1.07-.47-2.63-1.7-3.79-1.62a10.21,10.21,0,0,0-3.85,1.18c-2.52,1.56-4.87,3-6.09,5.71-2,4.36-2.57,10.34-1.9,15.7.72,1.19,4.82-1.16,5.89-.28.31.25,1.65,21.87-.33,31.85l10.68-1a9.5,9.5,0,0,0,3.7-.86c1.2-.66,2.09-1.84,3.37-2.34,1.46-.58,3.1-.14,4.67,0s5-.93,5.67-2.37c.3-.64-.74-4.6-.77-5.3-.42-10-2.09-16-3.94-25.76.36,1.37,1.48,2.92,1.84,4.3a5,5,0,0,1,4.75-3,5.59,5.59,0,0,0,2.55-.88c.22-.33-.25-1.83-.33-2.21-.77-3.66-2.41-6.53-4.3-9.75s-5.13-5.9-8.86-6.12Z" transform="translate(-5.94 -2.64)"/><path d="M181.94,203.13c-.21,6.28-.42,12.59,0,18.87.47,7.59,1.81,15.1,2.85,22.64a53.5,53.5,0,0,1,.69,9,27.32,27.32,0,0,0,1.23,7.74,47.52,47.52,0,0,1,.33,9.84,16.08,16.08,0,0,0,.66,7.53c2.38-.3,3.51-.55,5.9-.84.36,0,1.22.51,1.51.28s.73-16.07.39-23c-.25-5-.86-10-1.15-15-.53-9.21,0-18.44.53-27.64.48,6.73,0,13.49.3,20.23.58,13.87,4.33,27.58,3.52,41.44,2.15-.68,4.63,1.4,6.59.31,1.43-.79,1.61-2.73,1.63-4.36q.33-36.31,2.41-72.6c-2.36,1.92-5.94.45-8.87,1.26a17.17,17.17,0,0,0-2.78,1.23c-4.77,2.27-10.29,2.12-15.58,1.92Z" transform="translate(-5.94 -2.64)"/><path class="cls-3" d="M190.53,147.36c-.45-2,1-4,.7-6-.25-1.72-1.76-3.29-1.31-5-1-.48-1.1-1.8-1.08-2.89a1.83,1.83,0,0,1,.33-1.28c.3-.34,1-.32,1.09.12a21.8,21.8,0,0,0,.13-2.92,2.49,2.49,0,0,1,1.49-2.31c1.29-.36,2.43,1,3.75,1.19s2.85-.84,4.31-.7a1.21,1.21,0,0,1,.83.37,1.51,1.51,0,0,1,.27.86,31.38,31.38,0,0,1,.14,4.44,1.23,1.23,0,0,1,1.87.78,2,2,0,0,1-1.14,2,2.16,2.16,0,0,0-.6.37,1.57,1.57,0,0,0-.35.86c-.68,4.29-4.12,5.5-7.34,5,1,.6,3.51.26,4.67.07a23.53,23.53,0,0,1,.44,4.75,11.33,11.33,0,0,1-2.1,2c-1.95,1.12-4.34.12-6-1.35" transform="translate(-5.94 -2.64)"/><path class="cls-3" d="M177.22,171.53c2.59,9.93.42,20.43.87,30.68.06,1.17.14,2.34.11,3.51-.07,2.61-.73,5.18-.72,7.78s1.56,3.61,3.78,5c.31-4.81.33-7.52.26-12.6a27.93,27.93,0,0,1,.41-4.47c.21-1.49.54-3,.75-4.44a58.54,58.54,0,0,0,.32-9.08l-.3-16.76a1.06,1.06,0,0,0-.34-.94,1.1,1.1,0,0,0-.74-.06,14.22,14.22,0,0,0-4.45,1.6" transform="translate(-5.94 -2.64)"/><path class="cls-3" d="M207.35,169.27c2.19,3.25,4.44,6.63,5,10.5.38,2.51,0,5.07.36,7.58a74.84,74.84,0,0,1,.17,8.47c-.27,2.32-.42,3.71-.69,6a2.61,2.61,0,0,1-.46,1.43,4.12,4.12,0,0,1-1.27.79,3.73,3.73,0,0,0-1.86,3.59l1.82-1.36c.36-.26.89-.53,1.21-.21a.81.81,0,0,1,.21.52,4.81,4.81,0,0,1-2.42,4.77c2,.27,4.25.44,5.62-1s1-3.95,1.21-6c.23-2.62,5.59-23,1.9-31.69a19.33,19.33,0,0,0-2.21-3.53l-2.13-3a1.69,1.69,0,0,0-.6-.59c-.52-.26-1.13.07-1.61.4a38.69,38.69,0,0,0-4,3.12" transform="translate(-5.94 -2.64)"/><path d="M209.84,208.05c.07.43.32,1,.82.93s.52-.44.6-.76l.55-2.23a13.05,13.05,0,0,0-1.88,1.66" transform="translate(-5.94 -2.64)"/><line class="cls-6" x1="208.06" y1="291.07" x2="208.17" y2="209.33"/><path d="M195,283.31l.25,4.46a3,3,0,0,1-1.25,3l-5.42,4.69c-1.24,1.07-2.81,2.23-4.39,1.76a1.76,1.76,0,0,1-1.06-.82,1.89,1.89,0,0,1,.32-1.9,15,15,0,0,1,1.43-1.44c2.17-2.24,2.25-5.74,3.71-8.5a1,1,0,0,1,.35-.43c.37-.21.81.08,1.18.28a3.18,3.18,0,0,0,3.92-.82" transform="translate(-5.94 -2.64)"/><path d="M199.47,282.37a2.06,2.06,0,0,0,2.64.56,9.74,9.74,0,0,0,1.18-1.05,1.48,1.48,0,0,1,1.45-.39c.67.27.78,1.15.88,1.86.48,3.19,2.83,5.7,4.82,8.24.62.79,1.22,1.91.64,2.73a2.2,2.2,0,0,1-2,.61c-3.35-.76-9.44-2.71-9.62-6.75l.24-5.2" transform="translate(-5.94 -2.64)"/><path class="cls-3" d="M190,283.63l-.24-3.56a.52.52,0,0,1,.08-.37.44.44,0,0,1,.32-.12,7.22,7.22,0,0,0,2.87-.46,4.12,4.12,0,0,1,.62-.33.62.62,0,0,1,.65.12.86.86,0,0,1,.15.52l.17,2.76a.79.79,0,0,1-.08.48.74.74,0,0,1-.31.24A12.47,12.47,0,0,1,191,284c-.29.06-.65.07-.78-.19" transform="translate(-5.94 -2.64)"/><path class="cls-3" d="M200.06,275.67v4.79a4.84,4.84,0,0,0,.18,1.61.56.56,0,0,0,.18.27.53.53,0,0,0,.24.08c.91.07,1.53-1,2.43-1.11a3.26,3.26,0,0,0,.7-.06c.59-.19.7-1,.7-1.58v-3.95a.38.38,0,0,0-.05-.21c-.07-.11-.23-.11-.37-.1a10.85,10.85,0,0,1-4.24-.39" transform="translate(-5.94 -2.64)"/><path d="M192,126.46c1.7.07,3.23,1.33,4.93,1.21.61,0,1.2-.27,1.81-.37a2.07,2.07,0,0,1,1.75.37,2.23,2.23,0,0,1,.53.84,11.57,11.57,0,0,1,.9,3.57l.14-4.25a5.09,5.09,0,0,0-.51-3,4.25,4.25,0,0,0-2.72-1.58,13.23,13.23,0,0,0-5.84-.07,3.81,3.81,0,0,0-2.24,1.12,3.9,3.9,0,0,0-.58,1.13,15.26,15.26,0,0,0-.92,5.91,8.81,8.81,0,0,1,1.48-4.1c.29-.43.89-.87,1.27-.51" transform="translate(-5.94 -2.64)"/><path d="M189.56,137.27a19.26,19.26,0,0,0,.77,1.95,4.85,4.85,0,0,0,1.86,2.31,5.43,5.43,0,0,0,2,.53,6.65,6.65,0,0,0,3.68-.38c1.77-.85,2.48-2.79,3-4.54-.66.89-1.36,1.75-2.1,2.59a2.62,2.62,0,0,1-.94.77,3.21,3.21,0,0,1-1.08.15,8.13,8.13,0,0,1-3.94-.56,1,1,0,0,1-.47-.38c-.24-.39,0-.89.41-1.19a2.93,2.93,0,0,1,2.25-.59,2.76,2.76,0,0,1,1.92,1.22,1.85,1.85,0,0,0-1.16-2.23,5.16,5.16,0,0,0-2.92-.18,15.53,15.53,0,0,1-2.94.41" transform="translate(-5.94 -2.64)"/></svg>