<svg id="Layer_1" data-name="Layer 1" xmlns="http://www.w3.org/2000/svg" viewBox="0 0 180 270"><defs><style>.cls-1{fill:#d0462e;}.cls-2{fill:#f1b71c;}.cls-3{fill:#4c2216;}.cls-4{fill:#3a8199;}</style></defs><ellipse class="cls-1" cx="85.76" cy="244.98" rx="68.46" ry="19.33"/><ellipse class="cls-2" cx="85.66" cy="236.2" rx="68.46" ry="19.33"/><path class="cls-1" d="M17.2,236.2a7,7,0,0,0,1.69,4.23,15.17,15.17,0,0,0,3.45,3.09,40.21,40.21,0,0,0,8.31,4.12,101.28,101.28,0,0,0,18,4.61,208.61,208.61,0,0,0,37,2.53,212,212,0,0,0,36.83-3.6,104.1,104.1,0,0,0,17.69-4.83,39.51,39.51,0,0,0,8-4c2.37-1.61,4.46-3.84,4.46-6.13s-2.09-4.52-4.46-6.13a39.51,39.51,0,0,0-8-4,105,105,0,0,0-17.69-4.83,213,213,0,0,0-36.83-3.6,209.56,209.56,0,0,0-37,2.53,102.11,102.11,0,0,0-18,4.6,40.76,40.76,0,0,0-8.31,4.13A15.36,15.36,0,0,0,18.89,232,7,7,0,0,0,17.2,236.2Zm0,0a7.06,7.06,0,0,1,1.67-4.26,15.44,15.44,0,0,1,3.44-3.11,40.37,40.37,0,0,1,8.3-4.18,105.11,105.11,0,0,1,18-4.91,214.42,214.42,0,0,1,37.09-3.63A210,210,0,0,1,123,218.67a102.64,102.64,0,0,1,18.26,4.68,42.52,42.52,0,0,1,8.62,4.29,17,17,0,0,1,3.78,3.39,7.64,7.64,0,0,1,0,10.33,16.72,16.72,0,0,1-3.78,3.39A41.33,41.33,0,0,1,141.2,249,103.39,103.39,0,0,1,123,253.72a211,211,0,0,1-37.29,2.56,215.49,215.49,0,0,1-37.09-3.62,106,106,0,0,1-18-4.91,40.91,40.91,0,0,1-8.3-4.19,15.21,15.21,0,0,1-3.44-3.11A7,7,0,0,1,17.2,236.2Z"/><path class="cls-3" d="M83.18,39l0,6.34a4,4,0,0,0,.36,2.1,3.62,3.62,0,0,0,2,1.41,13,13,0,0,0,6.06.68,1.32,1.32,0,0,0,.86-.34,1.28,1.28,0,0,0,.24-.84,57.72,57.72,0,0,0-.08-8,3.37,3.37,0,0,1-4.82-2c1.43,1.22,3.47,1.32,5.35,1.35a5.13,5.13,0,0,0,2.34-.33,4,4,0,0,0,1.93-3.14c.17-1.26,0-2.56.19-3.83,0-.23.1-.5.32-.59s.36,0,.54,0a.93.93,0,0,0,.77-1,3.86,3.86,0,0,0-.51-1.33c-1.81-3.68.34-8.6-2-12-1.71-2.43-5.19-3-8.07-2.21a8.22,8.22,0,0,0-4.25,2.46,12.23,12.23,0,0,0-1.7,3,11.4,11.4,0,0,0-1.37,5.49,1.28,1.28,0,0,1,0,.7,1.55,1.55,0,0,1-.6.5,2.81,2.81,0,0,0,1.77,5.17A12.94,12.94,0,0,1,83,37.79"/><path class="cls-1" d="M81,46.28c-9,5.24-18.28,10.82-23.75,19.65a22.92,22.92,0,0,1,9.94,7.35,8.74,8.74,0,0,1,2.09,4.17,3.75,3.75,0,0,1-2,3.94l7.2-5c-2,2.51-3.79,3.12-6.22,5.31-.54.48-.12,2.16-.46,2.8a3.81,3.81,0,0,0-.31,1.64l-1.26,31.76c14.06-2.26,28.92,2.55,42.5-1.76a1.78,1.78,0,0,0,.66-.33,1.72,1.72,0,0,0,.38-1c2-14.47,4-29.12,2.44-43.65a15.2,15.2,0,0,1,1.62,4.38,3.87,3.87,0,0,0,2.33-3.82,11.09,11.09,0,0,0-1.47-4.53,66.85,66.85,0,0,0-8-13.18,25.93,25.93,0,0,0-12.44-8.74,9.27,9.27,0,0,0-1.09,3.08,3.19,3.19,0,0,1-2,2.41,3.33,3.33,0,0,1-1.76-.19,17,17,0,0,1-7.72-5"/><path class="cls-4" d="M69.8,117.84a26,26,0,0,0,2.51,15.26c1,2,2.37,4,2.62,6.3.37,3.29-1.55,6.33-3.29,9.14A123.83,123.83,0,0,0,62,167.72c-2.42,6.06-4.37,12.34-7.45,18.1-3.45,6.45-8.37,12.47-9.16,19.73a8.66,8.66,0,0,0,.65,4.94,9.77,9.77,0,0,0,2.41,2.76A32.67,32.67,0,0,0,55.87,218a1.37,1.37,0,0,0,1,.18c.43-.14.62-.63.75-1.07C61,206.4,69.35,198,74.16,187.87c2.28-4.81,3.77-10,6.61-14.52a21.79,21.79,0,0,0,2.61-4.59c1.14-3.43-.19-7.13-1.5-10.49,9.9,19.85,14.62,41.82,19.25,63.52a39.75,39.75,0,0,0,19.22-3.59,1.77,1.77,0,0,0,1.06-.92,1.86,1.86,0,0,0-.38-1.45c-3.8-6.53-4.89-14.22-6.24-21.65-2.25-12.45-5.42-24.71-8.59-37-2.26-8.78-5.51-24.67-4.76-23.67,3-4.82,5.65-12,7.37-17.43-4.51-1.19-9.45,1.79-14.08,2.29-8,.87-15.84-1.12-23.84-1.84"/><path class="cls-3" d="M49.51,214.79c0,2.73-1.55,8.46-2.69,10.94,1.61.34,5,1.6,5.1,1.57s1.17-3.7,1.22-3.81l1.4-2.81a.79.79,0,0,0-.26-1.23,47.53,47.53,0,0,1-4.84-4.35"/><path class="cls-3" d="M110.05,222.32c.34,1.6,1.58,7,1.91,8.54a42.59,42.59,0,0,0,5.63-1.77c.2-.27-1.16-4.57-1.16-4.91v-3.82a35.93,35.93,0,0,0-5.83,2.36"/><path d="M44.78,227.62a6.91,6.91,0,0,0-1.27,2.11,2.33,2.33,0,0,0,.41,2.32,3.45,3.45,0,0,0,1.07.65,75.9,75.9,0,0,0,15.83,5.08c.45-1-.4-2.13-1.19-2.93l-6.49-6.57a4.25,4.25,0,0,0-1.22-1,4.3,4.3,0,0,0-1.13-.31,39.3,39.3,0,0,0-5.19-.5"/><path d="M112,230.86c2-.08,3.71-1.33,5.63-1.77a27.24,27.24,0,0,1,4.52-.27c3.48-.19,7-1.6,10.36-.69a1.1,1.1,0,0,1,.81.57.93.93,0,0,1-.13.72,5.37,5.37,0,0,1-2.58,2.05,91.59,91.59,0,0,1-13.9,5.47,6.23,6.23,0,0,1-2.69.39,3.43,3.43,0,0,1-2.56-4.55"/><path class="cls-3" d="M59.5,68.71q-3.89,4.23-7.34,8.81a17.73,17.73,0,0,0-2.81,4.78,18.53,18.53,0,0,0-.74,5.5q-.34,12,.11,24.09c.17,4.32.41,8.75-.85,12.89-.73,2.42-2,4.68-2.57,7.13A14.92,14.92,0,0,0,46,141.1c1.38-.1,2-1.72,2.36-3.06l2-8.1L52,134.08c1.05-1.27,1-3.1.89-4.74-.54-11.6,2.15-23.08,4.81-34.37.88-3.73,1.91-7.7,4.78-10.22,1.59-1.4,3.72-2.33,4.66-4.23,1.14-2.32,0-5.16-1.71-7.11S61.54,70,60,67.93"/><path class="cls-3" d="M114.21,76.72l-.73,20.18a2.07,2.07,0,0,0,.15,1,2.11,2.11,0,0,0,1.47.88,218.46,218.46,0,0,1,30.22,10.55,16.8,16.8,0,0,1,3.12,1.62c2.07,1.46,4,3.93,6.45,3.51l-.28-2.44a28.4,28.4,0,0,0,8.19,2.47c-1.16-2.22-3.48-3.53-5.67-4.73l-25.56-14c-2.77-1.51-5.6-3.06-7.73-5.39-3.43-3.74-4.63-8.93-6.44-13.68a3.54,3.54,0,0,0-1.3-1.91c-.68-.39-1.77-.11-1.88.66"/><path class="cls-2" d="M97.6,19.34a8.05,8.05,0,0,0-6.79-5,9,9,0,0,0-7.73,3.57,10.25,10.25,0,0,0-1.68,8.44,142.51,142.51,0,0,1,17.07-6.06c3.1-.83,6.29-1.5,9.07-3.09L98,19.56"/></svg>