<svg id="Layer_1" data-name="Layer 1" xmlns="http://www.w3.org/2000/svg" viewBox="0 0 600 300"><defs><style>.cls-1,.cls-8{fill:#d0462e;}.cls-2{fill:#4c2216;}.cls-3{fill:#f1b71c;}.cls-4{fill:#3a8199;}.cls-5{fill:none;stroke:#000;stroke-linecap:round;stroke-width:2px;}.cls-5,.cls-6{stroke-miterlimit:10;}.cls-6,.cls-7{fill:#fff;}.cls-6{stroke:#f1b71c;}.cls-8{font-size:19.02px;font-family:MyriadPro-Regular, Myriad Pro;}</style></defs><path class="cls-1" d="M373.5,96.79c-.17-16.1-1.46-24.3,20.21-24.08,18,.19,54.05-1.92,56.37,2.46s4.22,32.79-.8,39.4c-5.48,7.21-21.82-3.23-32.55,6.19-2.44,2.63-2.5,7.66.71,9.24-8,2-10.25-7.19-15.94-10.57-8.43-5-25.51,2.92-28-5Z"/><path class="cls-2" d="M354.75,109.15a1.37,1.37,0,0,0-2.23-1,1.78,1.78,0,0,0,.52,2.7c.52.25,1.15.27,1.58.65a2.51,2.51,0,0,1,.6,1.79l.65,9.9a13.21,13.21,0,0,0,1.33,5.89c1,1.74,3.23,2.94,5.05,2.13,2.1-.94,2.53-3.78,2.43-6.13a35.91,35.91,0,0,0-.47-4.51,8.22,8.22,0,0,1-6.83-3.29,14.07,14.07,0,0,0,4.51,1.78,4.81,4.81,0,0,0,4.43-1.46,6.57,6.57,0,0,0,1.06-2.29,30.57,30.57,0,0,0,1-13.14,3.93,3.93,0,0,0-1.88-3c-.25-.14-3.05-1.28-4.39-1a8.73,8.73,0,0,0-5.65,4.38c-1.06,2.13-1.13,4.62-1.17,7"/><path class="cls-2" d="M383.9,172.67l-1.79,4.67c-.19.51-.35,1.14.08,1.52a1.67,1.67,0,0,0,.63.3l4.48,1.47a3.38,3.38,0,0,0,1.22.22c1-.1,2-1.15,2.81-.67-.09-.24.18-.46.42-.59l1.88-1.07a1.82,1.82,0,0,0,.82-.69,1.07,1.07,0,0,0-.45-1.23,4.49,4.49,0,0,0-1.42-.59c-1.74-.5-3.44-1.06-5.12-1.69a1,1,0,0,1-.42-.24c-.26-.3,0-.74.37-1s.79-.43.91-.8c.18-.53-.48-1-1.11-1a3.3,3.3,0,0,0-1.71.65l-2,1.21"/><path class="cls-2" d="M379.85,191.59c-.62,3-1.24,6.07-.8,9.1l1.72-3.47c.93,1,.59,2.68.18,4l-.77,2.51a2.91,2.91,0,0,0,3.5-1.5,7.57,7.57,0,0,0,.56-3.59l0-8.43a.57.57,0,0,0-.1-.39.39.39,0,0,0-.31-.1,30.34,30.34,0,0,0-3.44.07"/><path class="cls-3" d="M354.81,124.77a24.65,24.65,0,0,0-9,2,8.43,8.43,0,0,0-3.3,2.27,7.61,7.61,0,0,0-1.36,3.26c-.88,4.52.54,9.18,2.52,13.32a99.43,99.43,0,0,0,7.93,13c-1.77-1.53-3.52-4.64-5.29-6.17-1.15,24.14-2.54,49.85-4.14,74l18.18.53a6.93,6.93,0,0,0,2.83-.31c2-.78,2.85-3.16,3-5.32s-.15-4.38.43-6.46l-.08,7.86a3.2,3.2,0,0,0,.67,2.46,2.94,2.94,0,0,0,1.61.58l8.09,1.24a1.49,1.49,0,0,0,1.19-.14,1.57,1.57,0,0,0,.45-1.1,41,41,0,0,0,.11-6.27q-.69-19.91-2.31-39.76l1.28,8.3a1.54,1.54,0,0,0,.48,1.09,1.43,1.43,0,0,0,1,.16,18.34,18.34,0,0,0,4.94-1.12l.1-5.6a4.26,4.26,0,0,0-.35-2.16,4,4,0,0,0-2.16-1.45l-10.1-3.86c-3.85-1.47-6.94-2.6-9.92-5.5a38.38,38.38,0,0,1-5.59-7c5.59,8.08,15.5,11.46,24.74,14.36a4.5,4.5,0,0,0,1.59-5.23c-.83-1.65-3.07-2.52-4.52-3.63-2.53-1.92-5-4-7.39-6-4.8-4-8.36-5.91-9.79-12.11,3.69,7.42,7.56,9.49,13.74,13.65-.14-6.67-.14-13.36,0-20a162.5,162.5,0,0,1,1.24,19.85,4,4,0,0,0,.49,2.33,3.75,3.75,0,0,0,1.51,1l5.85,2.73-2.49-18.8c-.76-5.76-1.55-11.61-3.89-16.9-2.11-4.75-6.06-9.26-11.14-9.54a16,16,0,0,1-1.53,4.69,4.52,4.52,0,0,1-8.13.36,15.65,15.65,0,0,1-2-4.76"/><path d="M363.71,226.3c1.93,17.88,7,35.28,8.54,53.2a1.05,1.05,0,0,0,.19.61.92.92,0,0,0,.64.27,6.29,6.29,0,0,0,4.23-1,2.83,2.83,0,0,0,1-1.06,3.73,3.73,0,0,0,.23-1.76c-.53-16.16-2.24-32.29-2-48.45a.63.63,0,0,0-.67-.82l-8.7-1.05"/><path d="M346.94,227l-.13,53.31a3,3,0,0,1,2.4-1,4.57,4.57,0,0,0,1.47.06c.95-.28,1.22-1.5,1.32-2.5,1.61-16.5,5.14-33.4,7-49.88-2.5,0-9.4.17-11.9.14"/><path class="cls-1" d="M347.11,281.3a4.51,4.51,0,0,1,3.3-.72,13.44,13.44,0,0,1,3.29,1.06l3,1.26c.31.13.67.33.67.67a.61.61,0,0,1-.19.42,2.32,2.32,0,0,1-1.86.54l-8.48,0a.47.47,0,0,1-.31-.08.46.46,0,0,1-.09-.33,20.77,20.77,0,0,1,.07-2.23"/><path class="cls-1" d="M372,282.06l.35,1.71a1,1,0,0,0,.27.58,1,1,0,0,0,.53.13q8.4.19,16.81-.18a1,1,0,0,0,.48-.11.66.66,0,0,0,0-.95,1.71,1.71,0,0,0-.95-.41c-3-.64-6.12-1.2-8.79-2.78a2.89,2.89,0,0,0-1.19-.5,2.5,2.5,0,0,0-.89.16l-6.58,2"/><path d="M353.18,107.31c.82-3.29-.1-7.16,2-9.84a6.7,6.7,0,0,1,4.46-2.38,14.19,14.19,0,0,1,5.14.41,44.27,44.27,0,0,1,4.75,1.28c1.2.84-2.38,1.83-2,3.24a7.8,7.8,0,0,0-9.68,1.08c-1.78,1.86-2.49,4.5-2.84,7.06l-1.63-.9"/><path class="cls-2" d="M183.27,109.8c0-.61-.91-.87-1.4-.5a2,2,0,0,0-.61,1.66,3.83,3.83,0,0,0,.79,2.5,2.16,2.16,0,0,0,2.4.69c1.25,3.35,1.42,3.84,1.43,6.86,0,.39,7.61,5.81,11.4,5.14a6.19,6.19,0,0,0,.34-2.69,8.94,8.94,0,0,1-6.83-1.22c-2-1.24-2.19-1.86-3.55-3.8,2.65,2.21,4.14,3.5,7.47,4.41a5.08,5.08,0,0,0,4-1.31,14.4,14.4,0,0,0,1.22-3.33c1.69-5.84,1.42-9.3,1.1-15.36a4.77,4.77,0,0,0-.59-2.42,1.73,1.73,0,0,0-2.17-.71c-.68.39-.85,1.29-1.4,1.84-1,1-2.61.49-3.75-.25s-2.25-1.74-3.61-1.73c-2.12,0-3.35,2.44-3.65,4.54s-.26,4.46-1.7,6"/><path d="M201.16,102.23l-2-2.14c-.28-.3-.67-.64-1.07-.5s-.49.8-.65,1.28c-.39,1.12-1.92,1.43-3,1a19.4,19.4,0,0,1-3-1.83A3,3,0,0,0,188,100a3.81,3.81,0,0,0-1,2.08l-1.5,5.89a7.22,7.22,0,0,0-.32,3.12,7.29,7.29,0,0,0,1.21,2.53,12.73,12.73,0,0,0,2.52,3.08,4.22,4.22,0,0,0,3.72.93c1.68-.49,2.84-2.36,4.59-2.41a2.47,2.47,0,0,1,2.44,2.17c-.94-.47-1.39-2.24-2.44-2.17-.55,0-1.76,1.74-2.16,2.12a1.14,1.14,0,0,0-.17,1.5c.28.31.23,1.09.64,1.14a9.68,9.68,0,0,0,4.27-.93c1.17-.51.39-.5-.14-1.66.17,2.53.47,3.68-1.7,5a7.1,7.1,0,0,1-7.23-.06,11.4,11.4,0,0,1-3.48-3.85,25.24,25.24,0,0,1-2.38-4.87c-.43-1.24-.75-2.51-1.07-3.78l-1.91-7.65c-.27-1.08-.37-2.54.65-3a3.3,3.3,0,0,0,.7-.28c.4-.29.39-.86.53-1.33.38-1.29,1.89-1.82,3.21-2.09a44.76,44.76,0,0,1,9.38-.94,3.4,3.4,0,0,1,2.61.8,3.54,3.54,0,0,1,.55,1l2.17,5.17"/><path class="cls-3" d="M200.35,121.54c.39,2.36-1.56,4.67-3.9,5.26a8.62,8.62,0,0,1-6.83-1.61,31.68,31.68,0,0,1-5.14-5,1.39,1.39,0,0,0-1.56-.57c-2.94.38-6,.8-8.49,2.37a20.63,20.63,0,0,0-3.9,3.51c-1.28,1.37-8.15,22.61-8.24,29.88q-.18,13.84-.09,27.7c0,.73.1,1.62.77,1.93a2,2,0,0,0,1,.1l3.89-.31a1.45,1.45,0,0,0,1-.3,1.5,1.5,0,0,0,.35-.87c1.76-11.18,3.52-22.39,3.8-33.7l-.38,33.66a3.79,3.79,0,0,0,.26,1.77c.56,1.12,2,1.43,3.25,1.58a63.84,63.84,0,0,0,31.32-4.32,3.23,3.23,0,0,0,2-1.56,13.25,13.25,0,0,0,1-2.66c.33-6,0-12.27-.17-18-.18-6.09.08-17-.39-23.11,19.63-7,14.72,2.63,22.79-10.69.25-.41,8.3-4.86,8.62-4.5.65.71-36.37,1.27-39.6-.9"/><path class="cls-4" d="M209.28,182.9c-2.36,1.22-4.74,1-7.31,1.69-3,.8-6.08,2.32-9.15,2.38l-17.45.31c-1.16,0-1.63-1.79-2.15-.76a21.75,21.75,0,0,0-1.15,3.29l-1.22,30.78c-.11,2.88-.23,5.76-.11,8.63.13,3.38.58,6.73.82,10.1.9,12.2-.8,24.54,1,36.64a87.46,87.46,0,0,1,15.35-.45c.27-19.89,1.51-46.85,2.35-66.73.22,3.6,1.28,11,2.45,14.37.76,2.22,1.06,7.56,1.46,9.87,2.75,15.9,2.49,29.6,3.67,44.51a28.46,28.46,0,0,1,12.74-2.65c.64,0,1.4,0,1.78-.52a1.91,1.91,0,0,0,.28-1,87.88,87.88,0,0,0,0-14.51c-.29-3.46-.79-6.9-1.06-10.36-.35-4.29-.36-8.6-.36-12.91l-.07-33.77a41.58,41.58,0,0,0-.67-9c-.71-3.15-2-6.8-1.16-9.92"/><path d="M182.34,275.91c1.75,1.85,4.55,2.28,6.77,3.21.21.09,2.84,0,3,.13a3.5,3.5,0,0,1,.7,1.92c0,.79-3.25.52-4,.83s-9.36.45-12.83,0a1.21,1.21,0,0,1-.87-.4A1.2,1.2,0,0,1,175,281l-.28-4.82a.33.33,0,0,1,.4-.42h7.19"/><path d="M208.65,275.33c3.26.38,6.31,1.67,9.57,2.06a5.06,5.06,0,0,1,1.9.47,1.57,1.57,0,0,1-.21,3,5.47,5.47,0,0,1-1.94.22,86.91,86.91,0,0,0-11.95.79,4.6,4.6,0,0,1-3.22-.32c-1.18-.8-1.31-2.46-1.33-3.9a1.43,1.43,0,0,1,.26-1,1.22,1.22,0,0,1,.48-.28,13.89,13.89,0,0,1,6.44-1"/><path class="cls-2" d="M254.71,119.69a25.3,25.3,0,0,1,5.9,2.79,6.5,6.5,0,0,1,2.56,2.56,1.26,1.26,0,0,1,0,1.3,1,1,0,0,1-1.15.19,5.05,5.05,0,0,1-1.05-.67,9.84,9.84,0,0,0-3.88-1.29c-.11,0-.25,0-.28.08a.23.23,0,0,0,.07.19l.9,1.16c-.1.25-.48.21-.74.12a23.92,23.92,0,0,1-5.11-2.49c-.16-.11-.35-.26-.34-.46a.59.59,0,0,1,.21-.35l3.19-3.25"/><path class="cls-2" d="M168.49,185.47a16,16,0,0,1,1.06,5.11,6.74,6.74,0,0,1-2.18-1.64,14.87,14.87,0,0,0,2,4.74,2.31,2.31,0,0,1,.57,1.75,1.37,1.37,0,0,1-1.32.92,2.81,2.81,0,0,1-1.6-.59,8,8,0,0,1-2.77-3.87,24.54,24.54,0,0,1-1-4.72,1.37,1.37,0,0,1,.11-1c.26-.37.79-.38,1.25-.38a15.28,15.28,0,0,0,3.75-.46"/><path class="cls-3" d="M41.47,185.86l.09,25.81c0,6,0,12.05.58,18.05,1.28,14.09,5.42,28,4.71,42.11l5.84.86c2.69.39,5.93.58,7.58-1.58,1-1.32,1-3.12,1-4.79q0-29.07,1-58.14l2.81,60.59a1.52,1.52,0,0,0,.22.85,1.5,1.5,0,0,0,1.17.41l10.65.48c1.06.05,2.33,0,2.9-.9a3.19,3.19,0,0,0,.24-2c-.92-9.24.18-18.54,1.28-27.76q.8-6.71,1.6-13.41C84.26,217.6,85.32,208.76,87,200c-2.64.09-5.49.13-7.66-1.37-.93-.65-1.66-1.53-2.55-2.24-3.45-2.77-8.91-2.66-11.57-6.2-1.54-2.07-1.68-4.85-2.68-7.23a2.66,2.66,0,0,0-.76-1.1,2.8,2.8,0,0,0-1.62-.34,45.27,45.27,0,0,0-19,4.24"/><path class="cls-1" d="M45.26,168.54c-.28,5.53-1.76,10.22-3.1,15.6,4.54-.25,20.05-6.15,21.74-.7,1.24,5.6,4.44,8.83,9.58,10.28,3.8,1.8,9.36,6.6,13.65,5.71,1.08-9.48-.33-19.72.38-29.32.9-3.08-4.13-3.1-4.53-5.22,5.46,4.12,13.15,3,11.36-4.24-1.16-5.43-4.21-11.51-6.13-16.71-1.44-7-7.7-12.26-14.24-15.35-2.38,4.29-4.46,8.19-8.2,11.37-4.12-2.15-8-8.61-5.61-12.62-4.35,2.67-9.56,3-11.92,7.95-2.64,6.05-18.56,33.4-4.73,33.42"/><path class="cls-2" d="M70.72,162.59a7.37,7.37,0,0,1-3.1-1.29,2.51,2.51,0,0,1-.77-3c.25-.44.68-.76,1-1.2s.28-1.12-.18-1.36c-1.05.79-1.39,2.35-2.56,2.95a4,4,0,0,1-1.78.29L47,159.18a12.07,12.07,0,0,0-5.11.81,4.14,4.14,0,0,0-2.56,4.13,4,4,0,0,0,2.81,2.95,10.38,10.38,0,0,0,4.23.29C51.61,167,57,164.67,62.26,165c1.18.08,4,.65,5.15.48,1.92-.28,2-.72,3-2.37"/><path class="cls-2" d="M75.65,146.74a12.32,12.32,0,0,0-1.05-5.68,4.94,4.94,0,0,0-4.69-2.85,10.12,10.12,0,0,1,3,3.07A4.89,4.89,0,0,1,71,141c-.64-.12-1.45,0-1.69.62s.41,1.37.88,1.95c1.42,1.77,1.2,4.3,1.84,6.48.78,2.69,2.87,4.77,4.88,6.73l3.53,3.43c2,2,4.19,4,7,4.51,1.63.29,3.57-.17,4.32-1.65a3.82,3.82,0,0,0,.34-2A10.22,10.22,0,0,0,89,155c-3.6-3.83-8.55-6-13.36-8.16"/><path class="cls-2" d="M58.38,114.55c-2.84-2.9-2.66,5.2-.13,4.63,1.56-.31,2.14,1.92,2.82,3.12,1.44,5.29-2.62,12.57,4.05,16.3,2.49-1.8,5.3-3.83,6.17-7,1-3.58-.66-8.24-.66-8.24s-3.41,2.41-4.86,1.67a7.22,7.22,0,0,0,5.22-3c1.19-1.43,1.09-2.85,2.46-3.14s2.15-3.66,1.73-5.63a1.18,1.18,0,0,0-1.65-.82l-.37.17c-2.09-11.86-16.75-10.6-14.8,1.53"/><path d="M74.06,111.46l-.21-5.85a3.26,3.26,0,0,0-.17-1.08,5.49,5.49,0,0,0-.58-1,1.33,1.33,0,0,1-.23-1,3.71,3.71,0,0,0,.14-.39.75.75,0,0,0-.54-.78,2.19,2.19,0,0,0-1,0,2.57,2.57,0,0,0-.5-.92.86.86,0,0,0-1-.23c-.25.14-.39.44-.65.58a1.39,1.39,0,0,1-.61.12,1.67,1.67,0,0,1-.86-.12.59.59,0,0,1-.28-.74A.51.51,0,0,0,67,100a6.38,6.38,0,0,1-.57.32,2.09,2.09,0,0,1-.79,0,2.59,2.59,0,0,0-1.67.58c-.64.51-1,1.33-1.79,1.64s-1.74,0-2.55.31a2.94,2.94,0,0,0-1.35,1.35,11.89,11.89,0,0,0-1,8.71c.06.27.54,1,.81,1.11a22.88,22.88,0,0,1,.26-4.69A5.1,5.1,0,0,1,60.21,106a7.71,7.71,0,0,1,4.55-1.84,15.17,15.17,0,0,1,3.38.7,6,6,0,0,1,3.22,2.91,16,16,0,0,1,1.9,4.71c.3-.12.5-.23.79-.35"/><path class="cls-2" d="M50.46,273l-.4,4.77a20,20,0,0,0-.08,3.37c.08.78.38,1.69,1.14,1.88a1.88,1.88,0,0,0,1.71-.79c2.07-2.27,2.5-5.58,2.47-8.65L50.87,273"/><path class="cls-2" d="M68.32,270.62c-.1,1.51-.13,3.22,1,4.27a5,5,0,0,0,1,.7,15.31,15.31,0,0,0,3.91,1.88.82.82,0,0,0,.82-.09.68.68,0,0,0,.16-.33,4.48,4.48,0,0,0-.54-2.54,9.64,9.64,0,0,1-.6-3.64,18.39,18.39,0,0,0-5.13-.35"/><path class="cls-1" d="M47.86,281.47c.06,8.93,7,4.73,7.44-1.59a3.43,3.43,0,0,1-1.93,2.49c-3.28,2.89-4.61-.51-4.53-3.55"/><path class="cls-1" d="M68.37,276.34c1.8,8.5,14.65,13.32,7.71.41-1.6,4.1-5.31,0-7.47-1.47"/><path d="M41.54,161c0-6-.12-10.2-.17-16.17,0-2,0-4,1-5.76,1.91-3.44,3.34-3.85,7.29-3.9,3,0,11.21.12,18,.12,3.82,0,4.08,5.19,4.09,12.85,0,4.31.12,7.72.35,12.86,0,.59,12.43.72,16.35.71-.12,1-1.39,1.22-2.37,1.24-14.62.19-29.5-.39-44.13-.2"/><path class="cls-4" d="M253.41,120.88c-2,2.77-5,4.28-8.17,2.88-1.13-.5-2.78-1.8-4-1.71a10.72,10.72,0,0,0-4.06,1.24c-2.67,1.65-5.14,3.18-6.44,6-2.09,4.6-2.71,10.93-2,16.59.75,1.26,5.09-1.23,6.22-.31.32.27,1.74,23.12-.34,33.67l11.28-1a9.77,9.77,0,0,0,3.9-.9c1.27-.7,2.21-1.94,3.56-2.47,1.55-.61,3.29-.15,4.94,0s5.3-1,6-2.5c.32-.68-.78-4.87-.81-5.61-.44-10.53-2.21-16.86-4.17-27.22.38,1.46,1.57,3.09,1.95,4.55a5.32,5.32,0,0,1,5-3.16A6,6,0,0,0,269,140c.24-.35-.27-1.93-.35-2.34-.81-3.87-2.54-6.9-4.55-10.3s-5.41-6.23-9.35-6.47Z"/><path class="cls-1" d="M234.39,180.57c-.22,6.64-.45,13.3,0,19.94.49,8,1.91,16,3,23.92a56.42,56.42,0,0,1,.73,9.53,29.29,29.29,0,0,0,1.29,8.18,50.09,50.09,0,0,1,.35,10.4,17.06,17.06,0,0,0,.7,8c2.52-.31,3.72-.58,6.23-.88.39-.05,1.3.54,1.6.29.47-.37.78-17,.41-24.33-.26-5.28-.9-10.55-1.21-15.83-.56-9.73,0-19.48.56-29.21.51,7.11,0,14.26.32,21.38.61,14.66,4.57,29.15,3.72,43.79,2.26-.72,4.88,1.48,7,.33,1.51-.84,1.71-2.89,1.72-4.61q.36-38.38,2.55-76.71c-2.49,2-6.28.47-9.38,1.33a18.17,18.17,0,0,0-2.93,1.3c-5,2.4-10.88,2.24-16.46,2Z"/><path class="cls-2" d="M243.47,121.64c-.48-2.1,1.05-4.23.74-6.36-.27-1.83-1.87-3.49-1.39-5.27-1-.51-1.16-1.9-1.14-3.05a2,2,0,0,1,.35-1.36c.32-.35,1-.33,1.15.13a21,21,0,0,0,.13-3.08,2.63,2.63,0,0,1,1.59-2.44c1.36-.38,2.56,1,3.95,1.26s3-.9,4.56-.75a1.32,1.32,0,0,1,.87.39,1.62,1.62,0,0,1,.29.92,33.23,33.23,0,0,1,.15,4.68,1.3,1.3,0,0,1,2,.83,2.07,2.07,0,0,1-1.2,2.1,2.17,2.17,0,0,0-.64.38,1.66,1.66,0,0,0-.36.91c-.72,4.54-4.36,5.81-7.76,5.28,1.06.63,3.71.27,4.93.07a25.22,25.22,0,0,1,.47,5,12.3,12.3,0,0,1-2.22,2.1c-2.06,1.18-4.59.12-6.39-1.42"/><path class="cls-2" d="M229.41,147.18c2.73,10.5.43,21.59.92,32.42,0,1.24.14,2.47.11,3.71-.08,2.75-.78,5.47-.76,8.22s1.65,3.82,4,5.27c.33-5.08.35-8,.28-13.31a30.14,30.14,0,0,1,.43-4.73c.22-1.57.57-3.12.79-4.69a61.39,61.39,0,0,0,.34-9.59l-.32-17.7a1.14,1.14,0,0,0-.35-1,1.1,1.1,0,0,0-.78-.06,14.91,14.91,0,0,0-4.71,1.68"/><path class="cls-2" d="M261.24,144.8c2.31,3.42,4.68,7,5.3,11.09.39,2.65,0,5.36.37,8a78.37,78.37,0,0,1,.18,8.94c-.29,2.46-.45,3.92-.73,6.38a2.82,2.82,0,0,1-.48,1.51,4.19,4.19,0,0,1-1.34.83,4,4,0,0,0-2,3.79l1.92-1.43c.38-.28.95-.56,1.29-.23a.94.94,0,0,1,.21.56,5.06,5.06,0,0,1-2.56,5c2.08.29,4.5.46,5.94-1.06s1.09-4.17,1.28-6.39c.24-2.77,5.9-24.31,2-33.49a20.45,20.45,0,0,0-2.34-3.73l-2.25-3.18a1.73,1.73,0,0,0-.63-.63c-.55-.27-1.2.08-1.71.43a40.08,40.08,0,0,0-4.16,3.29"/><path d="M263.87,185.77c.07.46.34,1,.86,1s.55-.46.64-.8l.58-2.36a13.38,13.38,0,0,0-2,1.76"/><line class="cls-5" x1="268.26" y1="276.27" x2="268.37" y2="189.91"/><path d="M248.2,265.29l.27,4.71a3.16,3.16,0,0,1-1.33,3.21l-5.72,5c-1.32,1.14-3,2.36-4.64,1.85a1.84,1.84,0,0,1-1.12-.86,2,2,0,0,1,.34-2,16.65,16.65,0,0,1,1.51-1.52c2.29-2.36,2.38-6.06,3.92-9a1.08,1.08,0,0,1,.37-.45c.39-.22.85.08,1.24.3a3.37,3.37,0,0,0,4.14-.88"/><path d="M252.91,264.3a2.19,2.19,0,0,0,2.8.58,9.86,9.86,0,0,0,1.24-1.1,1.59,1.59,0,0,1,1.53-.42c.71.29.82,1.22.93,2,.5,3.37,3,6,5.09,8.71.66.83,1.3,2,.68,2.88a2.29,2.29,0,0,1-2.12.64c-3.54-.79-10-2.86-10.17-7.12l.26-5.5"/><path class="cls-2" d="M242.91,265.63l-.24-3.76a.52.52,0,0,1,.07-.39.53.53,0,0,1,.34-.13,7.86,7.86,0,0,0,3-.48,4.63,4.63,0,0,1,.65-.36.66.66,0,0,1,.69.13.85.85,0,0,1,.16.55l.17,2.91a.91.91,0,0,1-.07.52,1,1,0,0,1-.33.25,13.44,13.44,0,0,1-3.43,1.2c-.3.06-.69.06-.82-.21"/><path class="cls-2" d="M253.54,257.22l0,5.06a4.87,4.87,0,0,0,.2,1.7.55.55,0,0,0,.18.29.61.61,0,0,0,.26.08c1,.07,1.62-1.05,2.57-1.17a3.71,3.71,0,0,0,.74-.07c.62-.2.73-1,.73-1.67v-4.17a.45.45,0,0,0,0-.23c-.08-.11-.25-.11-.39-.09a11.67,11.67,0,0,1-4.48-.42"/><path d="M245.06,99.56c1.8.08,3.41,1.4,5.21,1.28.65,0,1.27-.28,1.91-.39a2.22,2.22,0,0,1,1.85.39,2.49,2.49,0,0,1,.56.89,12,12,0,0,1,.95,3.77l.15-4.49a5.33,5.33,0,0,0-.54-3.15,4.5,4.5,0,0,0-2.88-1.67,14,14,0,0,0-6.17-.07,4,4,0,0,0-2.36,1.18,4.07,4.07,0,0,0-.61,1.19,16.22,16.22,0,0,0-1,6.25,9.37,9.37,0,0,1,1.56-4.33c.32-.46.95-.93,1.35-.55"/><path d="M242.44,111a18.17,18.17,0,0,0,.82,2.07,5,5,0,0,0,2,2.43,5.84,5.84,0,0,0,2.08.57,7.11,7.11,0,0,0,3.89-.41c1.87-.9,2.62-2.94,3.18-4.8-.7.94-1.44,1.86-2.22,2.74a2.79,2.79,0,0,1-1,.81,3.09,3.09,0,0,1-1.14.17,8.6,8.6,0,0,1-4.17-.6,1.24,1.24,0,0,1-.5-.4c-.25-.41.05-.94.44-1.26a3.14,3.14,0,0,1,2.38-.62,2.92,2.92,0,0,1,2,1.29,1.93,1.93,0,0,0-1.22-2.35,5.28,5.28,0,0,0-3.08-.19,17.35,17.35,0,0,1-3.11.42"/><path class="cls-4" d="M424.66,268.23q1.74,0,3.48,0a1.22,1.22,0,0,0,.88-.26,1.25,1.25,0,0,0,.2-.95,103.53,103.53,0,0,0-7.08-31.62c-1.43-3.59-3.09-7.32-2.67-11.16.38-3.45,2.38-6.47,4.13-9.47A76.07,76.07,0,0,0,431,197.57c2.86,23,3,46.32,3.23,69.53l3.88.39a1.73,1.73,0,0,0,1.31-.23,1.71,1.71,0,0,0,.45-1.06L441.6,256c1.25-7.33,2.51-14.69,2.67-22.13.07-3.35-.08-6.71,0-10.07s.53-6.87.94-10.3.83-6.91,1.5-10.33c1.38-7,3.83-14,3-21.11a120.41,120.41,0,0,1-26.89,1.34,4.09,4.09,0,0,0-2.2.26,3.89,3.89,0,0,0-1.41,1.71c-4.4,8.31-6.67,17.56-8.61,26.76a58.71,58.71,0,0,0-1.52,10.69c-.11,5.27,14.19,39.67,15.53,45.43"/><path class="cls-1" d="M421.58,139.19c-6.47-1.25-3.13,39.94-4.59,46.72,6.25-1.55,4.36-25.41,4.39-31.61-.69,7.44.85,14.9.58,22.25-.45,2-1.69,4.13-.83,6,6.3-1.56,12.95.62,19.43-.1,6.56,1.1,8.63.92,9.32-6.39,2.26-2.45-6.57-16.54-7.13-23.38,3.66,7.32,5,17,10.9,20,6.37-2.48.74-11,1.31-15.91.11-5.6-1.53-11.52-6.29-14.91-1.93-1.8-4.33-1.05-6.55-.25-6.87.71-13.85-1.47-20.72-2"/><path class="cls-3" d="M431.13,113.51c-3,0-5.52,2.3-6.7,5.27s-.89,6.3-.82,9.5-.18,6.64-2.18,9.14a1.12,1.12,0,0,0-.33.7c0,.41.49.62.88.73a65.72,65.72,0,0,0,22.7,2.56,1.42,1.42,0,0,0,.76-.2,1.3,1.3,0,0,0,.33-1.18c-.4-4.58-4.57-8-5.4-12.56-.66-3.58.78-7.69-1.31-10.67-1.7-2.41-5-3-7.93-3.29"/><path class="cls-2" d="M437,117.77a12,12,0,0,0-5-.81,5.56,5.56,0,0,0-4.93,2.8,8.16,8.16,0,0,0-.48,3.75,26.08,26.08,0,0,0,.52,5,8.43,8.43,0,0,0,2,3.95,4.77,4.77,0,0,0,4,1.55c2-.29,3.39-2,4.28-3.8a13.77,13.77,0,0,0,.86-11Z"/><path class="cls-2" d="M442.72,152a17.65,17.65,0,0,1,0-3.56,5.86,5.86,0,0,1,1.39-3.23c.93-1,2.33-1.57,3-2.76,1,.62-.39,1.45-.44,2.2a8.09,8.09,0,0,1,3.06-2.78.93.93,0,0,1,.78,0,1.34,1.34,0,0,0,.81,0c.44.53,1.08,1,.93,1.67.18,0,.19.22.34.32-1.21,1.05-2.47,2-3.76,3s-2.56,2-2.51,3.44c0,.33.07.7-.15.94a1,1,0,0,1-.37.21,6.41,6.41,0,0,1-3.13.28"/><path class="cls-2" d="M418.47,186.06a3.26,3.26,0,0,0-2,2.2,9.57,9.57,0,0,0-.28,3.07,9,9,0,0,0,2.41-4.67"/><path d="M424.27,269.39A42.89,42.89,0,0,1,415.9,274a5.92,5.92,0,0,0-1.64.89,1.82,1.82,0,0,0-.71,1.64,1.84,1.84,0,0,0,1.26,1.32,5.74,5.74,0,0,0,1.89.18l6.72-.15a14.84,14.84,0,0,0,2.4-.19,7,7,0,0,0,3.64-2,1.41,1.41,0,0,0,.34-.47,1.61,1.61,0,0,0,.08-.62l0-5.07a35,35,0,0,1-5.42-.2"/><path d="M434.25,268v7.82a1,1,0,0,0,.12.6,1,1,0,0,0,.59.34,40.08,40.08,0,0,0,7.69,1.5c1.26.11,2.83,0,3.35-1.16s-.36-2.31-1.17-3.22l-4.13-4.66a3.18,3.18,0,0,0-1.42-1.1,3.33,3.33,0,0,0-1-.06l-3.68.15"/><path class="cls-3" d="M426.23,67.09c.19-18.22,1.64-28.18-22.87-27.25C382.51,39.23,361,39,339.14,41a6,6,0,0,0-3.8,2.13c-7.48,8.31-6.76,33.94-2.29,42.21,10.94,12,32.11-1.75,44.25,8.92,2.76,3,2.84,8.66-.81,10.45,9,2.22,11.61-8.14,18.05-12C404.08,87,423.41,96,426.23,87Z"/><path class="cls-3" d="M522,127.75c-2.36-1.25-9.35-20.1,9.73-22.63,6.06-.8,30.76,1.33,36.16-1.52s8.78-8.31,10.45-14.08,1.75-11.87,1.83-17.87c.15-12-.94-44.64-3-48.38-2.47-4.46-5.75-8.3-10.85-8.6-12.29-.74-19.7-1-29.82-1.21-7.62-.19-21.91-.2-25.47,6.54-4.44,8.42-1.87,60.54-1.64,76.66.08,5.08-1.87,25.71,12.62,31.09"/><path class="cls-4" d="M543.94,40.67a20.82,20.82,0,1,1-20.81,20.8A20.87,20.87,0,0,1,543.94,40.67ZM538.69,57.6v3.92H541V72.77h4.64V61.5h2.26c.83,0,.84,0,.94-.78.13-1,.22-2,.33-3.12h-3.48c0-.9,0-1.74,0-2.58a.88.88,0,0,1,.83-.88,4.87,4.87,0,0,1,.76-.06h1.84v-3.9h-3.07c-.41,0-.82,0-1.23.08a3.83,3.83,0,0,0-3.66,3.31,20.33,20.33,0,0,0-.17,2.71c0,.43,0,.86,0,1.32Z"/><path class="cls-4" d="M210,107.84c1.68-.89,6.66-14.31-6.93-16.11-4.31-.57-21.9.94-25.75-1.09s-6.25-5.92-7.44-10-1.25-8.44-1.3-12.72c-.11-8.55.67-31.79,2.14-34.45,1.76-3.18,4.09-5.91,7.72-6.13,8.76-.53,14-.68,21.24-.86,5.43-.13,15.61-.14,18.14,4.66,3.16,6,1.33,43.11,1.17,54.59-.06,3.62,1.33,18.31-9,22.14"/><path class="cls-2" d="M568.5,124.3a6.26,6.26,0,0,1,.91-2.59,1.21,1.21,0,0,1,1.81,0,1.82,1.82,0,0,1,0,1.36,25.47,25.47,0,0,0-.44,9.25,5.94,5.94,0,0,1,.06,2.1,4,4,0,0,1-1.18,1.87,8.1,8.1,0,0,1-7.33,2.05c-.13-.87-.73-2.32-.86-3.19a9,9,0,0,0,6-2.74,16.62,16.62,0,0,1-5,1.87,5.57,5.57,0,0,1-4.9-1.46,7.5,7.5,0,0,1-1.46-3c-.79-2.72-.38-4.78-.55-7.61a16.28,16.28,0,0,1,1.4-4.21c.54-1.08,1.78-1.3,3-1.4,2.18-.18,4.53,0,6.13,1.52s1.81,4.07,2.34,6.19"/><path class="cls-1" d="M571.8,135.19c-2.74,2.9-7.69,3.67-9.19,7.37l-3.19-5.8a6.06,6.06,0,0,0-1.26-1.74c-1.41-1.17-3.64-.75-5,.45a11.81,11.81,0,0,0-2.82,4.65,99,99,0,0,0-5.07,14.45,12.58,12.58,0,0,1-1.57,4.41,11.38,11.38,0,0,1-4.12,3.15A7.11,7.11,0,0,1,545,171.8c2.82-.26,5.11-2.59,6.16-5.21a23.3,23.3,0,0,0,1.18-8.36l.12-6.75a89.35,89.35,0,0,1,.45,23.67c-.39,3.4-.84,7.28,1.44,9.83a10,10,0,0,0,4.14,2.47,40,40,0,0,0,11.23,2.42,14.7,14.7,0,0,0,5.49-.44,6.64,6.64,0,0,0,4.15-3.43,10.14,10.14,0,0,0,.6-3.84q.2-8.22-.29-16.45a7.09,7.09,0,0,0-.3-2c-.68-2-5.24-7.5-6.55-10.75s-.78-7.52,2.14-9.46c-2.6,2.43-2.17,6.77-.48,9.89s4.38,5.62,6.1,8.74c.91,1.65,1.53,3.45,2.48,5.08a25.73,25.73,0,0,1,2.2,3.84,13.46,13.46,0,0,1,.54,4.66l0,8.08a1.57,1.57,0,0,0,.24,1,1.49,1.49,0,0,0,.94.42,21.64,21.64,0,0,0,8.41-.13,1.69,1.69,0,0,0,1.67-1.71c.9-5.52.4-11.16-.1-16.73a24.16,24.16,0,0,0-.71-4.57,21.84,21.84,0,0,0-2.4-5,117.78,117.78,0,0,0-10-14.13c-2-2.42-4.22-4.84-7.16-5.93.66-.64,2,.26,2.61-.43a1.33,1.33,0,0,0,.24-.81,7.57,7.57,0,0,0-5.48-7.41c-.74-.19-1.7-.18-2.07.49a2,2,0,0,0-.16,1l.08,3.9"/><path class="cls-4" d="M553.16,187.06a103.22,103.22,0,0,0,1.47,13.59c1.18-1.81-3.34,14.62-3.42,25.12,0,3.5.33,7,.37,10.49.13,12-3.4,23.79-3.11,35.77a1.32,1.32,0,0,0,.19.81,1.36,1.36,0,0,0,.57.36,34.28,34.28,0,0,0,9.28,2.39c1.13.12,2.43.14,3.23-.68a4.08,4.08,0,0,0,.82-2.42,193.72,193.72,0,0,1,4-22.42c1.13-4.76,2.45-9.79,1-14.47a23.8,23.8,0,0,1-1.39-4.52,11.07,11.07,0,0,1,.6-4.1,57.16,57.16,0,0,1,5.86-13.41c-1.42,5-4.77,9.49-5,14.67-.14,3,.77,5.86,1.4,8.77,1.7,7.91,1.29,16.12,2.33,24.14a1.78,1.78,0,0,0,.32,1,1.88,1.88,0,0,0,.88.47c3.54,1.09,7.39,2.1,10.89.87a2.26,2.26,0,0,0,1.46-1.12,2.82,2.82,0,0,0-.16-1.82c-1.75-5.63-1.19-11.67-1.21-17.56a32.87,32.87,0,0,0-.66-7.21,58.47,58.47,0,0,0-1.89-5.89,135.56,135.56,0,0,1-4.61-19.33,21,21,0,0,1-.5-4.4c.18-5.77,5.11-10.91,4.15-16.6a37.7,37.7,0,0,1-26.09-3.24"/><path d="M561.46,276.58l-10.54-1.28a8.32,8.32,0,0,0-2.44-.06,8.08,8.08,0,0,0-2.25.85l-4.84,2.4c-1.46.72-3.13,1.73-3.22,3.37a3.16,3.16,0,0,0,2.23,2.92,8.4,8.4,0,0,0,3.9.18,63.78,63.78,0,0,0,15.06-3.75,3.62,3.62,0,0,0,1.43-.81c.84-.87.7-2.26.5-3.45"/><path d="M571.42,263.24a17.93,17.93,0,0,1-3.87,2.18,8.73,8.73,0,0,0-3.53,2.65,3.58,3.58,0,0,0-.09,4.16,1.29,1.29,0,0,0,.72.47,1.62,1.62,0,0,0,.62-.07L582,268.32a3,3,0,0,0,2.65-4.26,22.93,22.93,0,0,1-12.67-.28"/><path class="cls-2" d="M587.71,186.7l-2.78,11.11a14.47,14.47,0,0,1-1.71,4.58c-.93,1.41-2.43,2.71-2.27,4.4l2.72-2.06a51.1,51.1,0,0,0-.39,7,.77.77,0,0,0,.15.56.7.7,0,0,0,.49.17,3.84,3.84,0,0,0,3.69-2.41c2-6,3.22-16.61,7.09-24.1a34.48,34.48,0,0,0-6.79.94"/><path d="M526.35,166.82a38.45,38.45,0,0,1-2.18-5c-.13-.36-.22-.82.06-1.08a1,1,0,0,1,1,0,12,12,0,0,1,5.24,3.77,21.91,21.91,0,0,1,2.66,4.69c1.23,2.69,2.36,5.42,3.5,8.14.14.35.27.8,0,1.06a.76.76,0,0,1-.48.17c-1.14.07-2-.95-2.67-1.87L527.21,168"/><path class="cls-2" d="M539.4,163.06a4.82,4.82,0,0,1,3.79,2,8.56,8.56,0,0,1,1.55,4.09,2.48,2.48,0,0,1-.25,1.82,2.52,2.52,0,0,1-1.06.71,22.79,22.79,0,0,1-7,1.34.44.44,0,0,1-.34-.06.47.47,0,0,1-.13-.24,15.36,15.36,0,0,0-2.77-5.18,1.32,1.32,0,0,1-.36-.65c-.07-.52.47-.9.93-1.14a35.55,35.55,0,0,1,4.93-2.09"/><path class="cls-2" d="M526.49,167.76a10.49,10.49,0,0,0-.35,4.49.8.8,0,0,0,.14.41c.17.19.46.17.7.25.49.17.72.73.94,1.21a4,4,0,0,0,3.77,2.53,14,14,0,0,0,.65-6.05c-.26.28-.73,0-.86-.41s-.17-.81-.51-1a3.33,3.33,0,0,0-.45-.13,1.93,1.93,0,0,1-1.06-1.11,2.93,2.93,0,0,0-.92-1.26c-.45-.27-1.19-.12-1.28.4"/><path d="M555.94,120.22c-1.5-2.55-.45-6.07,1.83-8a11.26,11.26,0,0,1,8.4-2.06,6.15,6.15,0,0,1,3.17,1.06,7.11,7.11,0,0,1,2,3.29,22,22,0,0,1,1.51,6.16,9.53,9.53,0,0,1-1.5,6.06c.23-1.23.4-2.46.52-3.7a2.15,2.15,0,0,0-.38-1.75,1.48,1.48,0,0,0-1.9.07,4.2,4.2,0,0,0-1.11,1.73,12.91,12.91,0,0,0-2.12-4.38,6.42,6.42,0,0,0-10.52,1.12"/><path class="cls-4" d="M233.5,100.65c-1.68-.89-6.66-14.32,6.93-16.11,4.31-.57,21.9.94,25.75-1.09s6.25-5.92,7.44-10,1.25-8.44,1.3-12.72c.11-8.55-.67-31.79-2.14-34.45-1.76-3.18-4.1-5.91-7.73-6.13-8.75-.53-14-.68-21.23-.86-5.43-.13-15.61-.14-18.14,4.66-3.17,6-1.33,43.11-1.17,54.59.05,3.62-1.33,18.31,9,22.14"/><path class="cls-1" d="M2.57,60.71C2.4,35.14,1.11,22.11,22.78,22.46c18,.29,54.05-3.06,56.37,3.9s4.22,52.09-.8,62.6c-5.47,11.45-21.82-5.14-32.54,9.83-2.45,4.18-2.51,12.16.71,14.68-8,3.12-10.26-11.42-16-16.8-8.42-8-25.51,4.65-28-8Z"/><path class="cls-6" d="M57.71,76.59H29.18a6.12,6.12,0,0,1-6.19-6V51.06a5.74,5.74,0,0,1,.49-2.34A6.21,6.21,0,0,1,29.18,45H57.71a6.13,6.13,0,0,1,6.2,6V70.58A6.12,6.12,0,0,1,57.71,76.59Z"/><path class="cls-6" d="M43.45,60.82,63.91,48.31Z"/><line class="cls-6" x1="23.48" y1="48.72" x2="43.45" y2="60.82"/><circle class="cls-7" cx="23.97" cy="47.85" r="7.71"/><text class="cls-8" transform="translate(16.76 52.38)">@</text></svg>