<svg id="Layer_1" data-name="Layer 1" xmlns="http://www.w3.org/2000/svg" viewBox="0 0 300 270"><defs><style>.cls-1{fill:#f1b71c;}.cls-2{fill:#d0462e;}.cls-3{fill:#4c2216;}.cls-4{fill:#3a8199;}.cls-5{fill:none;stroke:#f1b71c;stroke-linecap:round;stroke-miterlimit:10;}</style></defs><ellipse class="cls-1" cx="150" cy="234.92" rx="147.5" ry="29.39"/><path class="cls-2" d="M297.5,234.92a6.9,6.9,0,0,1-.47,2.37,9.44,9.44,0,0,1-1.2,2.09,17.82,17.82,0,0,1-3.51,3.32,44.18,44.18,0,0,1-8.48,4.64,125.56,125.56,0,0,1-18.41,6,332.31,332.31,0,0,1-38.1,7A657.29,657.29,0,0,1,150,265.56q-19.4.22-38.8-.57c-12.93-.56-25.86-1.43-38.75-2.9A321.44,321.44,0,0,1,34,255.56a127.39,127.39,0,0,1-18.79-6,45.75,45.75,0,0,1-9-4.88,19.66,19.66,0,0,1-4-3.79A12,12,0,0,1,.66,238.2a8.54,8.54,0,0,1,0-6.56A12.21,12.21,0,0,1,2.2,229a19.94,19.94,0,0,1,4-3.8,46.52,46.52,0,0,1,9-4.87,126.33,126.33,0,0,1,18.8-6,317.18,317.18,0,0,1,38.44-6.54c12.88-1.49,25.82-2.35,38.75-2.91s25.87-.71,38.8-.56a657.29,657.29,0,0,1,77.33,5.26,334.52,334.52,0,0,1,38.1,7,124,124,0,0,1,18.41,6,44.18,44.18,0,0,1,8.48,4.64,17.55,17.55,0,0,1,3.51,3.32,9.44,9.44,0,0,1,1.2,2.09A6.89,6.89,0,0,1,297.5,234.92Zm0,0a6.8,6.8,0,0,0-.48-2.35,9.89,9.89,0,0,0-1.21-2.09,17.45,17.45,0,0,0-3.52-3.29,44,44,0,0,0-8.49-4.59,124.94,124.94,0,0,0-18.42-5.89,317.53,317.53,0,0,0-38.13-6.47c-12.82-1.47-25.7-2.34-38.58-2.89s-25.78-.71-38.67-.56A658.07,658.07,0,0,0,73,212,330.25,330.25,0,0,0,35.18,219a122.48,122.48,0,0,0-18,5.85,41.36,41.36,0,0,0-8,4.36,15,15,0,0,0-3,2.81,7.13,7.13,0,0,0-.87,1.51A4.44,4.44,0,0,0,5,234.92a4.2,4.2,0,0,0,.29,1.44,7.13,7.13,0,0,0,.87,1.51,15,15,0,0,0,3,2.81,41.39,41.39,0,0,0,8,4.37,122.45,122.45,0,0,0,18,5.84A328.11,328.11,0,0,0,73,257.83a655.91,655.91,0,0,0,77,5.24q19.33.23,38.67-.56c12.88-.56,25.76-1.42,38.58-2.9a313.63,313.63,0,0,0,38.13-6.48,123.72,123.72,0,0,0,18.42-5.88,44,44,0,0,0,8.49-4.59,17.45,17.45,0,0,0,3.52-3.29,9.48,9.48,0,0,0,1.21-2.09A6.81,6.81,0,0,0,297.5,234.92Z"/><path class="cls-3" d="M96.5,38.06A1.44,1.44,0,0,0,94.15,37a1.87,1.87,0,0,0,.56,2.84c.54.27,1.2.28,1.66.68A2.69,2.69,0,0,1,97,42.42l.69,10.45a13.79,13.79,0,0,0,1.4,6.21c1.09,1.83,3.4,3.1,5.32,2.24,2.21-1,2.67-4,2.56-6.46a36.4,36.4,0,0,0-.49-4.76,8.66,8.66,0,0,1-7.2-3.46A14.68,14.68,0,0,0,104,48.51,5,5,0,0,0,108.7,47a7,7,0,0,0,1.13-2.42,32.26,32.26,0,0,0,1-13.85,4.09,4.09,0,0,0-2-3.11c-.26-.15-3.21-1.35-4.63-1.05a9.24,9.24,0,0,0-6,4.63c-1.13,2.24-1.19,4.86-1.23,7.38"/><path class="cls-3" d="M127.24,105,125.36,110c-.2.53-.38,1.2.08,1.6a1.83,1.83,0,0,0,.66.31l4.73,1.55a3.12,3.12,0,0,0,1.28.23c1.07-.1,2.07-1.2,3-.7-.1-.25.19-.48.44-.63l2-1.12a1.86,1.86,0,0,0,.85-.73,1.12,1.12,0,0,0-.47-1.3,4.89,4.89,0,0,0-1.5-.62c-1.82-.52-3.63-1.12-5.39-1.78a1.1,1.1,0,0,1-.45-.25c-.27-.32,0-.78.4-1s.82-.45,1-.84c.19-.55-.51-1.09-1.17-1.1a3.47,3.47,0,0,0-1.8.69l-2.06,1.27"/><path class="cls-3" d="M123,125c-.65,3.15-1.31,6.4-.84,9.6l1.81-3.67c1,1,.63,2.84.19,4.27l-.81,2.64a3.07,3.07,0,0,0,3.7-1.58,8.21,8.21,0,0,0,.59-3.78l0-8.89a.66.66,0,0,0-.1-.42.45.45,0,0,0-.33-.1,33.78,33.78,0,0,0-3.63.07"/><path class="cls-1" d="M96.57,54.53a25.9,25.9,0,0,0-9.52,2.16,8.73,8.73,0,0,0-3.47,2.39,7.92,7.92,0,0,0-1.43,3.43c-.93,4.77.57,9.69,2.65,14.05a104.58,104.58,0,0,0,8.36,13.73c-1.86-1.62-3.71-4.89-5.58-6.51-1.21,25.46-2.68,52.56-4.36,78l19.17.56a7.47,7.47,0,0,0,3-.32c2.07-.83,3-3.34,3.18-5.61s-.16-4.62.45-6.82l-.09,8.29a3.38,3.38,0,0,0,.71,2.59,3.12,3.12,0,0,0,1.7.62l8.53,1.31a1.65,1.65,0,0,0,1.26-.15,1.7,1.7,0,0,0,.47-1.17,44.06,44.06,0,0,0,.12-6.6q-.74-21-2.44-41.94l1.35,8.76a1.7,1.7,0,0,0,.5,1.15,1.53,1.53,0,0,0,1,.17,19.2,19.2,0,0,0,5.22-1.19l.1-5.9a4.24,4.24,0,0,0-.37-2.27,4.12,4.12,0,0,0-2.28-1.54l-10.64-4.07c-4.07-1.55-7.33-2.73-10.46-5.8a40,40,0,0,1-5.9-7.37c5.89,8.52,16.35,12.09,26.09,15.15a4.74,4.74,0,0,0,1.67-5.52c-.87-1.74-3.23-2.66-4.76-3.82-2.67-2-5.23-4.19-7.8-6.36-5-4.27-8.8-6.23-10.32-12.76,3.9,7.82,8,10,14.5,14.39q-.24-10.56,0-21.12a172.2,172.2,0,0,1,1.31,20.93,4.21,4.21,0,0,0,.52,2.46,3.86,3.86,0,0,0,1.59,1.1l6.17,2.88L124.12,82c-.8-6.07-1.64-12.24-4.11-17.82-2.21-5-6.38-9.77-11.74-10.06a16.36,16.36,0,0,1-1.62,5,4.75,4.75,0,0,1-8.56.37,16.5,16.5,0,0,1-2.1-5"/><path d="M106,161.59c2,18.86,7.38,37.2,9,56.1a1.14,1.14,0,0,0,.2.65,1,1,0,0,0,.67.28,6.64,6.64,0,0,0,4.46-1.06,3,3,0,0,0,1.09-1.13,4,4,0,0,0,.24-1.86c-.56-17-2.36-34-2.07-51.08a.87.87,0,0,0-.16-.66.78.78,0,0,0-.54-.2l-9.17-1.11"/><path d="M88.26,162.33l-.13,56.22a3.13,3.13,0,0,1,2.54-1.05,4.44,4.44,0,0,0,1.54.06c1-.29,1.29-1.57,1.39-2.63,1.7-17.41,5.43-35.23,7.37-52.6-2.63,0-9.91.17-12.54.15"/><path class="cls-2" d="M88.45,219.58a4.68,4.68,0,0,1,3.48-.75A13.65,13.65,0,0,1,95.4,220l3.17,1.33c.32.13.69.35.7.7a.71.71,0,0,1-.2.45,2.54,2.54,0,0,1-2,.57l-8.93,0a.42.42,0,0,1-.33-.09.45.45,0,0,1-.1-.34,20.43,20.43,0,0,1,.08-2.35"/><path class="cls-2" d="M114.64,220.39l.37,1.8a1,1,0,0,0,.28.61,1,1,0,0,0,.57.14c5.9.13,11.82.07,17.72-.19a1,1,0,0,0,.5-.12.69.69,0,0,0,0-1,1.84,1.84,0,0,0-1-.43c-3.18-.67-6.45-1.27-9.27-2.93a3,3,0,0,0-1.25-.52,2.51,2.51,0,0,0-.94.16L114.68,220"/><path d="M94.85,36.12c.86-3.47-.11-7.55,2.08-10.38a7.16,7.16,0,0,1,4.71-2.51,15,15,0,0,1,5.41.43,47,47,0,0,1,5,1.36c1.27.88-2.51,1.92-2.07,3.41a8.24,8.24,0,0,0-10.21,1.14c-1.88,2-2.62,4.75-3,7.45l-1.72-1"/><path class="cls-4" d="M176.66,121c-.47,9.36-2.61,18.56-3.58,27.89-.62,6-.75,12.11-.89,18.18L172,178l-.73,33.28a2,2,0,0,0,.26,1.26,1.89,1.89,0,0,0,.93.56,26.58,26.58,0,0,0,8,1.5,140.14,140.14,0,0,0,4.22-17.44c1.28-8.41,1-17,.91-25.46a34,34,0,0,1,.36-6.46,42.9,42.9,0,0,1,1.78-6,88.48,88.48,0,0,0,4.5-24.65c-.5,26.25,2.16,52.44,4.82,78.56a45.87,45.87,0,0,0,9.37.28,1.39,1.39,0,0,0,.94-.32,1.34,1.34,0,0,0,.25-.94q.64-33.64.79-67.3a184.94,184.94,0,0,0-.94-23.66,1.67,1.67,0,0,0-.26-.86,1.76,1.76,0,0,0-1.12-.55,21.79,21.79,0,0,0-4.74-.69c-2.48,0-4.87.8-7.29,1.32-5.71,1.23-11.64.84-17.47.43"/><path class="cls-1" d="M186.36,57a7.08,7.08,0,0,0,10.44.51,3.23,3.23,0,0,1,1.17-1,2.52,2.52,0,0,1,.95-.09c7,.37,13,5.59,16.2,11.77s4.26,13.25,5.23,20.17l-7,1.7c-1.29.31-2.73.61-3.86-.09-.42-.25-.91-.64-1.33-.39a1.09,1.09,0,0,0-.34.92q-.58,14.42-.14,28.85c-3.17-1.75-7.07-.52-10.58.36a49.27,49.27,0,0,1-19.31.91,1.72,1.72,0,0,1-1.34-.65,1.75,1.75,0,0,1-.14-1,153,153,0,0,0-1.54-28.37,1,1,0,0,0-.18-.5,1,1,0,0,0-.69-.22l-8.34-.49a84.73,84.73,0,0,1,6.63-24.8,10.89,10.89,0,0,1,2.93-4.37,11.46,11.46,0,0,1,3.66-1.66l6.71-2.14"/><path class="cls-3" d="M167,90.31l-1,5.13a2.35,2.35,0,0,1-.42,1.09,2.24,2.24,0,0,1-.85.52l-21.33,9.1c-1.76.75-3.64,1.51-5.53,1.2-1.14-.19-2.77-.52-3.09.6.9.07,1,1.46.46,2.17s-1.47,1.11-2,1.85c-1.21,1.74.64,4.3,2.75,4.45s4-1.25,5.44-2.81a7.35,7.35,0,0,1,1.84-1.64,6.66,6.66,0,0,1,2.22-.51,73,73,0,0,0,21.55-5.83,9,9,0,0,0,2.53-1.5,8.51,8.51,0,0,0,1.88-3,42.06,42.06,0,0,0,3-10.38l-7.24-.06"/><path class="cls-3" d="M186,56.64a5.2,5.2,0,0,0,4,3.14,12,12,0,0,0,5.28-.43,1.55,1.55,0,0,0,1.49-1.84q.06-6.3.44-12.58a1.75,1.75,0,0,1,.24-.93,2.17,2.17,0,0,1,.84-.54,2.46,2.46,0,0,0,1.49-2.56c-.26-1-1.95-1.45-2.4-.49l-.11-6.32c0-1-.16-2.23-1.07-2.67s-1.91.2-2.82.61a6.92,6.92,0,0,1-6.78-.7c-.52-.38-1.31-.81-1.7-.3a1,1,0,0,0-.17.37,32.49,32.49,0,0,0-1.18,13.51,5.81,5.81,0,0,0,1.66,3.93,5.45,5.45,0,0,0,4.43.7A17.71,17.71,0,0,0,194.39,48,11.65,11.65,0,0,1,188,50.78a2,2,0,0,0-1.3.41,1.9,1.9,0,0,0-.36,1.35l-.05,4"/><path d="M185.68,29.63a2.2,2.2,0,0,1,1.25-2.49,6.38,6.38,0,0,1,3-.45l4.88,0c1.71,0,3.6.11,4.83,1.29S201,30.85,201,32.44a25.28,25.28,0,0,1-.18,3.37c-.18,1.53-.69,3.3-2.14,3.83a.5.5,0,0,1-.43,0c-.16-.1-.17-.33-.17-.53a19.15,19.15,0,0,0-.84-6.2A2.43,2.43,0,0,0,196,31.2c-1.09-.4-2.09.74-3.19,1.1a4.49,4.49,0,0,1-1.55.14,9,9,0,0,1-3.22-.56,4.05,4.05,0,0,1-2.3-2.22"/><path class="cls-3" d="M203.46,55.19l0,2.74c1.55.48,3.53.84,4.54-.43.62-.78.6-1.87.88-2.82a4.39,4.39,0,0,1,3-2.93,4.83,4.83,0,0,0,1.13-.37,2.55,2.55,0,0,0,.89-2.42,1.71,1.71,0,0,0-.34-1,.68.68,0,0,0-1-.06,2,2,0,0,0-.9-2.14c-.67-.5-1.49-.75-2.19-1.21a6.14,6.14,0,0,1-2.18-2.92c-.31-.77-.61-1.68-1.39-2a2.14,2.14,0,0,0-2,.51,7.07,7.07,0,0,0-2.4,4.42,20.48,20.48,0,0,0,0,5.13,6.13,6.13,0,0,0,.63,2.71,3.19,3.19,0,0,0,4,1.21L203.63,55"/><path class="cls-2" d="M189.56,105.68c0,.73-.07,1.63-.74,1.92a1.61,1.61,0,0,1-.75.1l-5.52,0a3.08,3.08,0,0,1,3.77-1.89c.48.16.91.44,1.4.58a1.35,1.35,0,0,0,1.41-.29"/><path class="cls-2" d="M194.28,106.45c-.8.91-1.56,1.85-2.3,2.82-.13.18-.27.42-.15.61a.57.57,0,0,0,.48.19A12,12,0,0,0,197.7,109a.9.9,0,0,0,.5-.41c.18-.41-.29-.89-.13-1.31a4.61,4.61,0,0,1-3.91-1"/><path class="cls-3" d="M186.56,92.72l-.15,11a.69.69,0,0,0,.1.45.7.7,0,0,0,.51.17,2.57,2.57,0,0,0,2.25-.68,2.49,2.49,0,0,0,.34-1.08q.52-3.51,1-7a.85.85,0,0,0-.07-.57.73.73,0,0,0-.33-.24L187,93.17"/><path class="cls-3" d="M193.13,95.3a33.93,33.93,0,0,0,.9,8.29c.2,1,.53,2.24,1.32,2.56s1.39-.18,2,.24c.22-3.43.29-6.89.21-10.34a.76.76,0,0,0-.09-.43.42.42,0,0,0-.38-.14l-3.68,0"/><path class="cls-4" d="M186.09,92.34a10.62,10.62,0,0,0,3.82,2.11,107,107,0,0,1,.87-10.73,98.21,98.21,0,0,0,2,11.55h4.15a25.1,25.1,0,0,0,.23-5.27l7.09-.08a7.48,7.48,0,0,0,3.73-.7c1.67-1,1.38-4.06,1.84-5.94-5.93.51-11.1-2.26-13.26-7.81a1.5,1.5,0,0,0-.58-.84,1.4,1.4,0,0,0-.86,0L188.82,76a4.72,4.72,0,0,0-2,.75,4.53,4.53,0,0,0-1.34,2.86,35.92,35.92,0,0,0-.16,12.15"/><path class="cls-2" d="M196.49,73.31c.06,3.08,2.18,5.85,4.84,7.42a21,21,0,0,0,8.87,2.37c1.69-6.75,3.38-13.53,4-20.46a10.46,10.46,0,0,0-.57-5.39c-.79-1.65-2.69-2.9-4.43-2.37A4.16,4.16,0,0,1,207.73,58a3.23,3.23,0,0,1-2.8.76,2.31,2.31,0,0,1-1.76-2.16c0-.68.38-1.39.07-2a2,2,0,0,0-1.24-.83,6.25,6.25,0,0,0-3.49-.51c-1.16.27-2.17,1.52-1.74,2.63a1.67,1.67,0,0,1,2.31.77,4.84,4.84,0,0,1,.28,2.7c-.43,4.73-.89,9.6-3.06,13.82"/><path class="cls-3" d="M189.62,86a8.22,8.22,0,0,1-3.54-4.73c-.59-.37-1.07.61-1.09,1.3l-.06,3a3.16,3.16,0,0,0,.16,1.34,3,3,0,0,0,1.16,1.17,68.79,68.79,0,0,0,29.52,11.38,1.26,1.26,0,0,0,.94-.12,1.24,1.24,0,0,0,.35-1q.12-3.58.09-7.16c0-.37-.05-.81-.38-1a1,1,0,0,0-.6,0c-6.87,1.23-13.91.09-20.8-1a4.22,4.22,0,0,1-1.94-.65,5.37,5.37,0,0,1-1.38-2.24,11.12,11.12,0,0,0-3-4,.79.79,0,0,0-.6-.25c-.36.08-.4.6-.32,1a8.27,8.27,0,0,0,1.1,2.7"/><path class="cls-3" d="M205.12,62.23a14.53,14.53,0,0,1,2.94,2.42c.17.18.35.43.27.66a.78.78,0,0,1-.46.37,31.55,31.55,0,0,1-8.52,2.65c-3,.32-4.76-.57-7.17-1.68-.57-.26-2.06-1.58-2.59-1.91a10.69,10.69,0,0,0-2.68-.89,2.7,2.7,0,0,1-2-1.79L186.7,62a1.73,1.73,0,0,0-1.82-1.27,2.18,2.18,0,0,1,2.74.11c.82.58,1.42,1.42,2.27,1.94a7.4,7.4,0,0,0,2.87.84l5.63.86a5.43,5.43,0,0,0,6.48-2.32"/><path class="cls-3" d="M185,54.47c-.27.4.37,1,.09,1.38a.75.75,0,0,1-.35.22l-1.6.62a6.19,6.19,0,0,1-1,3.78,4.92,4.92,0,0,0,.25-2.15,3.81,3.81,0,0,0-2.47,2.89,4.08,4.08,0,0,1-.07-4.16c.74-1.26,3.72-2.65,5.18-2.58"/><path d="M202.71,40.57a13.31,13.31,0,0,1,2.64-2.81A4.37,4.37,0,0,1,209,37c.36.1.81.24,1-.05a1.21,1.21,0,0,0,.15-.57,1.72,1.72,0,0,1,1.75-1.45A3.39,3.39,0,0,1,213.09,33a1,1,0,0,1,.57,1.09l2-1.87a1.9,1.9,0,0,1,.52,1.19.93.93,0,0,1,1.56.74,2.35,2.35,0,0,1,1.06-.55.86.86,0,0,1,1,.53c.07.31-.09.66.1.91s.76.2,1,.5-.29.9-.24,1.39c0,.3.28.53.4.81a1.83,1.83,0,0,1,0,.93l-.4,2.64a.69.69,0,0,1-.22.5c-.18.11-.41,0-.61.09-.79.16-.51,1.58-1.22,2-.54.29-1.35-.23-1.76.22a1.22,1.22,0,0,0-.21.68,8.78,8.78,0,0,1-1.9,4.66,1.89,1.89,0,0,0-.66-1.65,5,5,0,0,1-.66-.54c-.52-.62-.24-1.66-.8-2.25s-1.46-.35-2.22-.54c-1.87-.49-2.06-3.17-3.52-4.44a3,3,0,0,0-4.15.44"/><line class="cls-5" x1="210.32" y1="44.43" x2="209.77" y2="41.84"/><line class="cls-5" x1="211.88" y1="45.2" x2="211.32" y2="42.44"/><path d="M172.21,214.28a64.38,64.38,0,0,0,6.47,1.14,46.47,46.47,0,0,1-.16,5.66,27.25,27.25,0,0,1-4.14.15l-12.54-.17a5.85,5.85,0,0,1-2.08-.28A1,1,0,0,1,159,220c0-.47.49-.77.93-1,3.74-1.64,7.54-3.16,11.37-4.56"/><path d="M199.19,214a65.06,65.06,0,0,0,6.54.42,46.3,46.3,0,0,1,.48,5.64,27,27,0,0,1-4.1.61l-12.48,1.21a5.92,5.92,0,0,1-2.1,0c-.38-.1-.78-.34-.83-.73s.4-.82.82-1.06q5.31-3.06,10.8-5.78"/></svg>